<?xml version="1.0" encoding="utf-8"?>
<!-- Generator: Adobe Illustrator 26.0.1, SVG Export Plug-In . SVG Version: 6.00 Build 0)  -->
<svg version="1.1" id="Layer_1" xmlns="http://www.w3.org/2000/svg" xmlns:xlink="http://www.w3.org/1999/xlink" x="0px" y="0px"
	 viewBox="0 0 595.28 841.89" style="enable-background:new 0 0 595.28 841.89;" xml:space="preserve">
<style type="text/css">
	.st0{fill:#E35A2C;}
	.st1{fill:#EBBF56;}
	.st2{fill:#EDBE58;}
	.st3{fill:#FBF5C8;}
	.st4{fill:#FDFBF9;}
	.st5{fill:#FAEFBC;}
	.st6{fill:#FAFCF8;}
	.st7{fill:#FEFDF1;}
	.st8{fill:#FEFEF1;}
	.st9{fill:#FBFCF5;}
	.st10{fill:#FDF5DC;}
	.st11{fill:#F9E8B4;}
	.st12{fill:#FCFCF8;}
	.st13{fill:#FEFDFD;}
	.st14{fill:#EB8B25;}
	.st15{fill:#FCB047;}
	.st16{fill:#D96320;}
	.st17{fill:#F08530;}
	.st18{fill:#DB601D;}
	.st19{fill:#E15B39;}
	.st20{fill:#DA6424;}
	.st21{fill:#DA6523;}
	.st22{fill:#E75632;}
	.st23{fill:#D5681D;}
	.st24{fill:#E85725;}
	.st25{fill:#D16F5E;}
	.st26{fill:#FEFEFE;}
	.st27{fill:#F6BB42;}
	.st28{fill:#D8621E;}
	.st29{fill:#EF882C;}
	.st30{fill:#D26541;}
	.st31{fill:#DD6739;}
	.st32{fill:#F4BC3F;}
	.st33{fill:#EC8C26;}
	.st34{fill:#EBC358;}
	.st35{fill:#D7694E;}
	.st36{fill:#E48F31;}
	.st37{fill:#E6B95D;}
	.st38{fill:#EC8D28;}
	.st39{fill:#F4BC42;}
	.st40{fill:#F5BC3A;}
	.st41{fill:#ECC976;}
	.st42{fill:#EDC975;}
	.st43{fill:#E7902C;}
	.st44{fill:#EF822D;}
	.st45{fill:#E98D26;}
	.st46{fill:#ECBD55;}
	.st47{fill:#EBC565;}
	.st48{fill:#F5BC36;}
	.st49{fill:#F3BA40;}
	.st50{fill:#F9B73E;}
	.st51{fill:#E78F20;}
	.st52{fill:#E49022;}
	.st53{fill:#DD601F;}
	.st54{fill:#F0842D;}
	.st55{fill:#DA5F1E;}
	.st56{fill:#E69122;}
	.st57{fill:#F8B43A;}
	.st58{fill:#E58E29;}
	.st59{fill:#E28F1F;}
	.st60{fill:#F38134;}
	.st61{fill:#F08B1F;}
	.st62{fill:#E39021;}
	.st63{fill:#F2862F;}
	.st64{fill:#E89112;}
	.st65{fill:#DE931C;}
	.st66{fill:#F1BF34;}
	.st67{fill:#FBAB43;}
	.st68{fill:#D57217;}
	.st69{fill:#EB8C25;}
	.st70{fill:#EA562A;}
	.st71{fill:#F3BE3D;}
	.st72{fill:#E67628;}
	.st73{fill:#DB6B23;}
	.st74{fill:#DA6723;}
	.st75{fill:#E58D2C;}
	.st76{fill:#F9B432;}
	.st77{fill:#ED8C1E;}
	.st78{fill:#FBB044;}
	.st79{fill:#E59323;}
	.st80{fill:#EE8C1B;}
	.st81{fill:#E29015;}
	.st82{fill:#E28F2E;}
	.st83{fill:#E99419;}
	.st84{fill:#F7BB35;}
	.st85{fill:#F1BE2F;}
	.st86{fill:#F3BD37;}
	.st87{fill:#FCB73D;}
	.st88{fill:#F8B93E;}
	.st89{fill:#F2BF32;}
	.st90{fill:#F8BA41;}
	.st91{fill:#F3BD31;}
	.st92{fill:#F3BF32;}
	.st93{fill:#E79419;}
	.st94{fill:#F2BB47;}
	.st95{fill:#F78719;}
	.st96{fill:#E15934;}
	.st97{fill:#F9AD43;}
	.st98{fill:#E45734;}
	.st99{fill:#E55A24;}
	.st100{fill:#EF8B1A;}
	.st101{fill:#E68D33;}
</style>
<g>
	<g>
		<path class="st0" d="M266.06,151.19c-0.37-0.36-0.74-0.73-1.1-1.09c-1.56-1.32-3.69-1.39-5.33-2.55c-1.28-0.74-2.55-1.5-3.12-3.03
			c-0.31-1.07-0.28-2.15-0.07-3.23c0.87-10.63,2.78-21.24,0.31-31.89c-0.13-0.53-0.14-1.07-0.05-1.6c1.96-3.67,4.7-2.26,7.09-0.87
			c6.36,3.69,12.52,7.74,19.27,10.64c0.42,0.21,0.81,0.49,1.17,0.81c2.11,3.66,6.67,3.68,9.29,6.59c5.72,2.54,10.55,6.98,16.82,8.31
			c0.99,0.08,1.75,0.57,2.34,1.37c2.89,4.58,8.36,5.28,12.12,8.57c1.07,0.93,2.65,1.21,3.43,2.61c1.23,2.14,1.25,4.52,1.14,6.86
			c-0.47,10.02,1.19,20.13-1.1,30.08c-0.21,0.92,0.55,1.92,0.38,2.96c-1.64,3.2-3.83,1.23-5.24,0.14
			c-5.35-4.12-11.22-7.28-16.96-10.69c-3.52-3.79-9.09-4.17-12.56-8.05c-2.5-4.17-6.9-5.99-10.69-8.19c-2.8-1.62-5.7-3.78-9.18-4.08
			c-0.44-0.06-0.85-0.2-1.25-0.4c-1.67-1.31-3.28-2.75-5.57-2.71C266.77,151.65,266.39,151.47,266.06,151.19z"/>
		<path class="st1" d="M343.54,109.5c4.59,3.81,10.06,6.1,15.02,9.26c0.48,1.03,1.94,1.83,0.73,3.27c-1.89,1.04-3.52,0.36-4.94-0.95
			c-8.78-8.08-19.8-12.38-29.56-18.8c-1.97-1.3-4.73-1.87-4.79-5.11c1.57-1.26,2.67,0.46,4.01,0.67
			c6.18,3.03,11.84,7.01,17.79,10.48C342.38,108.72,342.96,109.11,343.54,109.5z"/>
		<path class="st2" d="M272.16,68.6c0.54,0.09,1.09,0.18,1.63,0.27c1.48,0.8,3.03,1.46,4.17,2.8c0.95,0.39,1.91,0.78,2.86,1.17
			c3.21,0.5,5.53,2.39,7.4,5c-0.04,0.51-0.24,0.94-0.59,1.3c-5.15-0.11-8.73-4.42-13.54-5.41c-0.98-0.89-1.58-2.14-2.63-2.97
			c-0.32-0.3-0.57-0.65-0.77-1.05c-0.08-0.45,0.02-0.86,0.27-1.24C271.37,68.31,271.77,68.36,272.16,68.6z"/>
		<path class="st3" d="M290.66,206.01c0.31,0.71,0.62,1.43,0.93,2.14c-1.14,0.88-2.23,0.39-3.19-0.26
			c-5.28-3.58-11.65-5.45-15.9-10.68c-0.07-0.54,0.08-1,0.46-1.38C278.86,199.23,284.76,202.62,290.66,206.01z"/>
		<path class="st4" d="M336.68,102.37c4.82-2.65,7.52,0.81,10.73,1.52c0.69,0.15,1.4,1.22,0.56,1.95c-0.82,0.72-2.57,1.52-3.01,0.73
			C343.3,103.59,340.21,103.34,336.68,102.37z"/>
		<path class="st5" d="M272.96,195.83c-0.01,0.37-0.02,0.73-0.03,1.1c-0.58,0.55-1.26,0.63-1.99,0.45
			c-2.12-1.69-5.54-1.87-6.02-5.48c0.39-0.05,0.79-0.1,1.18-0.15C268.39,193.11,270.67,194.47,272.96,195.83z"/>
		<path class="st6" d="M211.98,335.14c-1.43,0.63-3.09,1.92-4.32,0.33"/>
		<path class="st7" d="M320.08,85.9c1.49-1.05,2.98-1.22,4.77-0.03C323.09,87.7,321.59,86.97,320.08,85.9z"/>
		<path class="st8" d="M194.27,85.97c-1.86,1.32-3.12,1.41-4.68,0.07C191.03,84.71,192.3,84.72,194.27,85.97z"/>
		<path class="st9" d="M190.5,91.27c0.68,0,1.37,0.08,1.38,0.97c0.01,0.98-0.67,1.49-1.49,1.7c-0.9,0.24-1.73-0.06-1.61-1.15
			C188.87,91.93,189.61,91.4,190.5,91.27z"/>
		<path class="st10" d="M198.2,92.11c1.28-0.37,2.57-0.73,3.85-1.1c0,0,0.26,0.32,0.26,0.32c0.14,0.69-0.1,1.28-0.49,1.82
			c-0.29,0.33-0.62,0.6-0.98,0.83c-1.14,0.51-2.27,1.31-3.55,0.36c-0.03-0.4-0.06-0.79-0.09-1.19
			C197.53,92.79,197.86,92.45,198.2,92.11z"/>
		<path class="st11" d="M277.95,71.67c-1.65-0.52-3.13-1.3-4.17-2.8c0.39-0.06,0.79-0.13,1.18-0.19
			C276.16,69.47,277.79,69.79,277.95,71.67z"/>
		<path class="st12" d="M123.44,196.86c1.42-1.25,1.46,0.38,1.97,1.02C123.85,199.42,123.64,198.15,123.44,196.86z"/>
		<path class="st13" d="M182.46,318.88c0-0.34,0-0.68,0-1.02c1.42,0,2.4,0.68,2.95,2.03C183.95,321.04,183.36,319.5,182.46,318.88z"
			/>
		<path class="st14" d="M257.32,145.32c-0.01,14.13-0.02,28.25-0.03,42.38c-0.12,0.71-0.52,1.22-1.04,1.66
			c-1.49,0.85-2.74,2.42-4.75,1.74c-0.35-0.33-0.51-0.74-0.47-1.23c0.34-1.82,2.12-2.9,2.4-4.94c-1.77,1.9-2.75,4.13-3.91,6.24
			c-1.24,1.19-2.8,1.57-4.41,1.82c-1.12,0.17-2.54,0.19-3.11,1.16c-2.38,4.07-6.48,5.79-10.05,8.24c-0.7,0.48-0.95,1.32-1.41,2
			c-2.15,2.58-5.13,3.8-7.99,5.24c-1.66,0.09-2.37-0.79-2.34-2.44c0.15-1.1,0.58-2.11,1.03-3.1c0.42-9.88,0.27-19.76-0.06-29.63
			c-1.28-7.33-1.25-7.26-7.83-4.17c-4.44,2.08-8.86,4.18-13.04,6.77c-1.51,0.94-3.23,1.71-3.48,3.88c-0.48,1.51-1.57,2.34-2.93,2.88
			c-3.14,0.83-4.97,4.28-8.42,4.5c-0.73-0.1-1.24-0.49-1.52-1.2c-0.24-0.96-1.08-1.64-1.15-3c-0.2,1.35,0.74,1.94,0.92,2.83
			c-0.18,1.32-0.91,2.01-2.21,2.05c-0.66-1.45-1.93-2.35-2.96-3.45c-0.39-0.66-0.89-1.04-1.69-0.67c-0.38,0.13-0.76,0.17-1.16,0.14
			c-0.79-0.09-1.55-0.46-2.34-0.06c-0.31,0.25-0.61,0.51-0.86,0.83c-0.77,1.13,0.1,2.03,0.37,3.01c-0.23,1.36-1.11,2.74,0.14,4.05
			c0.19,0.7,0.05,1.31-0.46,1.82c-0.66,0.39-1.32,0.78-1.98,1.16c-1.34,0.57-2.86,0.77-3.85,2.04l-0.04,0.02
			c-4.77-0.7-7.42,2.4-9.88,5.86c-0.76,0.41-1.53,0.81-2.29,1.22c-2.97,1.4-4.62,0.57-5.03-2.93c-1.38-11.8-1.04-23.61-0.55-35.43
			c0.16-0.53,0.43-1,0.79-1.42c9.11-3.34,17.64-7.84,25.26-14.05c1.84-1.49,4.04-2.24,6.11-3.21c2.03-0.95,3.68-2.17,4.46-4.41
			c5.89-4.62,12.33-8.26,19.09-11.32c0.62,0.17,1.38,0.88,1.74,0.7c4.03-2.03,8.61-3.27,11.06-7.72c0.44-0.98,1.26-1.25,2.21-1.3
			c4.28,0.35,7.27-2.95,10.99-4.16c4.03-3.89,9.24-5.77,13.84-8.7c1.26-0.8,2.89-1.97,3.96-0.53c2.42,3.25,5.02,2.56,7.89,1.09
			c1.42,1.77,0.77,3.7,0.6,5.68c-0.48,5.59-1.07,11.23,0.63,16.75c-0.03,2.63,0.53,5.3-0.36,7.89
			C257.27,143.06,257.29,144.19,257.32,145.32z"/>
		<path class="st15" d="M312.26,134.95c-0.65-0.35-1.31-0.7-1.96-1.05c-5.93-1.6-10.41-6.13-15.98-8.45
			c-3.16-2.87-7.72-3.48-10.5-6.96l0.01,0.02c-0.83-0.57-1.84-1.06-0.85-2.34c4.01-1.55,6.53,1.75,9.63,3.16
			c1.92,0.87,3.71,1.94,5.38,3.24c4.09,2.41,8.67,4,12.12,7.51c6.45,3.44,12.48,7.66,19.13,10.7c1.06,0.48,2.12,0.9,2.16,2.36
			c-0.44,1.59-1.62,1.8-2.96,1.73C322.67,142.24,316.86,139.65,312.26,134.95z"/>
		<path class="st16" d="M282.65,116.62c0.39,0.63,0.79,1.26,1.18,1.89c-6.1-0.98-10.82-4.99-16.08-7.82
			c-3.28-1.76-6.01-5.57-10.49-3.32c-0.59-0.63-0.66-1.36-0.4-2.15c0.73-1.23,1.82-1.7,3.18-1.57c7.68,2.03,13.62,7.59,20.65,10.95
			C281.5,115.1,282.28,115.65,282.65,116.62z"/>
		<path class="st17" d="M257.23,105.34c0.01,0.67,0.02,1.35,0.03,2.02c0,0.35,0,0.71,0.01,1.06c1.37,8.47,1.64,16.93-0.09,25.39
			c-3.96-5.24-1.48-11.15-1.51-16.77c-0.01-1.91,1.3-3.83-0.41-5.61c-0.18-0.13-0.36-0.26-0.54-0.39c-1.11-1.62-1.05-3.45-0.93-5.31
			c0.69-1.55,1.7-2.39,3.42-1.68c0.27,0.28,0.36,0.56,0.28,0.85C257.4,105.2,257.31,105.34,257.23,105.34z"/>
		<path class="st16" d="M257.18,133.82c0.03-8.46,0.06-16.93,0.09-25.39c3.67,7.35,1.99,15.2,1.38,22.75
			c-0.28,3.51,0.74,7.44-1.41,10.76C257.22,139.23,257.2,136.52,257.18,133.82z"/>
		<path class="st18" d="M328.13,187.61c-0.04-0.34-0.09-0.69-0.13-1.03c-0.74-2.4-0.52-4.7-0.41-7.25
			c0.5-11.41,1.5-22.92-0.53-34.32c0.44-0.39,0.95-0.51,1.52-0.36c0.88,0.36,1.23,1.13,1.5,1.98c0.15,0.58,0.24,1.17,0.29,1.77
			c0.02,11.3,0.04,22.59,0.19,33.88c0.03,1.97-0.29,3.66-1.45,5.18C328.78,187.51,328.45,187.56,328.13,187.61z"/>
		<path class="st19" d="M294.53,166.45c-1.86-0.82-3.72-1.64-5.58-2.46c-5.01-3.26-10.02-6.52-15.04-9.78
			c0.53-0.85,1.23-1,2.07-0.51c5.46,3.17,10.91,6.35,16.37,9.52C293.6,163.93,294.06,165.19,294.53,166.45z"/>
		<path class="st20" d="M294.6,124.65c5.5,2.61,10.62,5.9,15.7,9.25c-0.56,0.28-1.32,0.95-1.64,0.77
			c-5.37-2.93-10.69-5.97-16.03-8.99C293.12,124.99,293.79,124.67,294.6,124.65z"/>
		<path class="st21" d="M328.03,145c-0.33,0-0.65,0-0.98,0c-5.61-1.22-9.61-5.69-14.77-7.85c-0.89-0.37-0.29-1.46-0.02-2.21
			c5.25,3.04,10.49,6.07,15.74,9.11c0.35,0.2,0.47,0.41,0.36,0.62C328.26,144.89,328.15,145,328.03,145z"/>
		<path class="st22" d="M291.5,128.11c-0.42,1.97-1.9,1.73-3.09,1.54c-1.75-0.28-3.62-0.74-3.53-3.21c0.06-1.55,1.21-1.94,2.4-1.64
			C289.13,125.26,291.07,125.76,291.5,128.11z"/>
		<path class="st23" d="M294.6,124.65c-0.42,0.83-1.16,1.01-1.97,1.03c-1.45-1.65-3.42-2.34-5.37-3.02
			c-1.98-0.7-3.36-1.84-3.44-4.17C287.83,119.78,291.14,122.35,294.6,124.65z"/>
		<path class="st24" d="M261.94,140.38c1.13,1,3.57,0.64,3.63,3.07c0.02,0.82-0.94,1.46-1.79,1.18c-1.5-0.49-3.2-0.96-3.44-2.97
			C260.23,140.72,260.72,140.1,261.94,140.38z"/>
		<path class="st19" d="M285.78,154.87c2-0.64,3.38-2.38,5.15-0.71c0.49,0.46,0.6,1.35-0.11,1.67
			C289.25,156.55,287.55,157.35,285.78,154.87z"/>
		<path class="st25" d="M273.01,153.95c-2-1.04-3.99-2.08-5.99-3.11C269.91,150.03,271.73,151.45,273.01,153.95z"/>
		<path class="st6" d="M182.46,193.8c0,1.36,0,2.71,0,4.07c-1.05-0.12-1.82-0.54-1.9-1.78C180.47,194.68,181.1,193.92,182.46,193.8z
			"/>
		<path class="st26" d="M178.53,312.78c0,1.36,0,2.71,0,4.07C177.15,315.49,176,314.14,178.53,312.78z"/>
		<path class="st27" d="M121.34,139.85c7.6-5.77,16.19-9.82,24.26-14.77c5.55-3.41,10.9-7.31,17.04-9.65
			c0.91-0.53,1.87-0.57,2.85-0.28c0.86,2.86-1.99,2.84-3.05,4.21c-2.03,1.65-4.14,3.14-6.8,3.45c-1.46,0.4-3.21,0.41-3.26,2.64
			c0.97,1.21,2.14,0.78,3.3,0.47c1.89-0.53,3.74-1.21,5.71-1.22c1.55,0,3.04,0.43,3.46,2.15c0.49,1.96-0.66,3.22-2.32,3.85
			c-3.93,1.5-7.86,2.09-11.73-0.28c-1.38-0.84-2.65-1.98-4.33-2.16c-2.11,0.08-1.65,3.13-3.62,3.4c-4.71,0.67-8.07,3.95-11.72,6.59
			c-2.28,1.65-4.55,3.14-7.44,3.17C122.71,141.25,121.85,140.83,121.34,139.85z"/>
		<path class="st28" d="M149.05,207.93c-1.16,0.46-2.27,0.6-3.15-0.58c-0.53-1-0.92-2.04-0.8-3.21c1.14-10.63,0.41-21.3,0.57-31.95
			c0.04-2.9-1.61-4.43-3.74-6.04c-3.61-2.73-8.78-3.31-10.85-8.19c-0.04-0.6,0.2-1.03,0.73-1.29c6.38,0.78,11.19,4.75,16.14,8.48
			c0.56,0.69,0.92,1.46,1.01,2.37c0.27,12.89-0.24,25.78,0.56,38.66C149.54,206.81,149.39,207.4,149.05,207.93z"/>
		<path class="st29" d="M148.01,166.38c-0.32-0.34-0.65-0.68-0.97-1.03c1-0.88,1.99-0.88,2.97,0.04
			c0.19,12.27-0.38,24.54,0.65,36.81c0.29,3.46,2.14,2.57,3.89,2.79c-1.51,1.63-3.37,2.56-5.5,2.94c-0.05-0.31-0.09-0.61-0.11-0.92
			c-0.91-11.73-0.12-23.48-0.42-35.22C148.47,169.99,149.03,168.09,148.01,166.38z"/>
		<path class="st30" d="M146.06,203.98c-0.05,1.13-0.11,2.25-0.16,3.38c-6.86-4.11-13.72-8.23-20.58-12.34
			c-0.39-0.46-0.41-0.94-0.04-1.43c1.9-1.3,3.85-0.94,5.43,0.36c4.46,3.67,9.15,6.86,14.57,8.8
			C145.72,202.91,145.89,203.5,146.06,203.98z"/>
		<path class="st31" d="M114.4,187.79c-0.92-0.13-1.7-0.47-2.04-1.47c-0.19-13.66-0.69-27.33,0.26-40.99l0.29-0.23
			c0.94-0.14,1.32,0.54,1.69,1.24c0.44,1.02,0.66,2.08,0.57,3.2c-0.46,10.05-0.1,20.1-0.2,30.14c-0.02,1.73,0.42,3.3,1.11,4.83
			c0.52,1.03,1.03,2.06,0.61,3.27C115.93,188.39,115.17,188.29,114.4,187.79z"/>
		<path class="st32" d="M112.62,145.33c-0.09,13.67-0.17,27.33-0.26,40.99c-1.43-9.2-0.48-18.46-0.53-27.69
			C111.8,154.22,110.54,149.63,112.62,145.33z"/>
		<path class="st33" d="M156.84,203.77c1.79-6.14,5.6-8.4,9.88-5.86C163.74,200.43,160.37,202.25,156.84,203.77z"/>
		<path class="st34" d="M165.74,115.52c-1.03-0.03-2.06-0.05-3.09-0.08c2.73-1.93,5.45-3.87,8.18-5.8c1.86-0.81,3.73-1.62,5.59-2.43
			c0.13,0.2,0.25,0.41,0.38,0.61c-0.05,1.35-0.85,2.19-1.83,2.92c-0.94,0.61-2.03,0.95-2.94,1.63
			C169.99,113.53,168.58,116.06,165.74,115.52z"/>
		<path class="st32" d="M113.69,146.02c-0.26-0.31-0.52-0.61-0.78-0.92c2.34-2.56,5.42-3.84,8.43-5.25
			c0.83,0.08,1.65,0.19,2.11,1.07c-1.63,3.82-5.57,3.92-8.5,5.65C114.46,146.54,114.04,146.36,113.69,146.02z"/>
		<path class="st35" d="M125.42,193.77c-0.03,0.41-0.07,0.83-0.1,1.24c-2-1.34-4-2.69-6-4.03c0.16-0.2,0.32-0.39,0.48-0.59
			C122.48,190.09,124.71,190.59,125.42,193.77z"/>
		<path class="st35" d="M114.4,187.79c0.71-0.03,1.43-0.06,2.14-0.08c1.76,0.12,3.13,0.7,3.1,2.88c-0.1,0.13-0.21,0.27-0.31,0.4
			C117.41,190.37,115.65,189.49,114.4,187.79z"/>
		<path class="st33" d="M166.75,197.89c0.55-2.16,1.85-2.82,3.85-2.04C169.55,196.99,168.33,197.8,166.75,197.89z"/>
		<path class="st36" d="M352.57,174.29c-1.27,0.47-2.54,0.94-3.81,1.4c-0.34-0.32-0.52-0.71-0.58-1.17c0-0.48,0.29-1.1,0-1.44
			c-1.25-1.49-3.3-3.2-1-4.89c2.24-1.65,3.77,0.46,5.15,2.59c2.04-3.36,5.67-4.55,8.82-6.48c0.64-0.36,1.26-0.73,1.61-1.44
			c0.52-12.31,0.59-24.6-0.21-36.9c0.32-1.51,0.39-3.33,2.71-2.25c0.14,13.1,0.24,26.2,0.48,39.29c0.04,2.4-0.98,3.58-2.86,4.68
			C359.36,169.75,355.99,172.08,352.57,174.29z"/>
		<path class="st37" d="M365.26,123.72c-1.23,0.02-1.79,0.71-1.82,1.94c-0.36,0.26-0.75,0.32-1.17,0.15
			c-0.79-0.41-1.3-1.1-1.76-1.84c-0.45-0.74-0.93-1.46-0.99-2.38c-0.32-0.95-0.64-1.89-0.96-2.83
			C360.69,120.56,363.87,120.84,365.26,123.72z"/>
		<path class="st14" d="M260.12,272.03c-0.92,0.42-1.83,0.85-2.75,1.27c-0.2-0.16-0.39-0.32-0.59-0.47
			c-0.8-1.42-0.77-2.88-0.15-4.35c0.47-1.35,1.74,0.19,1.92-0.35c0.56-1.7-1.21-0.68-1.68-1.31c-0.39-0.53-0.63-1.11-0.81-1.75
			c-0.46-11.27-0.8-22.52,0.17-33.77c0.39-1.18,1.17-2.02,2.21-2.6c6.34-1.25,12.17-3.71,17.34-7.81c1.3-1.03,2.82-1.83,4.54-0.81
			c1.99,1.89,2.31,4.5,0.91,6.42c-1.87,2.58-0.97,4.59-0.44,7.2c1.01,4.95,0.28,10.08,0.41,15.13c-0.29,1.73,0.91,3.19,0.83,4.88
			c-0.87,1.32-2.45,1.26-3.67,2.02c1.21,0.16,2.46-0.03,3.44,0.88c0.66,1.2-0.35,1.7-0.93,2.39
			C273.96,263.34,267.04,267.68,260.12,272.03z"/>
		<path class="st38" d="M280.88,258.99c0.31-0.71,0.62-1.42,0.93-2.14c-0.05-1.02,0.11-2.04,0-3.06c-1.07-1.14-2.37-2.16-1.97-4.06
			c1.13-1.4,3.67-1.5,3.51-4.09c0.25-9.61-0.3-19.22,0.28-28.81c0.7-3.59,5.55-2.5,6.35-5.99c0.17-0.44,0.43-0.81,0.77-1.12
			c0.67-0.29,1.29-0.17,1.86,0.28c0.1,8.36,0.21,16.72,0.31,25.08c0.02,2.02,0,4.03,0,6.05
			C292.92,253.95,292.92,253.95,280.88,258.99z"/>
		<path class="st39" d="M292.61,210.01c-0.64,0.03-1.28,0.06-1.92,0.09c-2.51,1.53-4.25-0.53-6.16-1.51
			c-1.58-0.81-3.06-1.85-4.74-2.47c-2.43-0.9-4.37-2.57-6.32-4.24c-1.72-1.07-3.43-2.18-5.14-3.27c-0.89-0.8-1.98-1.53-1.2-3.03
			c1.66-0.74,2.7,0.76,4.04,1.19c0.59,0.05,1.17,0.11,1.76,0.16c5.97,4.19,12.16,7.97,18.65,11.22
			C291.92,208.77,292.27,209.39,292.61,210.01z"/>
		<path class="st40" d="M359.52,121.6c0.65,0.68,1.31,1.37,1.96,2.05c-1.03,1.91-4.04,1.62-4.42,4.25
			c-0.32,0.88-0.73,1.69-1.39,2.35c-3.83,2.61-8.14,4.41-11.78,7.36c-2.81,1.61-5.74,2.97-8.48,4.74c-1.31,0.85-2.74,1.94-4.41,0.65
			c-7.63-3.29-14.65-7.74-21.65-12.25c1.66-4.72-2.9-5.27-4.87-7.37c-2.04-2.17-4.68-1.83-6.93,0.26
			c-4.91-2.46-8.98-6.83-14.89-7.03c-0.63-0.32-1.26-0.65-1.89-0.98c-7.52-4.56-14.29-10.59-23.14-12.52
			c-1.56,0.29-2.82,1.4-4.35,1.77c-7.7,1.35-13.97,5.25-19.03,11.33c-1.19,1.28-2.56,2.21-4.3,2.46c-4.32,0.06-7.61,3.05-10.95,5.05
			c-3.89,2.32-7.96,4.32-11.81,6.73c-6.48,3.5-12.61,7.62-19.09,11.11c-9.77,5.26-18.98,11.54-28.56,17.15
			c-1.43,0.83-2.91,1.57-3.71,3.18c-1.19,1.74-2.68,2.97-4.87,2.91c-4.77-0.34-8.58-3.21-12.42-5.59c-4.62-2.86-9.41-5.3-14.25-7.68
			c-1.32-0.65-3.08-1.26-2.77-3.04c0.3-1.77,2.32-1.47,3.63-2c2.77-1.13,6.1,0.06,8.52-2.41c-5.33,0.54-10.6,1.32-15.19,4.62
			c-1.65-0.33-3.69-0.07-3.82-2.69c2.93-1.7,5.86-3.4,8.8-5.1c4.88-1.08,8.36-4.75,12.23-7.51c2.43-1.74,4.68-2.59,7.44-2.64
			c1.3,0.62,1.78,0.04,1.59-1.26c-0.15-1-0.36-1.94,0.39-2.78c1.83-0.12,3.52-0.01,4.97,1.51c3.56,3.73,7.76,2.6,11.95,1.49
			c1.32-0.35,2.21-1.21,2.06-2.41c-0.22-1.78-1.8-1.8-3.09-1.48c-2.05,0.5-4.05,1.23-6.07,1.87c-0.87-1.58-2.77-1.05-3.93-2.03
			c-0.01-2.73,1.81-3.55,3.93-4.06c3.28,1.35,5.17-0.65,6.89-3.06c1.31-1.01,2.62-2.03,3.93-3.04c1.97-1.36,3.94-2.71,5.91-4.07
			c0.88-0.48,1.2,0.13,1.48,0.82c0.79,0.88-1.8,2.64,0.77,3.05c1.43,0.88,2.99,1.08,4.61,1c1.08-0.11,2.41,0.32,2.67-1.44
			c0.5-2.12,4.93-1.93,2.99-5.47c-0.05-0.33,0.01-0.63,0.18-0.9c0.54-0.88-0.09-0.38-0.3-0.26c-1.12,0.61-2.23,1.1-3.44,0.23
			c-0.63-0.97-0.24-1.85,0.2-2.73c6.32-4.98,13.69-8.19,20.3-12.7l-0.02,0.01c8.2-3.25,15.21-8.67,22.63-13.33
			c2.95-1.66,5.9-3.32,8.86-4.98c-0.16,3.96,1.65,4.41,4.63,2.77c2.48-1.37,5.04-2.22,7.92-1.56c1.05,0.24,2.55,0.55,2.52-1.27
			c-0.02-1.61-1.26-2.28-2.73-2.15c-1.86,0.18-3.07,1.81-4.7,2.49c-2.57,1.06-5.25,3.38-7.67-0.31c0.98-0.68,1.95-1.35,2.93-2.03
			c2.02-0.35,3.46-1.76,5.03-2.93c0.63-0.37,1.25-0.74,1.87-1.11c2.16-1.6,4.99-2.05,6.82-4.22c6.42-6.45,12.14-2.97,17.81,1.32
			c1.23,1.12,3.2,1.2,3.93,3.01c0.02,0.32,0.03,0.64,0.04,0.97c-2.41,2.12-2.22,4.35,0.69,5.23c6.23,1.87,11.94,4.98,17.97,7.31
			c2.92,1.13-0.65-2.08,1.1-1.64c0.7-0.36,1.34-0.22,1.96,0.19l-0.01-0.01c0.96,1.35,2.61,1.38,3.87,2.15
			c7.89,4.66,15.78,9.32,23.67,13.97c3.33,4.63,8.66,6.23,13.16,8.98c7.39,4.51,15.27,8.17,21.69,14.2
			C356.49,121.45,357.87,121.67,359.52,121.6z"/>
		<path class="st34" d="M223.71,79.74c-3.4,4.47-8.82,5.94-12.96,9.35c-2.74,2.26-5.68,4.67-9.67,3.97
			c0.41-0.58,0.82-1.16,1.23-1.74c3.83-1.58,7.5-3.47,10.66-6.28C217,84.26,219.72,80.61,223.71,79.74z"/>
		<path class="st41" d="M249.2,64.45c-1.4,2.92-4.1,3.59-6.82,4.22C244.11,66.32,246.71,65.47,249.2,64.45z"/>
		<path class="st42" d="M270.94,68.79c-1.39-0.9-3.12-1.3-3.93-3.01c2.23-0.05,3.75,1.26,5.14,2.83
			C271.75,68.66,271.35,68.72,270.94,68.79z"/>
		<path class="st41" d="M240.51,69.78c-1.07,2.08-2.57,3.4-5.03,2.93C237.01,71.48,238.37,69.91,240.51,69.78z"/>
		<path class="st43" d="M255.05,317.62c-3.16,1.33-6,3.21-8.72,5.31c-7.57,4.28-15.14,8.57-22.71,12.85
			c-0.93-0.22-1.86-0.43-2.79-0.65c-0.31-0.43-0.31-0.86-0.01-1.29c6.94-4.18,13.65-8.77,21.04-12.44c-1.61-2.28-5.4-3.54-3.31-6.32
			c2.04-2.71,4.44,0.03,6.28,1.46c4.23,3.3,5.91-1.53,8.72-2.73c0.45-0.62,0.89-1.24,1.09-2.01c0.19-10.42,0-20.83,0.09-31.24
			c0.02-2.33-0.22-4.72,0.85-6.92c0.35-0.61,0.86-0.82,1.52-0.65c0,0,0.25,0.32,0.25,0.32c-0.05,12.67-0.14,25.35-0.12,38.02
			C257.26,313.78,257.18,316.04,255.05,317.62z"/>
		<path class="st44" d="M329.11,187.47c-0.01-13.47-0.03-26.95-0.04-40.42c4.08-1.01,4.35,1.59,3.87,4.56
			c-0.8,5-0.84,9.97,0.05,14.95c0.52,3.09,0.4,6.2,0.34,9.31c0.01,2.13-0.09,4.27,0.36,6.38c0.19,1.11,0.03,2.13-0.74,2.99
			C331.67,185.98,330.39,186.72,329.11,187.47z"/>
		<path class="st45" d="M332.95,185.23c0-0.87,0.01-1.74,0.01-2.61c1.36-2.61,3.44-4.41,6.04-5.54c1.9-0.83,3.3-2.08,4.03-4.1
			c0.25-0.42,0.58-0.75,1-0.99c2.2-0.48,3.56,0.73,4.65,2.48c0.02,0.41,0.05,0.81,0.07,1.22
			C343.72,179.28,338.44,182.44,332.95,185.23z"/>
		<path class="st46" d="M271.17,196.77c-1.37-0.31-2.74-0.62-4.11-0.93c-3.11,0.45-5.21-1.68-7.58-3.13
			c-0.95-0.61-2.09-0.67-3.08-1.16c-1.63-0.81-1.64-1.77-0.21-2.83c0.37-0.34,0.73-0.68,1.1-1.02c2.54,1.4,5.08,2.8,7.62,4.2
			C267,193.52,269.08,195.14,271.17,196.77z"/>
		<path class="st47" d="M296.56,82.98c-1.71,0.09-3.26-0.12-3.87-2.15c0.62,0.04,1.23,0.08,1.85,0.13
			C295.22,81.63,295.89,82.31,296.56,82.98z"/>
		<path class="st34" d="M201.1,93.05c-3.01,3.62-7.36,5.27-11.13,7.67c-2.87,1.82-5.86,3.43-8.5,5.62c-1.51,0.8-2.84,2.41-4.82,1.16
			c0,0-0.23-0.3-0.23-0.3c6.95-4.29,13.91-8.59,20.86-12.88C198.56,93.9,199.83,93.48,201.1,93.05z"/>
		<path class="st48" d="M290.68,80.91c0.44,0.85,0.89,1.7,1.49,2.86c-6.36,0.09-10.67-4.76-16.24-5.92
			c-2.03-0.42-3.99-1.28-5.94-2.05c-2.01-0.79-2.43-2.93-2.43-4.59c-0.01-2.31,2.19-1.12,3.44-1.46c0,0,0,0,0,0
			c1.26,0.73,1.96,2.04,2.97,3.04c5.19,0.58,9.14,4.16,13.76,6.1C289.11,78.93,290.67,78.7,290.68,80.91z"/>
		<path class="st47" d="M290.68,80.91c-0.99-0.67-1.97-1.34-2.96-2.02c0.01-0.37,0.03-0.74,0.04-1.1c1.95,0.49,3.83,1.12,4.94,3.05
			C292.03,80.86,291.35,80.88,290.68,80.91z"/>
		<path class="st40" d="M273.96,72.79c-1.95-0.01-2.25-1.74-2.97-3.04C272.87,69.84,273.84,70.87,273.96,72.79z"/>
		<path class="st0" d="M257.12,272.98c-0.29,0.1-0.58,0.16-0.89,0.18c-7.13-1.26-12.65-6.13-19-9.14c-3.56-1.69-6.97-3.75-10.5-5.54
			c-3.99-2.02-4.43-1.8-4.46,2.82c-0.1,11.85-0.03,23.7-0.03,35.55c0,10.33,0.02,20.65-0.02,30.98c-0.01,2.18,0.18,4.44-1.31,6.31
			c-0.03,0.33-0.05,0.66-0.08,0.99c-4.54-2.25-9-4.63-12.81-8.1c0.94-2.03,0.08-4.36,1.03-6.39c0.35-0.73,2.54,0.05,1.59-1.31
			c-2.31-3.28-7.95-3.18-10.32-0.13c-1.25,0.99-2.68,0.9-4.12,0.72c-8.74-3.16-9.83-4.7-9.83-13.91c0-33.44,0.01-66.88-0.03-100.33
			c0-1.94,0.7-4.09-0.91-5.79c-0.04-4.06-0.08-8.11-0.13-12.17c2.66-1.68,5.33-3.35,7.99-5.03c3.19,0.58,5.33-1.87,7.8-3.12
			c3.61-1.84,7.13-3.94,10.56-6.18c4.84-3.16,6.8-2.26,9.07,3.44c0.96,9.43,0.5,18.89-0.12,28.28c-0.25,3.79,0.45,5.73,3.71,6.94
			c1.98,0.74,3.75,2.1,5.94,2.25c0.49,0.02,0.98,0.11,1.46,0.24c8.26,3.52,15.33,9.27,23.32,13.31c1.03,0.52,1.79,1.43,2.13,2.62
			c0.04,12.18,0.07,24.37,0.11,36.55c0.26,0.23,0.35,0.47,0.26,0.7c-0.09,0.23-0.17,0.35-0.26,0.35
			C257.23,269.7,257.18,271.34,257.12,272.98z"/>
		<path class="st40" d="M231.63,215.17c-0.33,0.01-0.67,0.03-1,0.04c-0.38-0.26-0.69-0.58-0.94-0.96c-1.15-2.75-3.81-2.7-6.04-3.44
			c-0.64-0.36-1.1-0.83-0.98-1.67c1.49-2.95,5.16-2.75,7.01-5.18c6.92-4.92,13.78-9.93,21.65-13.17c1.62-0.69,3.25-1.38,4.87-2.07
			c-0.87,4.05,3.65,0.64,3.96,3.06c-1.68,2-4.06,3.18-5.93,5.71c6.82-6.25,10.09-0.13,14.03,3.65c0.85,6.93,2.03,8.32,8.94,9.68
			c-6.23-0.34-6.31-6.31-9.09-9.83c-0.87-1.4,0.05-2.25,0.91-3.11c1.64,1.01,3.28,2.03,4.92,3.04c0.38,3.81,1.97,5.75,5.9,4.08
			c4.1,0.61,6.68,4.65,10.85,5.1c-0.01,0.33-0.02,0.66-0.03,0.98c-1.44,1.74-3.32,2.75-5.37,3.49c-0.95,0.13-1.36,1.06-2.08,1.53
			c-0.75,0.51-1.53,0.97-2.28,1.47c-6.67,3.48-12.39,8.86-19.88,10.72c-4.36,0.9-7.86-1.33-11.42-3.35
			C243.69,221.57,238.32,217.06,231.63,215.17z"/>
		<path class="st49" d="M118.49,148.07c3.8-5.24,10.07-3.95,15.07-6.02c1.03-0.43,2.38,0.02,2.54,1.6c0.23,2.27-1.47,3.11-3.05,3.19
			c-3.67,0.2-7.26,0.59-12.22,2.13c11.68,3.72,19.7,11.91,30.12,15.35c0.24,0.21,0.32,0.43,0.24,0.64
			c-0.08,0.21-0.16,0.32-0.24,0.32c-0.32,0.02-0.63,0.05-0.94,0.11c-0.99-0.01-1.98-0.03-2.97-0.04c-4.89-2.73-9.78-5.46-14.67-8.19
			c-3.7-0.89-6.67-3.39-10.11-4.83c-0.4-0.2-0.78-0.43-1.16-0.68C120.1,150.55,118.17,150.18,118.49,148.07z"/>
		<path class="st50" d="M154.94,161.34c3.02-4.63,8.07-6.31,12.46-8.81c3.24-1.85,6.12-4.42,9.31-5.96
			c7.16-3.44,13.6-8.35,20.95-11.18c3.59-1.38,4.99-6.15,9.4-5.64c0.49,0.88,0.04,1.55-0.43,2.23c-0.42,0.46-0.9,0.8-1.53,0.89
			c-6.23,3.71-12.46,7.43-18.69,11.14c-0.75,1.13-1.65,2.12-2.84,2.73c-8.17,4.17-15.52,9.83-23.69,14
			C158.28,161.55,156.78,162.85,154.94,161.34z"/>
		<path class="st51" d="M253.26,104.29c1.33-0.69,2.66-1.38,3.99-2.07c0.13,0.16,0.26,0.32,0.39,0.49c0.17,0.65,0.12,1.23-0.48,1.64
			c-1.41-0.01-2.36,0.7-2.9,2.02c-1.5,2.07,0,3.53,0.98,5.08c0,0,0,0,0,0c-0.01,1.52,0.07,3.48-1.72,3.63
			c-1.91,0.16-4.01-0.82-4.88-2.65c-1.03-2.15-1.72-1.63-3.2-0.58c-2.76,1.97-5.65,3.74-8.89,4.84c-1.37,0.46-2.76,0.99-2.94,2.88
			c-0.24,2.48-1.94,0.76-2.96,1.03c-0.61-0.6-1.68-0.17-2.18-1.03c-0.24-1.11,0.58-1.5,1.26-1.99c1.54-0.18,2.87-0.79,3.89-2.03
			C239.62,110.77,245.98,106.67,253.26,104.29z"/>
		<path class="st52" d="M154.94,161.34c7.03-2.16,12.82-6.81,19.2-10.29c4.14-2.25,8.18-4.69,12.26-7.05
			c-0.1,1.41-0.46,2.98-1.62,3.54c-11.16,5.36-20.75,13.63-32.19,18.45c-0.68,0.29-1.25-0.09-1.64-0.71c0.01-0.32,0.01-0.64,0-0.96
			C152.39,163.48,154.17,163.13,154.94,161.34z"/>
		<path class="st53" d="M219.84,176.53c-2.65-4.83-3.87-4.92-9.02-1.3c-4.52,3.17-9.16,6.15-14.44,7.87
			c-1.14,0.37-2.17,0.8-3.06-0.41c1.36-0.12,2.38-0.76,2.94-2.08c6.62-5.31,14.06-9.25,21.61-12.75c4.66-2.16,2.9,2.69,3.45,4.82
			c0.06,0.49,0.1,0.99,0.12,1.49C221.21,175.17,220.74,176.01,219.84,176.53z"/>
		<path class="st54" d="M220.83,173.47c-0.14-6.14-0.05-5.95-5.25-3.45c-6.63,3.18-12.19,8.43-19.33,10.58
			c-1.68-1.59-0.18-2.27,0.85-3c6.27-4.48,13.42-7.23,20.17-10.76c3.32-1.74,4.5,0.13,4.53,6.63c-0.16,0.13-0.32,0.26-0.49,0.39
			C221.16,173.73,221,173.6,220.83,173.47z"/>
		<path class="st55" d="M219.84,176.53c0.02-0.82,0.17-1.57,0.92-2.03c0.21,0.26,0.6,0.51,0.61,0.77
			c0.42,10.59,1.29,21.18-0.47,31.73c-0.04,1.28,0.55,1.99,1.77,2.14c0.32,0.34,0.63,0.68,0.95,1.02c2.38,1.29,5.35,1.52,6.94,4.2
			c0.01,0.28,0.04,0.56,0.07,0.84c-7.04,0.35-10.9-3.32-10.83-9.94C219.91,195.69,219.84,186.11,219.84,176.53z"/>
		<path class="st56" d="M251.33,190.78c-6.76,5.19-14.22,9.17-21.65,13.17c0.01-1.77,1.15-2.6,2.5-3.34
			c3.35-1.85,6.54-3.59,8.68-7.35c1.62-2.84,5.77-1.06,8.49-2.51c0.65-0.59,1.31-0.63,1.96-0.01L251.33,190.78z"/>
		<path class="st57" d="M229.73,117.57c-0.36,0.66-0.72,1.32-1.09,1.99c-2.19,3.08-5.48,4.13-8.8,5.1c-0.81,0.02-1.54,0.2-1.95,1.02
			c-3.56,2.83-6.67,6.57-11.82,6.11c0.33-0.68,0.65-1.37,0.98-2.05c0.49-2.55,3.06-2.08,4.54-2.94c4.98-2.91,10-5.7,14.83-8.89
			C227.25,117.36,228.61,117.66,229.73,117.57z"/>
		<path class="st33" d="M181.48,188.6c-2.94,1.4-5.89,2.8-8.83,4.2c-5.66-1.32-0.57-2.72-0.03-4.08c-1.05-1.35-1.05-2.7,0-4.06
			l0.01-0.01c1.31-0.45,2.61,2.56,3.92,0.01l0.01-0.01c0.98-0.82,1.96-0.82,2.94,0.01C179.36,186.4,182.32,186.49,181.48,188.6z"/>
		<path class="st58" d="M166.23,185.67c1.19,0.18,2.89-0.46,3.17,1.42c0.24,1.63-1.43,1.5-2.35,2.02c-0.28,0.16-0.59,0.28-0.86,0.47
			c-1.66,1.12-3.06,3.41-5.44,1.37c-0.84-0.72-1.12-1.78-0.51-2.7C161.66,186.07,163.86,185.61,166.23,185.67z"/>
		<path class="st59" d="M206.07,131.8c4.36-1.16,7.62-4.6,11.82-6.11c0.68,1.55,0.28,3.48-1.05,3.59c-3.52,0.28-5.53,3.04-8.26,4.54
			c-1.61,0.88-2.94,1.8-3.48-0.96C205.42,132.51,205.75,132.15,206.07,131.8z"/>
		<path class="st54" d="M221.81,173.47c2,3.25,0.69,6.84,0.95,10.26c0.45,6.16-0.68,12.4,0.65,18.53c0.32,1.46-0.53,2.15-1.59,2.73
			C221.02,194.49,221.03,183.98,221.81,173.47L221.81,173.47z"/>
		<path class="st60" d="M221.8,173.47c0,10.51,0,21.02,0.01,31.52c-0.02,0.8-0.16,1.55-0.91,2c-0.05-10.84-0.09-21.67-0.14-32.5
			c0.02-0.34,0.05-0.68,0.08-1.02C221.16,173.47,221.48,173.47,221.8,173.47z"/>
		<path class="st61" d="M251.31,190.75c-0.65,0-1.31,0.01-1.96,0.01c-0.84-3.66,3.35-5.13,3.48-8.39c0-0.06,0.93-0.27,1.25-0.08
			c0.97,0.56,1.2,1.53,0.96,2.61C254.48,187.31,252.44,188.72,251.31,190.75z"/>
		<path class="st62" d="M219.84,124.66c2.71-2.11,5.66-3.8,8.81-5.1c0.82,0.04,1.57,0.2,2.01,1.03
			C227.23,122.44,224.37,125.93,219.84,124.66z"/>
		<path class="st63" d="M176.55,184.66c-0.23,1.33,0.69,3.39-1.2,3.72c-2.65,0.46-1.02-3.06-2.73-3.73
			C173.95,180.55,175.25,184.86,176.55,184.66z"/>
		<path class="st64" d="M172.62,184.66c0,1.35,0,2.7,0,4.06c-1.36-0.11-1.99-0.86-1.9-2.28C170.8,185.2,171.57,184.78,172.62,184.66
			z"/>
		<path class="st33" d="M184.42,186.71c-0.33-0.01-0.65-0.02-0.98-0.02c-0.94-0.86-1.88-1.72-3.05-2.79
			C184.19,181.99,183.29,185.68,184.42,186.71z"/>
		<path class="st65" d="M179.51,184.66c-0.98,0-1.96-0.01-2.94-0.01c0.13-0.82,0.21-1.71,1.24-1.84
			C179.13,182.65,179.37,183.62,179.51,184.66z"/>
		<path class="st66" d="M297.55,123.65c0.39-5.07,3.65-3.07,6-2.38c3.31,0.97,5.12,4.3,8,6.17c1.96,1.27-0.26,2.94-2.19,3.32
			C305.83,127.66,301.47,126.03,297.55,123.65z"/>
		<path class="st56" d="M331,143.01c4.65-1.19,7.97-5.31,12.76-6.2c-0.08,3.99-5.56,8.97-10.38,9.45c-1.45,0.14-2.87-0.07-4.3-0.26
			c-0.35-0.33-0.7-0.66-1.05-1c-0.01-0.32-0.01-0.63-0.03-0.95C329.08,143.95,330.28,144.19,331,143.01z"/>
		<path class="st67" d="M257.26,102.22c0.91-1.2,1.89-0.92,3-0.27c6.43,3.74,12.41,8.32,19.37,11.09c0.98,0.39,1.16,1.55,1.15,2.61
			c-6.87-3.77-13.74-7.54-20.61-11.31c-0.94-0.69-2.34-0.63-2.93-1.9L257.26,102.22z"/>
		<path class="st68" d="M257.24,102.43c1.14,0.37,2.26,0.76,2.93,1.9c-0.98,0.34-1.96,0.68-2.94,1.01c-0.01-0.34-0.03-0.67-0.06-1
			C257.19,103.7,257.21,103.07,257.24,102.43z"/>
		<path class="st14" d="M255.25,111.44c-0.59-1.64-5.68-2.35-0.98-5.08C254.59,108.05,254.92,109.75,255.25,111.44z"/>
		<path class="st69" d="M329.08,146c4.8-0.74,9.1-2.5,12.72-6.02c0.98-0.96,1.97-1.67,1.96-3.18c3.14-3.74,7.48-5.35,11.76-7.09
			c2.02-1.45,4.27-2.52,6.27-4.01c0.22-0.06,0.44-0.11,0.66-0.16c0.33,0.04,0.66,0.08,0.99,0.12c0.83,1.5,1.02,3.12,1.02,4.83
			c-0.04,10.38-0.01,20.76-0.03,31.14c0,1.31,0.25,2.72-0.97,3.7c-1.94-3.31-0.78-6.95-0.94-10.43c-0.2-4.56-0.05-9.14-0.05-13.71
			c0,6.27,0.03,12.53-0.02,18.8c-0.01,1.82,0.42,3.77-0.97,5.34c-2.13,2.41-5.96,2.25-7.59,5.66c-0.75,1.56-2.05,0.56-2.98-0.68
			c-0.84-1.11-2.18-2.86-3.48-1.26c-1.02,1.27,0.27,2.58,1.71,3.38c1.76,0.98-0.56,1.29-0.45,2.04c-1.63-0.68-3.27-1.35-4.9-2.03
			c-1.21-4.18-0.68-8.5-0.96-12.75c-0.23-3.44,0.32-6.94-0.64-10.34c1.29,4.77,0.35,9.63,0.63,14.44c0.15,2.63,0.17,5.28-2.75,6.27
			c-2.88,0.98-5.45,0.22-7.29-2.46c-0.28-0.41-0.5-0.87-0.79-1.27c-2-4.8-1.53-9.94-0.43-14.59c0.79-3.33,0.23-4.18-2.48-4.72
			C329.08,146.69,329.08,146.35,329.08,146z"/>
		<path class="st70" d="M196.22,319.91c1.04-1.5,2.59-0.89,3.95-1.03c3.54-2.07,6.47-1.28,8.85,2.04c0.74,2.22,2.64,4.64-0.98,6.1
			C204.68,323.61,199.16,324.06,196.22,319.91z"/>
		<path class="st32" d="M145.1,126.73c0.13,0.8,0.16,1.63,0.43,2.38c0.29,0.79,1.8,1.42,0.53,2.33c-0.94,0.68-2.15,0.45-2.94-0.68
			C144.82,129.97,142.52,127.07,145.1,126.73z"/>
		<path class="st71" d="M161.8,118.56c-1.2,3.66-3.33,5.07-6.89,3.06C157.76,121.9,159.65,119.93,161.8,118.56z"/>
		<path class="st71" d="M150.98,125.68c1.7-0.12,4.29-2.09,3.93,2.03C153.23,127.81,151.73,127.53,150.98,125.68z"/>
		<path class="st0" d="M121.61,151c0.3,0.01,0.59,0.07,0.88,0.18c2.05,3.4,6.25,3.44,8.82,6.04c3.23,4.2,8.32,5.46,12.37,8.37
			c1.45,1.04,3.42,1.56,3.33,3.89c-0.46,11.5,1.18,23.06-0.95,34.51c-6.02-1.46-11.2-4.42-15.61-8.93
			c-1.33-1.36-3.23-1.33-5.03-1.27c-1.63-1.64-3.68-2.48-5.79-3.18c-1.03-0.96-2.06-1.92-3.1-2.89c-0.32-0.68-0.65-1.35-0.97-2.03
			c0.2-0.14,0.41-0.28,0.61-0.42c1.4-0.33,2.46,0.52,2.88,0.75c-0.08-9.32,0.01-19.02-0.06-28.71c-0.04-0.68-0.78-0.04-0.15-0.21
			c0.12-0.03,0.18,0.13,0.18,0.47c-0.07,6.77,0.04,13.54-0.07,20.31c-0.02,1.35,0.82,3.15-1.18,3.94c-0.52-0.27-0.89-0.67-1.13-1.23
			c-0.7-9.95-0.97-19.88,0.14-29.81C118.49,148.71,120.02,150.68,121.61,151z"/>
		<path class="st72" d="M148.01,166.38c1.43,1.12,0.99,2.75,0.99,4.21c0,12.14-0.04,24.28-0.06,36.42c-1.5-1.54-0.87-3.5-0.87-5.28
			C148,189.95,148.02,178.16,148.01,166.38z"/>
		<path class="st73" d="M131.31,157.21c-3.17-1.65-7.75-1.11-8.82-6.04c3.49,1.66,6.98,3.3,9.88,5.99
			C132.02,157.18,131.66,157.19,131.31,157.21z"/>
		<path class="st0" d="M115.57,185.68c-1.35-1.15-1.94-2.69-1.94-4.44c-0.01-10.11-0.02-20.22,0.06-30.33
			c0.01-0.95,0.59-1.9,0.9-2.85c1.19-0.22,1.55,0.63,1.87,1.54c0.23,8.73,0.02,17.47,0.12,26.2c0.02,1.97-0.46,4.07,0.97,5.81l0,0
			c0.47,1.93-1.05,2.84-1.96,4.06L115.57,185.68z"/>
		<path class="st74" d="M115.58,149.07c-0.33-0.34-0.66-0.67-1-1.01c-0.78-0.45-0.96-1.19-0.9-2.04c0.32-0.01,0.64-0.01,0.96,0
			c1.28,0.68,2.56,1.36,3.84,2.05c1.04,0.98,2.08,1.95,3.12,2.93c-1.48,0.31-2.8-0.2-4.07-0.9
			C116.68,150.17,116.11,149.65,115.58,149.07z"/>
		<path class="st71" d="M176.66,107.5c1.61-0.39,3.21-0.77,4.82-1.16c-0.33,0.68-0.65,1.37-0.98,2.05
			c-0.14,0.18-0.28,0.37-0.42,0.56c-1.57,0.88-2.96,2.25-4.96,1.9c-0.18-0.14-0.36-0.29-0.54-0.44
			C175.27,109.44,175.96,108.47,176.66,107.5z"/>
		<path class="st71" d="M172.63,112.46c-0.33-0.34-0.65-0.68-0.98-1.01c0.7-1.18,1.85-0.99,2.93-1.04c0,0,0.02,0.02,0.02,0.02
			c0.37,0.39,0.5,0.86,0.39,1.4C174.42,112.89,173.69,113.33,172.63,112.46z"/>
		<path class="st75" d="M361.48,165.33c0-10.27,0-20.55,0-30.82c0.66,0,1.32,0,1.98,0c0,10.27,0,20.55,0,30.82
			C362.8,165.33,362.14,165.33,361.48,165.33z"/>
		<path class="st76" d="M356.56,127.71c-1.5-5.4,3.62-2.27,4.91-4.06c0.32,0.63,0.65,1.26,0.97,1.89c0,0,0,0.15,0,0.15
			C360.46,126.27,359.2,129.15,356.56,127.71z"/>
		<path class="st77" d="M280.82,216.27c0.65-0.34,1.31-0.68,1.96-1.03c1.37,1.57,0.96,3.51,0.97,5.33c0.05,7.27,0,14.53,0.03,21.8
			c0.01,1.82-0.35,3.75,0.97,5.34c-0.98,2.37-3.02,2.02-4.92,2.04c0-4.56,0.02-9.12-0.01-13.69c-0.01-1.17,0.17-3.18-0.31-3.38
			c-5.93-2.5-2.05-3.66,0.33-5.81c1.84-1.66,1.16-4.38-0.01-6.61C278.51,218.48,280.25,217.53,280.82,216.27z"/>
		<path class="st78" d="M231.63,215.17c2.25-1.58,3.87,0.21,5.61,1.18c5.68,3.17,11.45,6.2,16.94,9.69c2.34,1.49,4.62,1.17,7,1.35
			c0.56,1.94-1.55,1.1-1.97,2.02c-0.68,0.35-1.35,0.7-2.03,1.05C248.66,225.36,240.15,220.27,231.63,215.17z"/>
		<path class="st79" d="M259.21,229.41c0.66-0.67,1.31-1.35,1.97-2.02c7.13-2.61,13-7.6,19.64-11.12c-0.33,1.33-0.65,2.66-0.98,3.98
			c-2.25,0.23-3.81,1.85-5.44,3.15C269.89,226.99,264.83,228.92,259.21,229.41z"/>
		<path class="st80" d="M281.81,253.8c3.09,1.02,1.52,2.04,0,3.06c-1.71,0-3.41,0-5.35,0C277.52,253.51,279.75,253.83,281.81,253.8z
			"/>
		<path class="st81" d="M257.28,268.06c0-0.35,0-0.7,0-1.05c0.74,0.01,0.92-1.93,1.69-0.82c0.48,0.69,1.48,2.21,0.13,3.1
			C258.21,269.86,258.05,268.25,257.28,268.06z"/>
		<path class="st82" d="M284.76,247.7c-2.71-0.47-1.93-2.7-1.94-4.37c-0.06-9.36-0.03-18.73-0.03-28.09
			c0.66-0.35,1.31-0.7,1.97-1.05c0.34,0.22,0.46,0.43,0.35,0.65c-0.11,0.22-0.23,0.33-0.34,0.33
			C284.76,226.01,284.76,236.86,284.76,247.7z"/>
		<path class="st83" d="M284.76,215.17c0-0.33-0.01-0.65-0.01-0.98c1.9-1.18,3.49-2.98,5.9-3.1
			C290.41,215.1,287.61,215.16,284.76,215.17z"/>
		<path class="st84" d="M269.02,197.88c-0.33,1.02-0.65,2.03-0.98,3.05c-1.96,1.34-2.45,0.16-3.42-1.56c-1.8-3.16-4.3-5.24-7.75-1.7
			c-1.41,1.44-3.84,2.1-4.71,0.61c-1.22-2.08,1.28-2.75,2.79-3.57c1.75-0.95,2.61-3.59,5.21-2.93c2.3,1.35,4.6,2.71,6.9,4.06
			C267.42,196.82,268.08,197.49,269.02,197.88z"/>
		<path class="st85" d="M279.84,205c-1.27,2.52-3.58,2.69-5.41,1.52c-2-1.28-1.47-3.61-0.49-5.6
			C275.91,202.28,277.87,203.64,279.84,205z"/>
		<path class="st86" d="M232.55,74.74c4.46,2.49,7.55-0.76,10.4-3.2c2.09-1.8,3.13-0.3,4.7,0.2c2,0.64,1.66,2.22,1.68,3.7
			c0.02,1.69-1.03,2.96-2.39,2.27c-3.97-2.03-7.16,0.38-10.62,1.41c-1.67,0.5-3.72,2.28-4.95,1.06c-1.74-1.74,0.94-3.52,1.21-5.41
			C232.57,74.75,232.55,74.74,232.55,74.74z"/>
		<path class="st87" d="M253.26,104.29c-6.32,4.17-12.85,7.96-19.64,11.26c2.96-5.6,8.44-7.73,13.58-10.16
			C248.95,104.56,250.82,101.96,253.26,104.29z"/>
		<path class="st88" d="M329.02,109.41c-0.03-0.97-1.93-3.27,0.8-2.45c4.83,1.45,8.94,4.65,13.16,7.46
			c0.82,0.55,1.19,1.91,0.12,2.54c-1.14,0.66-1.37-1.16-2.27-1.44C336.36,114.56,331.36,114.74,329.02,109.41z"/>
		<path class="st89" d="M184.43,109.41c3.34,0.75,3.16,2.29,0.66,3.93c-1.16,0.76-2.7,0.9-3.61,2.17c-0.65,1.19-2.25,0.92-2.95,2.04
			c-1.73-0.44-4.28,1.23-4.91-2.03C176.46,112.05,180.37,110.58,184.43,109.41z"/>
		<path class="st90" d="M184.43,109.41c-3,3.19-7.16,4.17-10.82,6.11c-0.61,0.44-1.68,1.35-1.77,1.27
			c-1.67-1.76,0.59-2.83,0.79-4.31c0.81-0.02,1.54-0.2,1.97-1.02c2.12-0.7,3.8-2.3,5.9-3.05c1.18-0.32,2.35-0.71,3.55-0.93
			c0.48-0.09,1.39-0.46,1.41,0.49C185.46,108.42,184.79,108.92,184.43,109.41z"/>
		<path class="st91" d="M329.02,109.41c3.23,3.48,8.01,3.77,11.8,6.11c-3.87,4.02-6.6-0.69-9.77-1.54
			C329.4,113.54,326.67,112.34,329.02,109.41z"/>
		<path class="st92" d="M153.61,132.31c3.01-0.5,6.01-1.04,9.02-1.47c0.99-0.14,2.16,0.06,2.33,1.27c0.19,1.33-1.01,1.64-1.96,1.62
			C159.88,133.68,156.67,134.28,153.61,132.31z"/>
		<path class="st93" d="M356.56,127.71c2.18,0,3.51-2.66,5.89-2.02c-1.54,2.77-3.86,4.09-6.94,4.02
			C355.6,128.9,355.77,128.13,356.56,127.71z"/>
		<path class="st94" d="M178.52,117.54c0.09-2.06,1.52-2.05,2.95-2.04c0.5,0.3,1.31,0.5,1.42,0.91c0.18,0.68-0.48,1.04-1.15,1.07
			C180.67,117.52,179.6,117.53,178.52,117.54z"/>
		<path class="st14" d="M220.92,334.14c-0.03-25.06,0.01-50.11-0.13-75.17c-0.03-4.7,0.97-5.04,4.9-2.81
			c10.13,5.76,20.64,10.8,30.55,17c0,11.8,0.02,23.59-0.04,35.39c-0.01,1.77,0.64,3.75-0.93,5.26c-0.74-0.07-1.42-0.09-0.99,1.03
			c-0.65,0.49-1.39,0.89-1.93,1.49c-3.3,3.69-6.48,4.09-9.84,0.01c-0.84-1.02-2.5-2.58-3.45-0.46c-0.6,1.35,0.72,2.79,2.5,3.01
			c1.18,0.15,2.39,0.46,2.48,1.94c0.09,1.52-1.27,1.63-2.26,2.21c-5.33,3.11-11.36,5-15.73,9.83
			C224.79,334.25,222.76,334.28,220.92,334.14z"/>
		<path class="st95" d="M254.28,314.84c-0.94-0.1-1.93-0.17-2.31-1.26c-0.25-0.73,0.23-1.26,0.86-1.44
			c1.38-0.39,1.91,0.66,2.45,1.67C254.94,314.15,254.61,314.49,254.28,314.84z"/>
		<path class="st45" d="M331.98,166.35c1.24,0.8,2.41,1.76,3.73,2.36c3.89,1.78,5.97,0.48,6.08-3.82c0.1-3.54,0.02-7.08,0.02-10.62
			c0-1.36-0.06-2.66-1.18-3.69c-0.81-0.75-3.01-0.91-1.69-2.79c0.83-1.19,2.41-0.89,3.67-0.58c1.76,0.43,2.38,1.76,1.81,3.47
			c-1.22,3.63-0.96,7.45-0.48,11.01c0.5,3.69,0.87,7.19-0.16,10.77v0c-3.98,1.21-7.12,5.03-11.8,4.07
			C331.98,173.13,331.98,169.74,331.98,166.35z"/>
		<path class="st69" d="M331.98,176.52c4.15-0.69,7.03-5.3,11.8-4.07c-0.08,1.61,0.44,3.64-1.56,4.26c-3.62,1.13-5.92,4.36-9.25,5.9
			C331.17,180.84,332.29,178.56,331.98,176.52z"/>
		<path class="st96" d="M209.02,320.92c-2.81-1.34-5.69-2.35-8.85-2.04c-0.4-3.92,1.49-4.86,4.68-3.61c3.26,1.28,7.54,1.24,8.5,6.09
			C211.62,322.47,210.44,320.68,209.02,320.92z"/>
		<path class="st39" d="M279.65,210.72c-0.06,1.15-0.72,2.12-1.7,2.15c-3.58,0.1-6.29-1.96-8.87-4.24
			c-1.98-1.74-2.64-3.77-1.28-6.21c0.27-0.49-0.37-1.47,0.72-1.48c0.82-0.01,1.96,0.02,2.1,0.87c0.81,4.66,2.8,7.75,7.97,7.49
			C279.38,209.27,279.61,209.97,279.65,210.72z"/>
		<path class="st97" d="M230.56,214.37c-2.52-1.04-5.17-1.84-6.94-4.21C226.71,210.19,229.99,209.88,230.56,214.37z"/>
		<path class="st98" d="M115.58,149.07c0.81,0.02,1.54,0.21,1.96,1.03c0,10.51,0,21.01,0,31.51c-2.71-0.48-1.93-2.71-1.94-4.39
			C115.54,167.84,115.58,158.45,115.58,149.07z"/>
		<path class="st99" d="M115.58,185.67c-0.41-1.91,0.91-2.91,1.96-4.06c1.97-3.1,0.81-6.55,0.92-9.83
			c0.21-5.86,0.06-11.73,1.04-17.6c0,8.74,0.02,17.48-0.01,26.22c-0.01,2.26-0.05,4.4,2.39,5.57c1.08,0.52,1.97,1.67,1.18,2.87
			c-0.94,1.44-2.06,0.06-2.97-0.38C118.5,187.7,117.66,185.61,115.58,185.67z"/>
		<path class="st40" d="M180.49,108.39c-1.7,1.56-3.32,3.3-5.9,3.05c0-0.34,0-0.68,0-1.01C176.77,110.4,178.11,107.77,180.49,108.39
			z"/>
		<path class="st100" d="M236.36,316.34c-0.14,0.98-0.73,1.43-1.65,1.42c-1.06,0-1.98-0.3-1.81-1.67c0.13-1.04,0.97-1.19,1.81-1.18
			C235.63,314.92,236.23,315.36,236.36,316.34z"/>
		<path class="st101" d="M236.39,320.47c-0.05,0.83-0.6,1.25-1.24,0.97c-0.48-0.21-1-0.86-1.09-1.38c-0.14-0.86,0.62-1.01,1.28-0.96
			C236.11,319.16,236.33,319.77,236.39,320.47z"/>
	</g>
</g>
</svg>
