<?xml version="1.0" encoding="utf-8"?>
<!-- Generator: Adobe Illustrator 26.0.1, SVG Export Plug-In . SVG Version: 6.00 Build 0)  -->
<svg version="1.1" id="Layer_1" xmlns="http://www.w3.org/2000/svg" xmlns:xlink="http://www.w3.org/1999/xlink" x="0px" y="0px"
	 viewBox="0 0 595.28 841.89" style="enable-background:new 0 0 595.28 841.89;" xml:space="preserve">
<style type="text/css">
	.st0{fill:#4E4E4E;}
	.st1{fill:#111111;}
	.st2{fill:#A3A7A7;}
	.st3{fill:#C7DFDF;}
	.st4{fill:#CBCBCB;}
	.st5{fill:#CACBCB;}
	.st6{fill:#CECECE;}
	.st7{fill:#CDCDCD;}
	.st8{fill:#C9CACA;}
	.st9{fill:#CACACA;}
	.st10{fill:#C9C9C9;}
	.st11{fill:#C8C9C9;}
	.st12{fill:#CCCCCC;}
	.st13{fill:#C6C6C6;}
	.st14{fill:#C1C0C0;}
	.st15{fill:#787878;}
	.st16{fill:#969696;}
	.st17{fill:#D8D8D8;}
	.st18{fill:#595959;}
	.st19{fill:#A5A5A5;}
	.st20{fill:#F0F0F0;}
	.st21{fill:#C7C7C7;}
	.st22{fill:#9B9B9B;}
	.st23{fill:#969595;}
	.st24{fill:#CECFCF;}
	.st25{fill:#777777;}
	.st26{fill:#9A9B9B;}
	.st27{fill:#D5D5D5;}
	.st28{fill:#DBDCDC;}
	.st29{fill:#A4A4A4;}
	.st30{fill:#767676;}
	.st31{fill:#757676;}
	.st32{fill:#767777;}
	.st33{fill:#DBDBDB;}
	.st34{fill:#D1D2D2;}
	.st35{fill:#969797;}
	.st36{fill:#C5C7C7;}
	.st37{fill:#C5C6C6;}
	.st38{fill:#524F4F;}
	.st39{fill:#B6B5B5;}
	.st40{fill:#BFBEBE;}
	.st41{fill:#BEBEBE;}
	.st42{fill:#A3A3A3;}
	.st43{fill:#BCBCBC;}
	.st44{fill:#AEB3B3;}
	.st45{fill:#444747;}
	.st46{fill:#808585;}
	.st47{fill:#BEBFBF;}
	.st48{fill:#929292;}
	.st49{fill:#242323;}
	.st50{fill:#272727;}
	.st51{fill:#8E9090;}
	.st52{fill:#BFC2C2;}
	.st53{fill:#838B8B;}
	.st54{fill:#A3A1A1;}
	.st55{fill:#2A2A2A;}
	.st56{fill:#ACAFAF;}
	.st57{fill:#999F9F;}
	.st58{fill:#333232;}
	.st59{fill:#272626;}
	.st60{fill:#A5A4A4;}
	.st61{fill:#252424;}
	.st62{fill:#A9B0B0;}
	.st63{fill:#959090;}
	.st64{fill:#818787;}
	.st65{fill:#89AFAF;}
	.st66{fill:#657878;}
	.st67{fill:#B2B7B7;}
	.st68{fill:#A5ABAB;}
	.st69{fill:#403C3C;}
	.st70{fill:#D0D0D0;}
	.st71{fill:#131313;}
	.st72{fill:#B3B3B3;}
	.st73{fill:#3F3F3F;}
	.st74{fill:#646666;}
	.st75{fill:#333131;}
	.st76{fill:#4B4A4A;}
	.st77{fill:#454D4D;}
	.st78{fill:#D7D7D7;}
	.st79{fill:#D8D7D7;}
	.st80{fill:#A2A2A2;}
	.st81{fill:#FEFEFE;}
	.st82{fill:#FDFDFD;}
	.st83{fill:#FBFBFB;}
</style>
<g>
	<path class="st0" d="M227.71,525.41c-0.04-0.46,0-0.95-0.51-1.24c-0.48-0.27-0.93-0.6-1.4-0.9
		c-30.52-19.77-53.15-49.77-63.68-84.14c-2.06-6.73-3.68-13.57-4.79-20.53c-0.62-3.91-1.09-7.82-1.45-11.76
		c-0.5-5.37-0.53-10.74-0.5-16.12c0.03-4.27,0.26-8.54,0.71-12.79c0.43-4.01,0.99-8,1.71-11.97c1.12-6.23,2.62-12.37,4.52-18.4
		c6.18-19.63,15.87-37.34,29.12-53.09c15.27-18.15,33.75-32.07,55.39-41.79c10.06-4.52,20.5-7.86,31.29-10.11
		c4.33-0.9,8.7-1.57,13.1-2.12c5.98-0.75,11.98-1.05,17.99-1.09c4.58-0.03,9.17,0.15,13.74,0.57c3.39,0.31,6.77,0.68,10.12,1.19
		c5.63,0.86,11.19,2.03,16.69,3.51c19.87,5.36,37.99,14.28,54.21,26.95c26.77,20.91,44.87,47.74,54.26,80.4
		c1.66,5.78,2.9,11.66,3.83,17.59c0.51,3.28,0.91,6.57,1.19,9.89c0.47,5.52,0.83,11.05,0.66,16.58c-0.12,4.03-0.3,8.06-0.68,12.08
		c-0.39,4.18-0.92,8.33-1.65,12.46c-1.51,8.58-3.7,16.99-6.68,25.17c-9.11,25.12-23.73,46.5-43.8,64.14
		c-5.65,4.97-11.67,9.46-17.98,13.56c-0.73,0.47-1.43,0.98-2.15,1.47c-2.09-1.61-3.06-3.77-2.77-6.37c0.29-2.59,0.67-5.17,1.01-7.76
		c0.85-6.51-2.51-10.45-9.03-10.33c-2.75,0.05-4.59-0.85-6.12-3.15c-2.93-4.43-6.53-8.33-10-12.33c-2.53-2.92-2.31-4.18,1.23-5.48
		c7.15-2.64,13.13-6.88,17.84-12.88c0.44-0.55,0.87-1.32,1.65-1.18c1,0.18,0.87,1.21,0.99,1.94c0.25,1.48,0.47,2.97,0.76,4.44
		c0.12,0.62,0.29,1.31,1.04,1.43c0.62,0.1,1.01-0.39,1.36-0.81c1.2-1.48,2.17-3.11,3.13-4.75c0.51-0.88,0.91-1.88,2.03-2.2
		c4.09-0.6,8.25,0.23,12.7-0.56c-0.97-1.21-2.02-0.91-2.93-0.98c-2.8-0.2-5.64,0.41-8.4-0.42c-0.91-0.85-0.4-1.79-0.03-2.6
		c1.7-3.74,3.1-7.59,4.33-11.5c0.27-0.85,0.68-1.6,1.58-1.94c1.23-0.39,2.51-0.29,3.77-0.29c8.85-0.01,17.7,0,26.55-0.02
		c1.04,0,2.16,0.2,3.31-0.58c-1.16-0.86-2.29-0.63-3.34-0.63c-9.32-0.01-18.64-0.04-27.97,0.01c-0.71,0-1.42,0.08-2.11-0.18
		c-0.89-0.81-0.42-1.75-0.21-2.63c1.05-4.44,1.93-8.9,2.2-13.47c0.05-0.85-0.12-1.98,1.23-2.14c0.89,1.26,2.09,1.7,3.64,1.66
		c3.14-0.09,6.29,0,9.44-0.04c0.82-0.01,1.74,0.21,2.49-0.66c-0.75-0.83-1.73-0.62-2.61-0.63c-3.3-0.04-6.61,0-9.91-0.02
		c-1.18-0.01-2.38,0.06-3.34-0.84c-0.42-0.63-0.51-1.34-0.41-2.05c0.49-3.38,0.23-6.77,0.32-10.16c0.03-1.02-0.01-2.06,0.62-2.96
		c1.07-0.9,2.38-0.74,3.63-0.74c7.59-0.03,15.18,0,22.77-0.02c1.08,0,2.19,0.1,3.53-0.52c-1.02-0.91-2.05-0.69-2.96-0.69
		c-7.67-0.03-15.34,0-23-0.02c-1.25,0-2.54,0.15-3.7-0.54c-0.95-0.91-0.86-2.15-0.95-3.28c-0.33-3.88-0.97-7.73-1-11.62
		c0.02-0.07,0.03-0.16,0.08-0.21c1.81-1.91,1.81-1.91-0.47-3.33c-1.45-4.57-2.03-9.33-3.18-13.96c-0.13-0.52-0.06-1.11,0.52-1.45
		c1.19-0.57,2.47-0.43,3.73-0.44c9.15-0.01,18.31,0,27.46-0.02c1.11,0,2.3,0.2,3.27-0.84c-11.63-0.52-23.25-0.28-34.86-0.41
		c-0.99-0.04-1.3-0.76-1.48-1.56c-0.92-4.08-2.35-8-3.63-11.97c-0.26-0.82-0.58-1.65-0.1-2.51c1.9-1.15,4-0.41,6-0.64
		c0.82-0.09,2.18,0.24,2.25-0.71c0.09-1.2-1.31-1.15-2.2-1.13c-2.25,0.06-4.59-0.56-6.71,0.72c-1.01,0.19-1.16-0.63-1.38-1.26
		c-1.56-4.47-3.76-8.65-5.87-12.87c-0.37-0.75-1.29-1.59-0.14-2.48c1.37-0.55,2.81-0.35,4.22-0.36c4.58-0.03,9.16,0.02,13.74-0.04
		c0.73-0.01,1.91,0.22,2-0.73c0.1-1.07-1.11-0.95-1.82-0.95c-6.47,0-12.95-0.31-19.41,0.17c-1.15,0.39-1.52-0.5-1.97-1.21
		c-2.82-4.45-5.83-8.75-9.54-12.54c-0.64-0.65-2.01-1.59-0.14-2.54c1.32-0.36,2.68-0.26,4.02-0.26c17.8-0.01,35.6,0,53.4-0.01
		c1.28,0,2.62,0.18,3.99-0.67c-1.4-1.33-2.88-0.98-4.23-0.98c-18.43-0.03-36.86-0.02-55.29-0.02c-1.66,0-3.32-0.02-4.97-0.07
		c-1.06,0.15-1.79-0.46-2.51-1.09c-12.46-10.98-27.16-16.8-43.49-18.85c-13.44-1.69-26.8-1.23-40.04,1.74
		c-12.5,2.8-23.68,8.27-33.41,16.64c-0.83,0.71-1.6,1.57-2.82,1.61c-5.84-0.07-11.67-0.01-17.5-0.03c-0.32,0-0.64-0.03-0.95,0.02
		c-0.89,0.13-2.38-0.19-2.4,0.87c-0.03,1.21,1.46,0.84,2.3,0.85c4.02,0.08,8.04,0.02,12.07,0.04c1.1,0,2.21-0.09,3.28,0.27
		c1.32,0.64,0.61,1.46,0.07,2.07c-3.72,4.1-6.99,8.53-9.96,13.18c-0.43,0.67-0.92,1.33-1.91,0.97c-6.7-0.49-13.41-0.15-20.11-0.2
		c-0.47,0-0.95,0.05-1.39,0.26c-0.29,0.14-0.56,0.32-0.54,0.68c0.01,0.39,0.34,0.52,0.64,0.6c0.77,0.21,1.56,0.19,2.35,0.19
		c4.81,0.01,9.63-0.01,14.44,0.01c1.1,0,2.22-0.1,3.27,0.33c1.08,0.66,0.57,1.54,0.22,2.28c-1.9,4.08-4.13,8.01-5.78,12.21
		c-0.29,0.75-0.78,1.38-1.71,1.46c-13.59,0.05-27.18-0.06-40.79,0.4c0.74,1.68,2.02,1.28,3.08,1.29c11.05,0.04,22.1,0.02,33.15,0.03
		c1.26,0,2.53-0.13,3.74,0.35c0.95,0.52,0.66,1.33,0.42,2.07c-1.49,4.55-3.12,9.06-4.21,13.74c-0.11,0.47-0.39,0.85-0.93,0.95
		c-3-0.61-5.99-0.45-9.33-0.22c0.88,1.44,1.96,1.12,2.88,1.22c1.99,0.21,4.07-0.46,5.98,0.6c0.55,0.81,0.29,1.66,0.09,2.49
		c-0.96,3.87-1.66,7.79-2.42,11.7c-0.16,0.83-0.19,1.77-1.34,1.92c-10.28,0.09-20.56-0.07-30.86,0.39c0.85,1.07,1.97,0.85,2.99,0.85
		c7.97,0.03,15.95,0.01,23.92,0.02c1.25,0,2.54-0.15,3.7,0.54c0.85,0.81,0.77,1.84,0.64,2.85c-0.57,4.43-0.94,8.87-0.84,13.35
		c0.02,0.79-0.05,1.58-0.74,2.13c-2.7-2.44-3.66-2.68-6.79-1.62c0.68,1.13,1.77,0.8,2.69,0.88c1.37,0.12,2.87-0.3,3.96,0.98
		c0.13,0.2,0.3,0.41,0.31,0.64c0.11,5.2,0.75,10.38,0.85,15.58c-0.62,1.37-1.16,0.34-1.7-0.09c-0.46-0.37-0.94-0.52-1.5-0.32
		c-0.24,0.09-0.4,0.28-0.34,0.53c0.18,0.67,0.78,0.66,1.3,0.75c0.75,0.13,1.57,0.09,2.09,0.82c1.17,4.95,2.27,9.92,2.67,15.01
		c-1.33,1.2-2.97,0.53-4.47,0.78c-0.55,0.09-1.45-0.1-1.4,0.76c0.03,0.64,0.83,0.57,1.35,0.61c1.63,0.14,3.27-0.08,4.9,0.02
		c0.9,0.31,0.99,1.15,1.2,1.89c1.24,4.24,2.77,8.37,4.64,12.38c0.36,0.78,1.13,1.69-0.18,2.39c-11.93,0.12-23.86,0.01-35.78,0.06
		c-1.14,0-2.33-0.19-3.7,0.57c1.18,0.82,2.29,0.63,3.31,0.63c11.45,0.02,22.91,0.01,34.36,0.01c0.87,0,1.74-0.03,2.6,0.06
		c1.22-0.13,1.6,0.79,2.04,1.64c1,1.98,2.24,3.82,3.6,5.57c1.03,1.33,1.75,1.16,2.27-0.42c0.52-1.59,0.45-3.29,0.89-4.89
		c0.54-1.93,1.23-2.14,2.46-0.6c4.92,6.17,11.08,10.49,18.54,13.05c2.54,0.87,3.11,3.05,1.2,5.01c-4.32,4.43-8.11,9.28-11.74,14.26
		c-0.89,1.23-2.12,1.48-3.53,1.52c-8.8,0.27-11.32,3.27-10.15,12.06c0.22,1.64,0.29,3.32,0.65,4.93c0.66,3-0.91,5.34-2.12,7.79
		C228.25,525.45,227.95,525.45,227.71,525.41z"/>
	<path class="st1" d="M217.18,445.25c-0.59-1.93-0.98-3.92-1.35-5.9c-0.48-2.52-0.91-5.05-1.33-7.57c-0.1-0.61-0.11-1.24-0.17-1.86
		c-0.22-0.28-0.23-0.55,0.01-0.82c0.17-0.71,0.17-1.43-0.09-2.1c-0.33-0.84-0.33-1.69-0.35-2.56c-0.03-0.94-0.04-1.88-0.27-2.82
		c-0.16-0.68-0.14-1.41-0.15-2.11c-0.03-2.52-0.03-5.05-0.05-7.57l0,0c0.13-0.19,0.35-0.36,0.38-0.56c0.08-0.54,0.08-1.09,0.09-1.63
		c0.02-0.84-0.42-1.63-0.15-2.54c0.22-0.73,0.11-1.55,0.14-2.33c0.03-0.86,0.03-1.72,0.06-2.58c0.01-0.31,0.06-0.62,0.11-0.93
		c0.04-0.23,0.15-0.45,0.17-0.68c0.1-1.17,0.07-2.36,0.3-3.5c0.22-1.08,0.35-2.15,0.34-3.25c-0.42-0.93-0.28-1.73,0.52-2.38
		c0.08-0.13,0.24-0.26,0.24-0.38c-0.07-1.98,0.51-3.85,0.85-5.77c0.58-3.23,1.39-6.4,2.12-9.6c-0.47-0.8-0.14-1.37,0.55-1.83
		c0.14-0.27,0.41-0.55,0.4-0.81c-0.04-1.13,0.35-2.15,0.64-3.21c0.78-2.87,1.74-5.69,2.7-8.5c0.43-1.26,0.9-2.5,1.35-3.75
		c-0.41-1.17-0.07-2.05,1-2.67c0.33-0.79,0.66-1.58,0.98-2.38c1.69-4.21,3.84-8.2,5.91-12.23c0.11-0.21,0.2-0.42,0.3-0.63
		c-0.22-1.24,0.4-1.94,1.5-2.35c0.06-0.04,0.16-0.07,0.19-0.13c1.31-2.59,3.09-4.88,4.68-7.28c0.38-0.58,0.93-1.06,1.35-1.62
		c1.58-2.14,3.27-4.19,5.18-6.05c0.16-0.16,0.27-0.38,0.41-0.57c0.49-1.44,1.43-2.42,2.91-2.86c0.07-0.03,0.17-0.04,0.22-0.09
		c2.11-2.14,4.55-3.89,6.92-5.72c2.13-1.64,4.38-3.11,6.72-4.42c2.68-1.51,5.43-2.9,8.28-4.08c3.14-1.3,6.39-2.29,9.61-3.35
		c1.8-0.59,3.68-0.89,5.51-1.32c1.91-0.45,3.86-0.76,5.81-1.05c1.41-0.21,2.8-0.47,4.22-0.47c1.93-0.53,3.92-0.41,5.88-0.47
		c0.24-0.01,0.48,0.01,0.71-0.06c1.47-0.43,2.98-0.32,4.47-0.33c1.82-0.01,3.63-0.01,5.45,0c1.18,0.01,2.35,0.03,3.53,0.28
		c0.91,0.2,1.89,0.11,2.83,0.14c1.26,0.05,2.52-0.03,3.76,0.35c0.44,0.14,0.94,0.1,1.41,0.13c0.71,0.03,1.42,0.05,2.1,0.28
		c0.22,0.08,0.46,0.12,0.69,0.14c3.23,0.29,6.36,1.06,9.5,1.83c1.99,0.49,3.98,1.02,5.91,1.68c3.06,1.04,6.08,2.21,8.98,3.67
		c0.56,0.28,1.12,0.58,1.7,0.85c4.53,2.13,8.59,4.98,12.56,7.99c1.39,1.05,2.68,2.2,3.92,3.43c0.22,0.21,0.5,0.36,0.76,0.53
		c1.41,0.49,2.8,1,2.83,2.85c0.19,0.25,0.34,0.53,0.56,0.74c1.82,1.74,3.45,3.64,5.01,5.62c1.99,2.53,3.74,5.23,5.52,7.91
		c0.3,0.45,0.22,1.1,0.78,1.4c1.11,0.39,1.67,1.11,1.45,2.33c2,3.57,3.9,7.2,5.46,10.99c0.18,0.44,0.41,0.85,0.6,1.28
		c0.45,1.01,0.86,2.03,1.02,3.13c0.04,0.28,0.31,0.52,0.47,0.79c0.94,0.35,1.04,1.1,0.93,1.94c0.82,2.52,1.66,5.04,2.46,7.57
		c0.57,1.79,1.12,3.58,1.63,5.38c0.17,0.59,0.16,1.24,0.28,1.85c0.06,0.29,0.25,0.55,0.38,0.83c0.83,0.58,1.14,1.3,0.6,2.24
		c1.32,5.06,2.42,10.17,3.23,15.35c0.75,0.83,1.22,1.71,0.47,2.79c0.03,0.47-0.03,0.96,0.1,1.41c0.27,0.92,0.35,1.85,0.37,2.8
		c0.01,0.31-0.01,0.65,0.08,0.94c0.41,1.3,0.35,2.65,0.39,3.98c0.03,0.86,0.12,1.72,0.26,2.58c0.19,1.16,0.15,2.35,0.2,3.53
		c0.71,0.9,0.81,1.82,0.06,2.75c-0.03,2.99-0.04,5.98-0.08,8.97c-0.02,1.33,0.01,2.66-0.32,3.98c-0.19,0.75-0.09,1.56-0.12,2.35
		c0.14,0.17,0.11,0.31-0.09,0.42c-0.13,0.28-0.33,0.55-0.36,0.84c-0.06,0.62-0.05,1.25-0.05,1.88c0.01,1.1-0.01,2.18-0.3,3.26
		c-0.28,1.05-0.18,2.19-0.57,3.23c-0.33,2.96-1.02,5.84-1.96,8.67c-0.02,0.07,0.01,0.16,0.02,0.23c0.73,0.95,0.2,1.63-0.48,2.28
		c-0.15,0.36-0.34,0.72-0.43,1.09c-0.51,2.15-1.33,4.2-2.04,6.28c-0.92,2.69-2.2,5.21-3.27,7.83c0.47,1.4-0.4,2.16-1.36,2.87
		c-0.67,0.78-1.01,1.76-1.56,2.61c-0.82,1.25-1.58,2.55-2.42,3.79c-0.4,0.58-0.9,1.09-1.4,1.59c-0.63,0.63-1.87,0.39-2.17-0.42
		c-0.22-0.59-0.41-1.2-0.51-1.82c-0.31-1.94-0.58-3.88-0.87-5.82c-0.01-0.06-0.11-0.17-0.14-0.16c-0.14,0.04-0.32,0.07-0.39,0.17
		c-2.5,3.72-5.74,6.68-9.36,9.26c-3.05,2.17-6.42,3.7-9.89,5.01c-0.37,0.14-0.74,0.26-1.12,0.39c-0.37,0.13-0.81,0.19-0.95,0.61
		c-0.2,0.62-0.18,1.25,0.16,1.83c0.08,0.14,0.18,0.26,0.29,0.37c1.13,1.1,2.08,2.37,3.15,3.53c3.15,3.44,6.01,7.1,8.68,10.91
		c0.23,0.32,0.47,0.63,0.71,0.94c0.47,0.59,1.06,0.9,1.84,0.89c1.26-0.02,2.53-0.02,3.79,0.01c3.09,0.06,5.85,1.77,7.28,4.5
		c0.25,0.49,0.49,0.99,0.7,1.5c0.14,0.36,0.3,0.75,0.31,1.13c0.07,1.58,0.16,3.15-0.18,4.72c-0.13,0.61-0.2,1.24-0.24,1.87
		c-0.05,0.71-0.1,1.41-0.28,2.11c-0.14,0.53-0.13,1.09-0.21,1.64c-0.07,0.54-0.11,1.1-0.27,1.63c-0.24,0.82-0.08,1.55,0.29,2.28
		c0.65,1.26,1.27,2.54,1.9,3.82c1.53,3.64,3.1,7.26,4.48,10.96c3.09,8.3,5.48,16.81,7.3,25.47c0.44,2.1,0.63,4.21,0.61,6.36
		c-0.09,8.81-5.62,18.43-15.78,22.18c-0.59,0.22-1.2,0.4-1.8,0.59c-0.6,0.53-1.33,0.67-2.09,0.64c-0.15,0-0.3-0.01-0.45,0.01
		c-0.07,0.01,0.01,0.02,0.24,0.01c0.31-0.01,0.62-0.01,0.94-0.02c5.2,0.11,10.39-0.19,15.57,0.19c4.03,0.02,8.07,0.05,12.1,0.06
		c15.5,0.04,31.01,0.07,46.51,0.09c4.2,0,8.38,0.25,12.57,0.5c2.84,0.17,5.67,0.51,8.49,0.92c0.15,0.02,0.31,0.07,0.44,0.15
		c0.12,0.08,0.21,0.22,0.27,0.36c0.06,0.13-0.04,0.25-0.24,0.28c-1.01,0.17-2.02,0.38-3.04,0.49c-6.22,0.7-12.45,1.03-18.71,1.03
		c-12.97,0-25.95,0.04-38.92,0.07c-27.45,0.06-54.9,0.13-82.35,0.18c-10.52,0.02-21.04,0.03-31.56,0
		c-13.45-0.04-26.89-0.14-40.34-0.18c-18.27-0.06-36.55-0.08-54.82-0.14c-17.8-0.05-35.6-0.12-53.4-0.21
		c-3.4-0.02-6.8-0.11-10.2-0.29c-2.76-0.14-5.52-0.37-8.24-0.94c-0.1-0.02-0.24-0.21-0.23-0.31c0.01-0.13,0.15-0.26,0.24-0.37
		c0.05-0.05,0.13-0.09,0.2-0.1c1.65-0.2,3.29-0.41,4.95-0.59c6.55-0.68,13.12-0.49,19.68-0.53c18.51-0.09,37.02-0.17,55.53-0.26
		c4.67-0.02,9.33-0.03,14-0.06c0.47,0,0.94-0.06,1.41-0.1c0.26-0.29,0.61-0.22,0.93-0.23c0.38,0,0.76,0.01,1.14-0.01
		c0.15-0.01,0.24-0.11,0.26-0.24c-0.39,0.51-0.96,0.12-1.44,0.24c-0.33-0.01-0.68,0.05-0.94-0.22c-0.45-0.15-0.89-0.33-1.34-0.45
		c-7.86-2.14-14.3-8.44-16.66-16.69c-1.13-3.95-1.21-7.94-0.38-11.96c2.42-11.71,5.89-23.09,10.69-34.05
		c0.35-0.79,0.73-1.57,1.09-2.36c0.15-0.18,0.38-0.34,0.42-0.54c0.28-1.25,0.76-2.41,1.38-3.52c0.52-0.95,0.71-1.96,0.43-2.97
		c-0.3-1.08-0.28-2.19-0.41-3.28c-0.19-1.56-0.46-3.11-0.72-4.66c-0.51-2.99,0.24-5.64,2.18-7.93c0.82-0.97,1.93-1.63,3.11-2.11
		c1.02-0.41,2.09-0.69,3.22-0.66c1.34,0.04,2.69,0,4.03-0.01c0.41,0,0.77-0.14,1.03-0.48c0.44-0.56,0.93-1.09,1.31-1.68
		c1.44-2.27,3.18-4.32,4.84-6.41c1.61-2.04,3.26-4.06,5.17-5.85c0.4-0.38,0.75-0.82,1.17-1.18c0.83-0.7,0.95-1.6,0.82-2.58
		c-0.04-0.32-0.19-0.61-0.51-0.74c-0.51-0.21-1.03-0.4-1.54-0.6c-1.61-0.64-3.25-1.23-4.82-1.95c-2.38-1.08-4.52-2.57-6.63-4.1
		c-2.06-1.49-3.84-3.28-5.56-5.13c-0.8-0.87-1.47-1.85-2.2-2.78c-0.09-0.11-0.24-0.26-0.35-0.24c-0.29,0.03-0.24,0.31-0.28,0.52
		c-0.3,1.86-0.63,3.72-0.9,5.59c-0.09,0.64-0.26,1.23-0.6,1.77c-0.41,0.65-1.28,0.85-1.84,0.36c-0.41-0.36-0.83-0.74-1.14-1.19
		c-1.03-1.5-2.03-3.01-2.98-4.55c-0.45-0.73-0.88-1.5-1.09-2.36c-0.05-0.21-0.26-0.37-0.4-0.56c-0.89-0.35-1.32-0.93-0.95-1.91
		c0.02-0.33-0.08-0.62-0.29-0.87c-0.61-0.73-0.99-1.6-1.35-2.47c-1.28-3.12-2.52-6.25-3.52-9.47c-0.28-0.89-0.64-1.77-0.63-2.74
		c0-0.2-0.21-0.4-0.32-0.6C216.86,446.96,216.58,446.23,217.18,445.25z"/>
	<path class="st2" d="M399.99,591.33c-0.39,0.04-0.77,0.13-1.16,0.13c-4.61,0.01-9.21,0-13.82-0.01c-0.54,0-1.09-0.07-1.63-0.11
		c-0.18-0.09-0.23-0.17-0.17-0.25c0.06-0.08,0.12-0.11,0.18-0.11c0.5-0.13,1-0.28,1.51-0.39c0.28-0.06,0.58-0.05,0.87-0.07
		c0.21,0.25,0.46,0.44,0.79,0.45c0.63,0.03,1.26,0.04,1.89,0.04c3.31,0.01,6.62,0.01,9.93,0.01
		C398.96,591.01,399.52,590.95,399.99,591.33z"/>
	<path class="st3" d="M235.32,591.41c-0.33,0.1-0.65,0.13-0.97-0.02c-0.02-0.16-0.03-0.31-0.05-0.47c0.31,0.02,0.63,0.03,0.94,0.05
		c0.17,0.07,0.24,0.16,0.21,0.26C235.42,591.35,235.37,591.41,235.32,591.41z"/>
	<path class="st4" d="M372.94,321.75c-0.94-0.95-1.89-1.9-2.83-2.85c0.21-0.1,0.42-0.27,0.63-0.28c0.71-0.04,1.42-0.04,2.13-0.04
		c19.83,0,39.67,0,59.5,0c0.63,0,1.27-0.02,1.9,0.02c0.39,0.02,0.78,0.11,1.15,0.23c0.61,0.19,1.05,0.86,1,1.45
		c-0.05,0.58-0.61,1.27-1.14,1.38c-0.23,0.05-0.47,0.09-0.7,0.1c-0.71,0.01-1.42,0.01-2.13,0.01c-18.81,0-37.61,0-56.42,0
		C375,321.77,373.97,321.76,372.94,321.75z"/>
	<path class="st5" d="M225.25,355.05c-0.33,0.89-0.66,1.78-1,2.67c-0.79,0.05-1.57,0.13-2.36,0.13c-12.17,0.01-24.34,0.01-36.5,0
		c-0.55,0-1.11-0.01-1.66-0.05c-0.61-0.04-1.14-0.57-1.3-1.21c-0.17-0.72,0.26-1.5,0.95-1.68c0.38-0.1,0.77-0.18,1.16-0.21
		c0.55-0.04,1.11-0.03,1.66-0.03c12.17,0,24.34,0,36.5,0c0.47,0,0.95-0.04,1.42,0.03C224.51,354.76,224.88,354.93,225.25,355.05z"/>
	<path class="st6" d="M223.89,463.68c0.32,0.64,0.64,1.27,0.95,1.91c-0.16,0.15-0.31,0.42-0.49,0.44c-0.7,0.08-1.41,0.1-2.12,0.11
		c-5.38,0.01-10.76,0-16.14,0c-6.8,0-13.61,0-20.41,0c-0.71,0-1.42-0.02-2.13-0.09c-0.59-0.05-1.06-0.69-1.09-1.37
		c-0.03-0.67,0.43-1.33,1-1.44c0.23-0.04,0.47-0.09,0.7-0.1c0.63-0.02,1.27-0.02,1.9-0.02c11.55,0,23.1,0,34.65,0
		c0.63,0,1.27,0.02,1.9,0.01C223.12,463.14,223.51,463.39,223.89,463.68z"/>
	<path class="st7" d="M400.1,375.75c-0.2-0.75-0.4-1.5-0.6-2.24c0.13-0.31,0.35-0.54,0.68-0.58c0.47-0.05,0.95-0.06,1.42-0.06
		c10.67,0,21.34,0,32.01,0c0.55,0,1.1,0.04,1.65,0.1c0.61,0.07,1.15,0.71,1.16,1.31c0.01,0.57-0.51,1.34-1.01,1.48
		c-0.23,0.06-0.46,0.11-0.7,0.12c-0.55,0.02-1.11,0.02-1.66,0.02c-10.12,0-20.24,0-30.35-0.01
		C401.83,375.9,400.97,375.8,400.1,375.75z"/>
	<path class="st6" d="M400.97,447.99c0.16-0.76,0.32-1.52,0.48-2.28c0.35-0.33,0.71-0.62,1.23-0.61c0.55,0.01,1.11-0.01,1.66-0.01
		c9.55,0,19.11,0,28.66,0c0.71,0,1.42,0.01,2.13,0.06c0.61,0.05,0.98,0.45,1.19,1.01c0.2,0.5,0.05,0.95-0.26,1.32
		c-0.19,0.23-0.48,0.39-0.76,0.52c-0.21,0.09-0.46,0.09-0.7,0.1c-0.63,0.01-1.26,0.01-1.9,0.01c-9.63,0-19.27,0-28.9,0
		C402.86,448.09,401.91,448.02,400.97,447.99z"/>
	<path class="st5" d="M197.1,321.77c-3.87,0-7.74,0-11.6,0c-0.63,0-1.26-0.02-1.89-0.08c-0.57-0.05-1.09-0.65-1.19-1.31
		c-0.1-0.62,0.28-1.32,0.85-1.53c0.29-0.11,0.6-0.22,0.91-0.24c0.55-0.04,1.1-0.03,1.66-0.03c7.5,0,15,0,22.5,0
		c0.55,0,1.11-0.01,1.66,0.03c0.31,0.02,0.62,0.11,0.92,0.21c0.61,0.19,1.06,0.83,1.03,1.43c-0.04,0.68-0.67,1.4-1.34,1.46
		c-0.63,0.06-1.26,0.07-1.89,0.07C204.84,321.77,200.97,321.77,197.1,321.77z"/>
	<path class="st7" d="M215.4,391.57c-0.17,0.79-0.35,1.59-0.52,2.38c-9.65,0-19.29,0-28.94,0c-0.79,0-1.58-0.01-2.37-0.09
		c-0.5-0.05-0.84-0.41-1.01-0.89c-0.2-0.56-0.14-1.1,0.26-1.55c0.15-0.17,0.38-0.28,0.6-0.36c0.22-0.08,0.46-0.11,0.7-0.12
		c0.47-0.02,0.95-0.02,1.42-0.02c9.17,0,18.35,0,27.52,0c0.55,0,1.11,0.01,1.66,0.07C215.05,391.02,215.26,391.27,215.4,391.57z"/>
	<path class="st7" d="M405.27,411.87c-0.02-0.92-0.04-1.84-0.06-2.75c0.79-0.05,1.57-0.14,2.36-0.14c8.53-0.01,17.06-0.01,25.59,0
		c0.71,0,1.42,0.04,2.12,0.11c0.57,0.06,1.08,0.72,1.11,1.36c0.03,0.55-0.53,1.32-1.05,1.44c-0.23,0.05-0.47,0.1-0.7,0.11
		c-0.55,0.02-1.11,0.02-1.66,0.02c-8.37,0-16.75,0-25.12,0C407.01,411.99,406.14,411.92,405.27,411.87z"/>
	<path class="st8" d="M233.92,337.46c-0.5,0.78-1,1.57-1.5,2.35c-6.56,0-13.12,0.01-19.68,0.01c-0.47,0-0.95-0.01-1.42-0.04
		c-0.51-0.03-0.89-0.29-1.19-0.68c-0.54-0.71-0.24-1.86,0.59-2.18c0.29-0.11,0.6-0.22,0.91-0.25c0.47-0.05,0.95-0.04,1.42-0.04
		c6.24,0,12.49,0,18.73,0c0.47,0,0.95,0,1.42,0.03C233.67,336.7,233.85,337.04,233.92,337.46z"/>
	<path class="st9" d="M386.26,339.75c-0.48-0.78-0.97-1.55-1.45-2.33c0.08-0.41,0.25-0.75,0.74-0.77c0.39-0.01,0.79-0.02,1.19-0.02
		c6.09,0,12.18,0,18.27,0c0.63,0,1.27,0.02,1.89,0.12c0.91,0.14,1.44,1.07,1.19,1.98c-0.14,0.49-0.47,0.83-0.95,0.96
		c-0.3,0.09-0.62,0.12-0.94,0.12c-6.48-0.01-12.97-0.02-19.45-0.03C386.58,339.77,386.42,339.76,386.26,339.75z"/>
	<path class="st9" d="M248.64,318.94c-0.97,0.95-1.94,1.91-2.91,2.86c-5.44-0.01-10.88-0.02-16.32-0.03c-0.71,0-1.42,0-2.13-0.05
		c-0.49-0.03-0.87-0.33-1.16-0.73c-0.49-0.67-0.28-1.67,0.45-2.03c0.28-0.14,0.58-0.27,0.88-0.31c0.47-0.07,0.94-0.07,1.41-0.07
		c5.99,0,11.99,0,17.98,0c0.39,0,0.79,0,1.18,0.06C248.25,318.67,248.44,318.83,248.64,318.94z"/>
	<path class="st9" d="M425.38,357.86c-2.76,0-5.53,0.01-8.29-0.01c-0.47,0-0.94-0.05-1.41-0.13c-0.47-0.08-0.92-0.67-0.98-1.22
		c-0.07-0.58,0.2-1.2,0.65-1.42c0.28-0.14,0.58-0.28,0.88-0.32c0.63-0.07,1.26-0.09,1.89-0.09c4.98-0.01,9.95,0,14.93,0
		c0.47,0,0.95-0.01,1.42,0.03c0.31,0.02,0.62,0.11,0.92,0.2c0.6,0.18,1.07,0.84,1.04,1.43c-0.04,0.68-0.68,1.4-1.34,1.46
		c-0.55,0.05-1.1,0.06-1.65,0.06C430.75,357.87,428.07,357.86,425.38,357.86z"/>
	<path class="st7" d="M425.38,390.92c2.76,0,5.53-0.01,8.29,0.01c0.55,0,1.1,0.04,1.65,0.11c0.6,0.08,1.11,0.74,1.09,1.36
		c-0.01,0.58-0.54,1.32-1.07,1.43c-0.38,0.08-0.78,0.12-1.17,0.12c-1.34,0.02-2.69,0.01-4.03,0.01c-4.34,0-8.69,0-13.03,0
		c-0.63,0-1.26-0.03-1.89-0.1c-0.56-0.06-1.04-0.75-1.05-1.4c-0.01-0.68,0.43-1.33,1.02-1.41c0.54-0.08,1.1-0.11,1.65-0.12
		C419.7,390.91,422.54,390.92,425.38,390.92z"/>
	<path class="st7" d="M193.32,430.05c-2.68,0-5.35,0-8.03,0c-0.55,0-1.1-0.01-1.65-0.08c-0.5-0.06-0.87-0.36-1.06-0.83
		c-0.22-0.55-0.17-1.1,0.21-1.55c0.19-0.22,0.51-0.4,0.79-0.46c0.46-0.09,0.94-0.1,1.41-0.1c5.59-0.01,11.18-0.01,16.77,0
		c0.47,0,0.94,0.04,1.41,0.1c0.42,0.06,0.69,0.34,0.89,0.7c0.44,0.76-0.01,1.92-0.84,2.09c-0.46,0.09-0.94,0.12-1.4,0.12
		C198.99,430.05,196.16,430.05,193.32,430.05C193.32,430.05,193.32,430.05,193.32,430.05z"/>
	<path class="st7" d="M425.62,466.14c-2.53,0-5.06,0-7.59,0c-0.55,0-1.11-0.02-1.65-0.08c-0.7-0.08-1.23-0.79-1.18-1.54
		c0.04-0.65,0.55-1.24,1.16-1.31c0.47-0.05,0.94-0.08,1.42-0.08c5.38-0.01,10.75,0,16.13,0c0.39,0,0.79,0.01,1.18,0.05
		c0.61,0.06,0.99,0.43,1.22,0.99c0.24,0.59,0.03,1.09-0.38,1.51c-0.16,0.16-0.38,0.32-0.59,0.35c-0.54,0.08-1.1,0.11-1.65,0.11
		C431,466.15,428.31,466.14,425.62,466.14z"/>
	<path class="st8" d="M428.23,339.82c-1.81,0-3.62,0.01-5.44,0c-0.47,0-0.94-0.03-1.41-0.08c-0.56-0.06-1.07-0.65-1.19-1.32
		c-0.1-0.59,0.3-1.33,0.87-1.52c0.37-0.12,0.76-0.22,1.14-0.25c0.55-0.04,1.1-0.02,1.65-0.02c2.92,0,5.83,0,8.75,0
		c0.55,0,1.1-0.01,1.65,0.02c0.31,0.01,0.63,0.07,0.93,0.14c0.74,0.17,1.28,0.85,1.23,1.52c-0.04,0.67-0.68,1.38-1.35,1.45
		c-0.47,0.05-0.94,0.06-1.41,0.06C431.86,339.82,430.04,339.82,428.23,339.82z"/>
	<path class="st7" d="M404.67,427.59c0.04-0.14,0.07-0.28,0.09-0.42c0.55-0.05,1.1-0.14,1.64-0.14c4.25-0.01,8.51-0.01,12.76,0
		c0.47,0,0.94,0.03,1.41,0.09c0.6,0.07,1.13,0.69,1.16,1.31c0.03,0.7-0.56,1.46-1.21,1.54c-0.39,0.05-0.78,0.08-1.18,0.08
		c-4.41,0-8.82,0-13.24,0c-0.31,0-0.63-0.04-0.94-0.07c-0.15-0.01-0.42-0.34-0.42-0.51C404.72,428.84,404.69,428.22,404.67,427.59z"
		/>
	<path class="st7" d="M190.77,375.91c-1.9,0-3.8,0-5.7,0c-0.47,0-0.95-0.02-1.42-0.07c-0.7-0.08-1.21-0.76-1.19-1.53
		c0.01-0.68,0.48-1.26,1.11-1.34c0.47-0.06,0.94-0.09,1.42-0.09c3.88-0.01,7.75-0.01,11.63,0c0.47,0,0.95,0.04,1.41,0.11
		c0.61,0.09,1.11,0.72,1.11,1.35c0,0.71-0.59,1.44-1.25,1.51c-0.47,0.05-0.95,0.07-1.42,0.07
		C194.57,375.91,192.67,375.91,190.77,375.91z"/>
	<path class="st10" d="M188.75,339.78c-1.65,0-3.3,0.02-4.95-0.01c-0.64-0.01-1.14-0.48-1.34-1.14c-0.21-0.69,0.16-1.51,0.83-1.74
		c0.37-0.13,0.76-0.25,1.14-0.25c2.91-0.02,5.82-0.02,8.73,0c0.46,0,0.93,0.14,1.37,0.28c0.57,0.19,0.93,0.88,0.85,1.53
		c-0.08,0.62-0.61,1.2-1.2,1.28c-0.39,0.05-0.78,0.07-1.17,0.08c-1.42,0.01-2.83,0-4.25,0C188.75,339.8,188.75,339.79,188.75,339.78
		z"/>
	<path class="st7" d="M189.56,448.1c-1.5,0-3,0.01-4.49,0c-0.47,0-0.95-0.01-1.41-0.07c-0.5-0.06-0.87-0.36-1.07-0.83
		c-0.22-0.55-0.18-1.11,0.21-1.55c0.19-0.22,0.5-0.39,0.79-0.46c0.38-0.09,0.78-0.09,1.17-0.09c3.23-0.01,6.46-0.01,9.69,0
		c0.39,0,0.79,0.04,1.17,0.1c0.58,0.08,1.1,0.74,1.1,1.36c0,0.61-0.51,1.35-1.03,1.44c-0.39,0.07-0.78,0.11-1.17,0.11
		C192.87,448.1,191.21,448.09,189.56,448.1C189.56,448.1,189.56,448.1,189.56,448.1z"/>
	<path class="st7" d="M393.86,466.06c0.45-0.96,0.91-1.91,1.36-2.87c3.63-0.02,7.26-0.04,10.89-0.06c0.23,0,0.47,0.05,0.7,0.09
		c0.55,0.09,1.07,0.75,1.1,1.38c0.02,0.58-0.52,1.33-1.04,1.43c-0.23,0.04-0.47,0.1-0.7,0.1
		C402.07,466.11,397.96,466.09,393.86,466.06z"/>
	<path class="st7" d="M188.97,412c-1.34,0-2.69,0-4.03,0c-0.39,0-0.79-0.02-1.18-0.05c-0.92-0.09-1.49-0.99-1.22-1.91
		c0.14-0.5,0.48-0.82,0.97-0.94c0.3-0.08,0.62-0.11,0.94-0.11c3-0.01,6.01-0.01,9.01,0c0.24,0,0.47,0.03,0.71,0.05
		c0.94,0.11,1.49,0.98,1.22,1.91c-0.15,0.49-0.48,0.83-0.96,0.95c-0.38,0.09-0.78,0.1-1.18,0.1C191.81,412.01,190.39,412,188.97,412
		C188.97,412,188.97,412,188.97,412z"/>
	<path class="st11" d="M394.74,357.88c-0.31-0.65-0.62-1.3-0.93-1.94c0.01-0.24-0.02-0.48,0.04-0.71c0.05-0.22,0.16-0.44,0.45-0.47
		c0.23-0.03,0.47-0.07,0.7-0.07c2.21-0.01,4.42-0.02,6.62,0c0.54,0.01,1.1,0.1,1.63,0.22c0.71,0.17,1.12,0.89,1.01,1.65
		c-0.08,0.62-0.62,1.18-1.25,1.24c-0.55,0.05-1.1,0.06-1.65,0.07C399.16,357.88,396.95,357.88,394.74,357.88z"/>
	<path class="st12" d="M219.16,373.99c-0.18,0.61-0.36,1.22-0.55,1.83c-2.74,0.02-5.48,0.05-8.22,0.06c-0.69,0-1.17-0.39-1.46-1
		c-0.34-0.71,0.12-1.71,0.88-1.87c0.23-0.05,0.46-0.11,0.69-0.11c2.58-0.01,5.17,0,7.75,0c0.08,0,0.16,0.02,0.23,0.03
		c0.34,0.07,0.54,0.26,0.58,0.61C219.09,373.68,219.13,373.84,219.16,373.99z"/>
	<path class="st12" d="M432.31,430c-1.02,0-2.05,0.04-3.07-0.01c-0.93-0.05-1.49-0.95-1.24-1.89c0.13-0.49,0.46-0.81,0.95-0.96
		c0.22-0.07,0.47-0.1,0.7-0.1c1.66-0.01,3.31-0.01,4.97-0.01c0.23,0,0.47,0.05,0.7,0.09c0.56,0.09,1.07,0.74,1.1,1.38
		c0.03,0.57-0.52,1.34-1.04,1.44c-0.31,0.06-0.62,0.08-0.94,0.11c-0.16,0.01-0.32,0.01-0.47,0.01c-0.55,0-1.1,0-1.66,0
		C432.31,430.03,432.31,430.02,432.31,430z"/>
	<path class="st12" d="M213.43,411.95c-1.96,0.01-3.92,0.03-5.89,0.03c-0.59,0-1.06-0.24-1.38-0.75c-0.55-0.88-0.07-2.04,0.94-2.17
		c0.46-0.06,0.94-0.09,1.41-0.09c1.33-0.01,2.67,0,4,0.02c0.58,0.01,0.89,0.31,0.9,0.84C213.43,410.53,213.43,411.24,213.43,411.95
		C213.43,411.95,213.43,411.95,213.43,411.95z"/>
	<path class="st4" d="M217.18,445.25c0.2,0.76,0.4,1.52,0.61,2.27c-0.16,0.16-0.32,0.32-0.5,0.46c-0.05,0.05-0.15,0.07-0.22,0.07
		c-1.8,0.01-3.6,0.02-5.4,0c-0.61,0-1.02-0.36-1.29-0.88c-0.42-0.79,0.09-1.87,0.95-2.02c0.08-0.01,0.15-0.05,0.23-0.05
		C213.43,445.11,215.31,444.91,217.18,445.25z"/>
	<path class="st13" d="M214.34,429.1c0,0.27-0.01,0.55-0.01,0.82c-0.94,0.19-1.89,0.19-2.83,0.08c-0.6-0.07-0.98-0.47-1.2-1.02
		c-0.19-0.48-0.13-0.95,0.21-1.33c0.2-0.22,0.48-0.45,0.76-0.51c0.54-0.11,1.1-0.11,1.65-0.12c0.72-0.01,0.87,0.16,1.07,0.96
		C214.08,428.36,214.22,428.73,214.34,429.1z"/>
	<path class="st14" d="M403.8,393.89c-0.16-0.93-0.31-1.86-0.47-2.79c0.52-0.18,1.04-0.24,1.58-0.13c0.71,0.13,1.21,0.73,1.22,1.46
		c0.01,0.71-0.48,1.36-1.19,1.48C404.57,393.96,404.18,393.9,403.8,393.89z"/>
	<path class="st15" d="M381.89,394.79c0.09-0.38,0.14-0.78,0.27-1.15c0.22-0.6,0.32-1.22,0.3-1.86c-0.03-1.58-0.02-3.15-0.31-4.71
		c-0.29-1.55-0.38-3.13-0.59-4.69c-0.53-3.83-1.29-7.61-2.21-11.36c-1.36-5.52-3.16-10.89-5.42-16.12c-1.94-4.51-4.27-8.8-7.2-12.74
		c-1.26-1.7-2.49-3.46-4.18-4.79c-0.6-0.13-1.01-0.51-1.35-0.97c0.01,0.01-0.1-0.13-0.1-0.13s0.06,0.17,0.07,0.18
		c0.44,0.42,0.61,0.97,0.79,1.51c0.56,0.86,1.09,1.73,1.67,2.57c1.62,2.33,3.07,4.76,4.43,7.25c2,3.67,3.66,7.49,4.86,11.49
		c1.69,5.73,3.17,11.48,3.79,17.46c0.35,3.38,0.02,6.64-0.68,9.87c-0.91,4.21-2.86,7.74-7.44,8.98c-4.75,1.29-8.72-0.28-12.15-3.52
		c-4.26-4.02-6.61-9.18-8.38-14.26c-0.5,5.09,0.19,10.44,1.35,15.76c0.5,2.31-0.48,3.84-2.65,4.24c-3.95,0.72-7.85,1.64-11.94,1.62
		c-7.12-0.04-12.64-3.01-17-8.4c-2.25-2.78-3.99-5.88-4.99-9.35c-0.32-1.11-0.74-2.19-1.18-3.45c-1.19,4.59-0.66,8.95,0.06,13.31
		c0.53,3.23-0.24,4.37-3.49,4.82c-3.74,0.51-7.43,0.21-10.91-1.39c-1.47-0.68-2.58-0.54-3.83,0.62c-1.78,1.65-4.11,1.88-6.46,1.65
		c-1.41-0.14-2.79-0.54-4.21-0.65c-1-0.18-1.49-1.01-2.11-1.66c-8.63-12.6-13.37-26.45-13.41-41.81c-0.01-4.66-0.25-9.33,0.76-13.93
		c0.23-0.7,0.5-1.39,0.51-2.14c0.43-1.43,0.8-2.86,0.9-4.36c0.06-0.28,0.11-0.56,0.19-0.83c0.1-0.34,0.23-0.68,0.34-1.02
		c0.07-0.26,0.23-0.57,0.01-0.76c-0.15-0.13-0.38,0.12-0.57,0.22c-0.62,0.96-1.24,1.91-1.86,2.87c-3.2,5.64-4.9,11.78-5.85,18.14
		c-0.85,5.65-0.84,11.33-0.26,17.01c0.4,3.89-2.92,6.02-7.31,4.72c-0.53-0.12-0.94,0.12-1.32,0.46c-0.32,0.69-0.64,1.38-0.97,2.06
		c-0.13,0.27-0.28,0.53-0.42,0.8c-5.07,11.69-8.1,23.82-8.92,36.6c-0.92,14.22,0.22,28.24,2.73,42.2c0.03,0.16,0.07,0.31,0.08,0.47
		c0.04,0.83,0.57,1.92-0.33,2.4c-1.05,0.57-1.71-0.46-2.31-1.16c-4.51-5.19-7.76-11.14-10.46-17.41c-1.09-2.52-2.2-5.04-2.86-7.73
		c-0.18-0.27-0.6,0.14-0.31,0c0.09-0.04,0.12,0.01,0.18,0.07c0.43,0.37,0.32,0.85,0.27,1.31c-0.51,4.84-0.02,9.62,0.78,14.39
		c0.12,0.7,0.27,1.4,0.22,2.12c-0.09,1.31-0.8,1.65-1.93,1.09c-1.23-0.61-2.09-1.67-2.97-2.68c-2.87-3.29-5.26-6.89-7-10.91
		c-0.53-1.4-0.73-2.86-0.84-4.34c0.41-1.91-0.16-3.76-0.31-5.64c-0.45-4.36-0.17-8.73-0.24-13.09c0-1.39,0-2.79,0-4.18
		c1.72-23.82,7.71-46.42,19.67-67.23c3.47-6.04,7.62-11.64,12.66-16.53c1.36-1.32,2.83-2.02,4.75-2.32
		c5.24-0.82,9.32-3.4,11.13-8.68c0.52-1.53,1.66-2.22,2.94-2.89c9.23-4.84,19.13-7.56,29.43-8.61c11.27-1.16,22.57-1.14,33.8,0.79
		c8.23,1.41,16.16,3.79,23.51,7.85c2.31,1.46,4.77,2.68,6.88,4.44c0.8,0.39,1.4,1.04,2.11,1.55c1.12,0.46,1.65,1.74,2.88,2.03
		c0.92,0.37,1.47,1.18,2.12,1.85c0.88,0.9,1.71,1.86,2.58,2.78c3.54,3.74,6.62,7.84,9.38,12.19c3.56,5.62,6.51,11.56,9.03,17.71
		c0.71,1.75,1.23,3.58,1.84,5.37c2.51,8.16,4.43,16.45,5.22,24.96c1.83,19.71,1.11,39.16-6.15,57.91c-0.37,0.96-0.74,1.92-1.28,2.8
		c-0.33,0.54-0.74,1.28-1.37,1.16c-0.8-0.14-0.87-1.05-0.91-1.75c-0.13-2.05-0.19-4.1-0.4-6.14c-0.23-2.34-0.48-4.68-0.7-6.76
		c-2.49,5.71-5.18,11.56-9.34,16.59c-0.1,0.12-0.2,0.25-0.32,0.35c-0.81,0.69-1.55,2.02-2.71,1.42c-1.15-0.59-0.64-1.98-0.44-3.03
		c1.61-8.8,2.32-17.67,2.54-26.62c0.13-5.21,0.49-10.4-0.08-15.6c-0.24-2.22,0.39-4,2.5-5.17
		C380.61,399.14,381.04,396.81,381.89,394.79z"/>
	<path class="st16" d="M385.8,505.89c0.06,0.05,0.15,0.08,0.18,0.15c0.55,1.17,0.71,2.37,0.49,3.67c-0.31,1.87-0.5,3.76-0.74,5.64
		c-0.25,1.88-0.5,3.76-0.75,5.64c-0.2,1.49-0.39,2.98-0.58,4.47c-0.47,3.6-0.95,7.21-1.4,10.81c-0.38,3.06-0.72,6.12-1.12,9.18
		c-0.38,2.98-0.81,5.95-1.21,8.92c-0.19,1.41-0.36,2.82-0.55,4.23c-0.47,3.6-0.94,7.21-1.4,10.81c-0.39,3.06-0.74,6.12-1.12,9.18
		c-0.13,1.02-0.3,2.03-0.46,3.05c-0.05,0.32-0.34,0.59-0.64,0.58c-6.72-0.29-13.44-0.12-20.16-0.13
		c-36.14-0.02-72.28-0.01-108.43-0.01c-1.66,0-3.32-0.05-4.97,0.24c-0.3,0.05-0.63,0.04-0.94-0.01c-0.22-0.04-0.46-0.17-0.48-0.45
		c-0.03-0.31-0.01-0.62-0.02-0.93c1.59-0.16,1.23-1.29,1.11-2.26c-0.46-3.71-1.04-7.4-1.33-11.13c0.21-1.67,1.22-1.81,2.57-1.36
		c1.96,0.64,3.74,1.69,5.67,2.42c11.69,4.42,23.74,6.89,36.27,7.46c12.65,0.58,25.11-0.27,37.24-3.94
		c16.3-4.93,29.37-14.32,37.7-29.4c5.52-9.99,7.54-20.87,6.45-32.28c-0.15-1.52-0.66-3.16,0.82-4.41c1.9-0.7,3.89-0.42,5.83-0.39
		C377.82,505.69,381.82,505.3,385.8,505.89z"/>
	<path class="st17" d="M251.42,432.36c-0.46-1.05-0.9-2.1-1.01-3.26c-0.6-2.92-0.85-5.87-0.74-8.84c0.03-0.86,0.06-1.73,0.6-2.46
		c2.56-0.39,6.22,1.72,6.96,4.04c0.19,0.6,0.31,1.23,0.41,1.85c1.29,8.53,6.26,13.83,14.48,15.96c5.97,1.55,12,1.93,17.86-0.77
		c5.33-2.45,8.54-6.67,10.03-12.21c0.78-2.89,1.3-5.88,0.87-8.91c-0.25-1.74,0.47-2.73,2.06-3.19c3.95-1.14,7.92-1.5,11.89-0.16
		c2.72,0.92,3.21,1.61,3.25,4.49c0.06,3.82,0.59,7.56,1.91,11.16c2.48,6.74,7.12,10.97,14.36,11.81c7.01,0.81,13.74-0.15,19.68-4.33
		c4.26-3,6.39-7.33,7.17-12.37c0.65-4.25,2.87-6.42,7.22-6.84c0.27,0.1,0.48,0.28,0.62,0.54c0.99,3.66-0.24,7.16-0.79,10.71
		c-0.28,1.47-0.8,2.87-1.43,4.23c-5.14,13.59-15.85,21.21-28.62,26.53c-9.14,3.81-18.78,5.8-28.62,5.81
		c-11.16,0.01-21.94-2.43-32.12-7.2c-5.25-2.46-10.19-5.39-14.58-9.2C257.41,445.03,253.88,439.05,251.42,432.36z"/>
	<path class="st18" d="M381.89,394.79c0.23,2.72-0.05,2.84-1.37,4.84c-0.27,0.41-0.59,0.73-1.01,0.97
		c-0.27,0.16-0.52,0.36-0.78,0.54c-0.59,0.39-1.18,0.78-1.77,1.16c-0.38,0.83-0.16,1.71-0.2,2.57c-0.03,0.71-0.01,1.42,0,2.14
		c0.01,0.39-0.03,0.82,0.1,1.18c0.4,1.07,0.33,2.18,0.34,3.28c0.01,1.27,0.01,2.53,0,3.8c-0.01,1.1,0.03,2.2-0.32,3.29
		c-0.19,0.58-0.11,1.25-0.12,1.88c-0.02,2.45-0.02,4.9-0.03,7.36c0,0.79,0.02,1.58-0.27,2.34c-0.26,0.68-0.17,1.41-0.19,2.11
		c-0.03,1.34,0.09,2.69-0.39,3.99c-0.11,0.29-0.07,0.63-0.08,0.94c-0.04,1.1,0.04,2.21-0.38,3.28c-0.14,0.35-0.08,0.78-0.11,1.17
		c-0.03,0.39-0.01,0.8-0.1,1.18c-0.53,2.14-0.66,4.36-1.27,6.48c-0.08,0.29-0.01,0.62,0,0.94c0,0.07,0.05,0.2,0.09,0.21
		c0.14,0.02,0.35,0.06,0.44-0.01c0.8-0.76,1.7-1.45,2.35-2.33c1.12-1.52,2.25-3.03,3.22-4.67c1.78-3,3.22-6.16,4.79-9.26
		c0.5-0.98,0.88-2.02,1.34-3.02c0.05-0.11,0.24-0.17,0.37-0.23c0.01,0,0.09,0.12,0.13,0.19c0.03,0.07,0.05,0.15,0.08,0.22
		c0.23,0.67,0.48,1.34,0.44,2.07c-0.01,0.16-0.02,0.33,0.03,0.47c0.54,1.53,0.41,3.12,0.45,4.69c0.01,0.24-0.02,0.49,0.05,0.71
		c0.56,1.61,0.36,3.28,0.39,4.94c0.02,0.71,0.02,1.42,0.04,2.13c0,0.07,0.06,0.2,0.07,0.2c0.14-0.03,0.35-0.03,0.4-0.12
		c0.39-0.69,0.8-1.37,1.09-2.1c1.23-3.08,2.41-6.17,3.21-9.4c0.3-1.22,0.78-2.4,1.03-3.64c0.34-1.7,0.93-3.35,1.16-5.06
		c0.18-1.33,0.56-2.62,0.63-3.96c0.02-0.47,0.17-0.93,0.25-1.39c0.07-0.39,0.2-0.78,0.18-1.16c-0.06-1.05,0.36-2.02,0.45-3.03
		c0.09-0.94,0.04-1.9,0.09-2.84c0.01-0.31,0.1-0.63,0.2-0.92c0.22-0.61,0.22-1.24,0.22-1.87c0-6.17,0.01-12.34-0.01-18.51
		c0-0.63-0.07-1.27-0.22-1.87c-0.16-0.62-0.22-1.24-0.23-1.87c-0.02-1.34,0.07-2.68-0.38-3.99c-0.15-0.43-0.08-0.94-0.1-1.41
		c-0.02-0.63-0.05-1.25-0.25-1.87c-0.14-0.44-0.19-0.93-0.21-1.4c-0.04-0.71-0.16-1.4-0.3-2.1c-0.26-1.23-0.37-2.49-0.65-3.72
		c-0.47-2.07-0.74-4.18-1.23-6.25c-0.51-2.14-0.98-4.3-1.53-6.43c-0.12-0.45-0.06-0.94-0.08-1.41c0.34,0.25,0.43,0.64,0.56,1.02
		c1.79,5.07,3.32,10.21,4.64,15.42c1.05,4.13,1.96,8.29,2.71,12.48c0.47,2.63,1.05,5.26,1.14,7.96c0.56,1.99,0.31,4.09,0.78,6.1
		c0.16,0.68,0.09,1.42,0.11,2.13c0.03,1.19,0.05,2.37,0.07,3.56c0.01,0.47-0.04,0.96,0.06,1.42c0.49,2.27,0.22,4.57,0.28,6.86
		c0.01,0.24,0.02,0.48-0.03,0.71c-0.45,1.95-0.28,3.94-0.37,5.91c-0.05,1.1-0.02,2.21-0.31,3.3c-0.14,0.52-0.12,1.1-0.15,1.65
		c-0.04,0.87-0.11,1.72-0.32,2.58c-0.29,1.22-0.12,2.53-0.58,3.74c-0.91,6.44-2.6,12.67-4.79,18.78c-1.44,4.02-3.19,7.92-5.22,11.68
		c-0.45,0.83-0.97,1.63-1.47,2.43c-0.06,0.1-0.27,0.19-0.38,0.17c-0.13-0.03-0.24-0.19-0.32-0.32c-0.08-0.13-0.13-0.29-0.15-0.44
		c-0.21-1.56-0.39-3.13-0.63-4.69c-0.1-0.62-0.28-1.23-0.48-1.83c-0.3-0.9-1.68-1.2-2.38-0.52c-0.28,0.27-0.56,0.57-0.74,0.91
		c-0.87,1.61-2.01,3.02-3.12,4.46c-2.59,3.36-5.74,6.05-9.33,8.3c-2.57,1.61-5.32,2.78-8.17,3.74c-1.87,0.63-3.8,1.02-5.75,1.38
		c-1.18,0.22-2.33,0.36-3.52,0.29c-0.2-0.01-0.3-0.11-0.28-0.31c0-0.07,0-0.16,0.04-0.22c0.13-0.19,0.28-0.38,0.43-0.56
		c1.29-1.6,2.72-3.07,3.94-4.73c1.79-2.42,3.44-4.91,4.86-7.57c2.17-4.05,3.97-8.25,5.34-12.64c1.09-3.47,2.07-6.96,2.67-10.55
		c0.2-1.17,0.44-2.33,0.71-3.48c0.28-1.16,0.09-2.38,0.53-3.51c0.08-1.74,0.46-3.44,0.58-5.17c0.11-1.57,0.03-3.16,0.4-4.72
		c0.13-0.53,0.07-1.1,0.07-1.66c0-4.9,0.01-9.81,0-14.71c0-0.87-0.07-1.73-0.23-2.59c-0.16-0.85-0.14-1.73-0.19-2.6
		c-0.05-0.95,0.03-1.92-0.17-2.83c-0.43-1.91-0.07-1.73,1.46-2.26c1.27-0.44,2.53-0.88,3.75-1.45c1.16-0.55,2.2-1.23,3.05-2.21
		C381.29,395.31,381.6,395.06,381.89,394.79z"/>
	<path class="st18" d="M218.63,437.13c0.41,0.03,0.78,0.15,0.98,0.54c0.4,0.77,0.81,1.54,1.2,2.32c0.7,1.42,1.54,2.75,2.54,3.98
		c0.95,1.16,1.77,2.42,2.74,3.55c0.82,0.95,1.77,1.8,2.7,2.66c0.21,0.19,0.56,0.24,0.86,0.33c0.18,0.05,0.3-0.06,0.33-0.26
		c0.02-0.15,0.08-0.33,0.03-0.46c-0.55-1.34-0.3-2.82-0.81-4.17c-0.13-0.35-0.09-0.78-0.1-1.18c-0.02-0.79-0.05-1.57-0.29-2.34
		c-0.16-0.51-0.16-1.09-0.17-1.64c-0.02-1.27-0.01-2.53-0.01-3.8c0-2.79,0-2.79,0.58-5.62c0.01-0.06,0.1-0.16,0.13-0.15
		c0.14,0.03,0.35,0.05,0.41,0.15c0.16,0.27,0.27,0.56,0.37,0.86c0.84,2.72,1.89,5.37,3.04,7.96c1.24,2.81,2.6,5.59,4.21,8.22
		c0.78,1.28,1.52,2.58,2.4,3.8c0.92,1.28,1.74,2.63,2.87,3.75c0.62,0.62,0.88,1.52,1.63,2.02c0.12,0.08,0.29,0.09,0.44,0.11
		c0.05,0,0.16-0.08,0.15-0.12c-0.04-0.62-0.04-1.26-0.16-1.87c-0.2-1.08-0.58-2.14-0.69-3.23c-0.15-1.49-0.61-2.93-0.69-4.43
		c-0.05-0.94-0.34-1.86-0.43-2.8c-0.09-0.94-0.04-1.88-0.33-2.81c-0.2-0.66-0.14-1.41-0.17-2.11c-0.03-0.87-0.02-1.73-0.29-2.58
		c-0.17-0.51-0.15-1.09-0.17-1.64c-0.03-1.11-0.01-2.21-0.03-3.32c-0.01-0.55,0.01-1.13-0.16-1.64c-0.28-0.85-0.28-1.71-0.28-2.58
		c0-3.88,0-7.75,0-11.63c0-0.79,0.01-1.57,0.25-2.35c0.16-0.52,0.18-1.09,0.19-1.64c0.03-1.03-0.09-2.07,0.06-3.08
		c0.24-1.64,0.5-3.27,0.5-4.93c0.53-1.26,0.34-2.65,0.75-3.94c0.3-0.96,0.13-2.05,0.55-3.01c0.27-2.44,1.18-4.74,1.61-7.14
		c1.11-3.29,2.09-6.63,3.47-9.82c0.63-1.45,1.39-2.84,2.11-4.25c0.1-0.19,0.34-0.31,0.51-0.47c-0.09,1.27-0.54,2.46-0.93,3.66
		c-1.14,3.45-1.94,7-2.77,10.53c-0.51,2.14-0.71,4.36-1.14,6.52c-0.31,1.56-0.29,3.15-0.53,4.7c-0.33,2.12-0.37,4.24-0.43,6.37
		c-0.01,0.24,0.01,0.48-0.05,0.71c-0.43,1.71-0.32,3.46-0.33,5.19c-0.02,2.69-0.01,5.38,0.03,8.06c0.01,0.78,0.15,1.57,0.21,2.35
		c0.07,0.87,0.13,1.73,0.17,2.6c0.07,1.5-0.03,3.01,0.39,4.47c0.08,0.3,0.07,0.63,0.08,0.94c0.05,1.1,0.14,2.19,0.38,3.29
		c0.24,1.15,0.34,2.34,0.51,3.51c0.96,6.43,2.68,12.66,4.95,18.73c1.44,3.85,3.28,7.52,5.45,11.03c1.29,2.09,2.73,4.07,4.24,5.99
		c0.98,1.23,2.15,2.31,3.23,3.47c0.15,0.16,0.21,0.39,0.3,0.6c0.02,0.05-0.03,0.18-0.08,0.2c-0.14,0.06-0.3,0.1-0.45,0.11
		c-1.84,0.11-3.62-0.28-5.39-0.68c-5.22-1.18-10.07-3.24-14.4-6.41c-2.3-1.68-4.47-3.48-6.23-5.78c-1.25-1.63-2.57-3.19-3.6-4.98
		c-0.31-0.53-0.79-0.98-1.24-1.41c-0.41-0.38-1.34-0.34-1.76,0.07c-0.22,0.21-0.43,0.5-0.49,0.78c-0.23,1.16-0.39,2.33-0.59,3.5
		c-0.2,1.16-0.4,2.33-0.63,3.48c-0.01,0.04-0.32,0.1-0.4,0.03c-0.24-0.19-0.5-0.41-0.64-0.68c-1.44-2.82-2.92-5.61-4.25-8.48
		c-1.26-2.72-2.24-5.56-3.17-8.42c-1.23-3.76-2.12-7.6-3.12-11.41C218.62,438.42,218.67,437.76,218.63,437.13z"/>
	<path class="st19" d="M280.36,483.17c-0.5-0.49-1.01-0.99-1.51-1.48c-3.21-3.08-5.86-6.56-7.69-10.64
		c-0.16-0.35-0.23-0.74-0.34-1.11c0.19-1.06-0.28-2.13,0.05-3.19c0.11-0.47,0.28-0.93,0.4-1.4c0.13-0.36,0.32-0.67,0.67-0.86
		c0.75-0.14,1.39,0.17,2.01,0.52c5.33,2.98,11.03,5,16.91,6.57c1.25,0.33,3.1,0.37,2.37,2.61c-0.45,1.52-1.11,2.96-1.83,4.36
		c-0.5,0.97-0.58,1.94-0.4,2.98c0.49,2.91,1.54,5.62,2.95,8.21c1.59,2.93,3.56,5.6,5.73,8.12c0.36,0.42,0.73,0.83,1.07,1.27
		c0.07,0.09,0.03,0.29,0,0.43c-0.01,0.05-0.1,0.12-0.16,0.12c-0.31,0.03-0.63,0.06-0.94,0.06c-4.5,0-9.01,0-13.51,0.01
		c-0.96,0-1.87-0.12-2.79-0.41c-5.99-1.88-11.67-4.4-16.78-8.09c-2.38-1.72-4.54-3.68-6.44-5.93c-0.2-0.24-0.35-0.52-0.52-0.78
		c0.03-0.87-0.41-1.92,0.86-2.34c1.02,0.09,2.04,0.15,3.05,0.28c2.2,0.28,4.41,0.29,6.62,0.2c0.6-0.02,1.04-0.33,1.35-0.82
		c0.31-0.48,0.31-1.14-0.06-1.54c-0.37-0.4-0.77-0.79-1.2-1.13c-1.78-1.44-3.4-3.06-4.94-4.75c-0.21-0.23-0.36-0.51-0.55-0.76
		c0.25-0.99,0.91-1.36,1.88-1.27c0.58,0.15,0.94,0.57,1.21,1.06c3.15,5.65,8.07,9.15,13.91,11.55c0.37,0.09,0.75,0.17,1.03,0.4
		c-0.02-0.02,0.03,0.1,0.03,0.1s0.04-0.13,0.02-0.14c-0.28-0.17-0.57-0.29-0.88-0.38C281.16,484.59,280.65,483.98,280.36,483.17z"/>
	<path class="st18" d="M282.7,396.34c0.26-0.35,0.61-0.57,1.02-0.41c1.27,0.51,2.65,0.3,3.94,0.74c0.8,0.27,4.07-0.51,4.79-0.98
		c0.74-0.49,1.31-1.12,1.77-1.88c0.39-0.65,0.65-0.7,1.38-0.33c1.2,0.62,2.48,1.01,3.74,1.47c1.73,0.63,3.47,1.03,5.33,0.89
		c0.63-0.05,1.27-0.04,1.9,0c1.38,0.09,2.66-0.29,3.9-0.84c0.88-0.38,0.96-0.55,0.82-1.64c-0.09-0.7-0.11-1.41-0.37-2.09
		c-0.14-0.36-0.12-0.77-0.16-1.17c-0.03-0.39,0.04-0.82-0.08-1.18c-0.53-1.54-0.39-3.13-0.39-4.7c-0.01-1.42-0.1-2.84,0.37-4.23
		c0.15-0.43,0.08-0.94,0.09-1.41c0.01-0.81,0.29-1.54,0.65-2.24c0.02-0.04,0.13-0.05,0.19-0.05c0.07,0.01,0.17,0.03,0.21,0.08
		c0.1,0.12,0.22,0.25,0.25,0.39c0.47,2.33,1.42,4.51,2.12,6.78c0.21,0.67,0.57,1.3,0.9,1.93c1.06,2.03,2.26,3.99,3.73,5.74
		c1.11,1.32,2.29,2.63,3.83,3.5c1.76,1.54,3.86,2.45,6.04,3.17c1.57,0.53,3.19,0.9,4.88,0.79c0.63-0.04,1.26,0,1.9,0
		c3.97,0,3.97,0,7.95-0.95c1.15-0.27,2.29-0.55,3.49-0.54c1.16,0.02,1.92-1.2,2.14-2.22c0.05-0.21-0.07-0.46-0.12-0.69
		c-0.53-2.14-0.76-4.34-1.2-6.49c-0.7-3.46-0.3-6.93-0.4-10.39c-0.01-0.49,0.17-0.93,0.4-1.35c0.04-0.07,0.13-0.17,0.16-0.16
		c0.12,0.05,0.29,0.11,0.33,0.21c0.2,0.51,0.37,1.04,0.55,1.57c0.38,1.12,0.75,2.25,1.32,3.3c0.22,0.42,0.36,0.88,0.55,1.31
		c0.28,0.65,0.53,1.32,0.88,1.94c0.62,1.1,1.28,2.17,1.94,3.25c0.58,0.94,1.25,1.82,2.07,2.58c0.92,0.86,1.65,1.9,2.66,2.67
		c1.6,1.22,3.39,2.07,5.32,2.5c1.29,0.29,2.69,0.29,4-0.07c1.06-0.29,2.13-0.47,3.12-1.06c2.17-1.3,3.36-3.29,4.18-5.55
		c0.59-1.63,1.07-3.3,1.01-5.08c-0.01-0.39,0.02-0.8,0.15-1.17c0.46-1.31,0.25-2.66,0.27-4c0-0.16,0-0.33-0.06-0.47
		c-0.46-1.14-0.36-2.33-0.38-3.51c-0.01-0.87-0.13-1.71-0.32-2.57c-0.25-1.15-0.36-2.33-0.59-3.49c-0.47-2.32-0.86-4.65-1.63-6.89
		c-0.24-0.69-0.36-1.37-0.31-2.09c0.16,0.26,0.38,0.5,0.48,0.79c1.13,3.29,2.02,6.64,2.84,10.02c0.46,1.92,0.99,3.83,1.28,5.77
		c0.4,2.65,1.05,5.26,1.14,7.95c0.5,1.85,0.4,3.76,0.5,5.65c0.02,0.31,0.03,0.64,0.13,0.93c0.29,0.81,0.07,1.55-0.17,2.31
		c-0.23,0.72-0.68,1.26-1.31,1.62c-2.01,1.13-4.13,2-6.4,2.4c-0.71,0.13-1.4,0.25-2.02,0.61c-1.75,1.01-3.7,1.35-5.64,1.69
		c-1.09,0.19-2.21,0.15-3.31-0.03c-0.62-0.1-1.24-0.24-1.86-0.34c-1.74-0.26-3.07-1.11-4.03-2.6c-1.03-1.6-1.97-3.25-2.7-5
		c-0.98-2.33-1.96-4.66-2.68-7.08c-0.29-0.33-0.61-0.65-0.54-1.03c0.23,0.59-0.39,1.31,0.05,2.02c0.02,0.87,0.07,1.73,0.36,2.57
		c0.18,0.52,0.25,1.07,0.37,1.61c0.65,3.02,1.76,5.88,3,8.7c0.13,0.29,0.29,0.58,0.34,0.88c0.03,0.2-0.05,0.48-0.19,0.63
		c-1.08,1.13-2.42,1.5-3.89,1.07c-0.87-0.25-1.65-0.27-2.54-0.07c-1.38,0.32-2.81,0.4-4.18,0.71c-1.87,0.42-3.78,0.28-5.64,0.57
		c-1.89,0.29-3.77,0.3-5.66,0.29c-0.63,0-1.25-0.11-1.88-0.18c-0.39-0.04-0.78-0.18-1.17-0.16c-1.68,0.08-3.29-0.33-4.92-0.61
		c-1.31-0.22-2.58-0.71-3.85-1.13c-0.46-0.15-0.77-0.52-1.02-0.94c-0.85-1.43-1.42-2.99-2.05-4.52c-1.39-3.36-2.38-6.84-3.15-10.39
		c-0.58-0.87-0.67-1.82-0.64-2.7c0.38,1.46-0.26,3.04,0.18,4.61c-0.04,2.7,0.59,5.31,1.19,7.92c0.43,1.84,0.88,3.68,1.51,5.46
		c0.17,0.48-0.08,0.95-0.59,1.11c-1.8,0.6-3.63,1.06-5.53,1.14c-0.87,0.04-1.74,0.01-2.6,0.05c-3.11,0.15-5.9-0.81-8.52-2.4
		c-0.4-0.25-0.77-0.55-1.18-0.79c-0.43-0.25-0.91-0.28-1.37-0.12c-0.44,0.16-0.87,0.37-1.29,0.59c-1.79,0.94-3.68,1.38-5.7,1.26
		c-0.87-0.05-1.74-0.05-2.6-0.12c-0.3-0.02-0.58-0.21-0.87-0.32c-0.1-0.43-0.48-0.63-0.75-0.91
		C283.26,398.05,282.52,397.41,282.7,396.34z"/>
	<path class="st20" d="M239.57,564.81c-0.13-0.54-0.3-1.07-0.37-1.61c-0.39-3.05-0.75-6.11-1.14-9.17c-0.39-3.05-0.83-6.1-1.22-9.16
		c-0.39-3.05-0.75-6.11-1.14-9.17c-0.38-2.98-0.8-5.95-1.19-8.92c-0.38-2.9-0.74-5.8-1.11-8.69c-0.26-2.04-0.54-4.07-0.79-6.11
		c-0.14-1.1-0.29-2.2-0.33-3.3c-0.09-2.4,1.15-4.19,3.45-5.11c0.14-0.05,0.31-0.02,0.47-0.03c0.75-0.38,1.56-0.2,2.33-0.2
		c42.13-0.01,84.27-0.01,126.4-0.01c2.95,0,3.15,0.23,2.57,2.85c-1.12,1.44-2.74,1-4.18,1c-17.87,0.03-35.75,0.02-53.62,0.02
		c-9.1,0-18.19,0.02-27.29-0.01c-1.71-0.01-3.2,0.36-4.7,1.28c-4.02,2.47-8.56,2.65-13.09,2.45c-3.72-0.17-7.13-1.45-10.65-2.81
		c-4.78-1.85-10.12-1.76-15,0.23c-2.54,1.03-3.41,3.58-3.07,6.39c1.18,9.65,2.52,19.29,3.7,28.95c0.77,6.28,1.67,12.54,2.42,18.82
		c0.11,0.95,0.24,1.89-0.15,2.81C240.8,566.55,240.19,565.66,239.57,564.81z"/>
	<path class="st21" d="M355.29,312.83c-0.44-0.18-0.89-0.34-1.31-0.54c-5.64-2.74-11.51-4.8-17.62-6.18
		c-2.77-0.63-5.56-1.13-8.38-1.51c-1.57-0.21-3.15-0.25-4.7-0.5c-3.07-0.5-6.15-0.39-9.23-0.43c-3.08-0.04-6.17,0.02-9.25,0.06
		c-1.18,0.01-2.37-0.02-3.53,0.32c-0.22,0.07-0.47,0.09-0.71,0.08c-1.99-0.08-3.94,0.34-5.88,0.62c-2.65,0.37-5.29,0.86-7.9,1.5
		c-4.38,1.08-8.69,2.38-12.83,4.16c-2.39,1.03-4.71,2.25-7.05,3.4c-0.53,0.26-0.81,0.71-0.8,1.34c0.02,1.43-0.67,2.59-1.53,3.64
		c-2,2.43-4.54,4.14-7.46,5.3c-1.28,0.5-2.6,0.67-3.96,0.57c-0.79-0.06-1.35,0.25-1.89,0.78c-2.53,2.5-4.94,5.11-7.14,7.92
		c-2.84,3.62-5.3,7.47-7.68,11.39c-0.49,0.81-0.9,1.67-1.34,2.51c-3.76,7.07-6.83,14.42-9.26,22.05c-1.59,4.97-2.98,9.99-4.17,15.06
		c-0.76,3.22-1.41,6.48-1.95,9.74c-0.44,2.64-0.92,5.29-1.11,7.97c-0.43,1.54-0.37,3.13-0.48,4.71c-0.07,0.94-0.27,1.87-0.41,2.81
		c-1.42-0.43-0.55-1.58-0.66-2.37c-0.13-0.99-0.21-2.04,0.13-3.04c0.04-1.18,0.01-2.37,0.14-3.54c0.3-2.67,0.61-5.34,1.03-7.99
		c1.29-8.2,3.17-16.28,5.57-24.23c2.37-7.88,5.28-15.56,9.02-22.9c3.28-6.43,7.15-12.47,11.82-17.99
		c9.41-11.1,21.13-18.66,35.06-22.8c4.63-1.38,9.34-2.31,14.13-2.97c5.66-0.77,11.33-0.96,17.03-0.95c3.8,0.01,7.59,0.21,11.36,0.63
		c8.44,0.94,16.66,2.8,24.52,6.1c2.84,1.2,5.61,2.54,8.27,4.12c0.27,0.16,0.5,0.37,0.75,0.55
		C355.98,312.69,355.8,312.91,355.29,312.83z"/>
	<path class="st19" d="M341.05,482.18c1.67-1.07,3.05-2.47,4.4-3.9c0.97-1.03,1.86-2.13,2.79-3.2c0.15-0.16,0.35-0.28,0.46-0.49
		l0.01-0.01c1.74,0.33,1.63,1.61,1.49,2.91l0,0c-0.22,0.12-0.38,0.29-0.43,0.54c-0.64,0.58-1.28,1.16-1.93,1.74
		c-0.62,0.55-0.82,1.19-0.57,1.9c0.24,0.68,0.78,0.95,1.46,1.01c0.16,0.01,0.31,0.04,0.47,0.06c1.32,0.63,0.97,1.67,0.55,2.62
		c-0.67,1.53-1.6,2.88-2.9,3.98c-5.25,4.46-11.46,7.2-17.79,9.63c-3.29,1.26-6.87,0.44-10.32,0.51c-0.38,0.01-0.48-0.31-0.4-0.67
		c0.99-1.21,2.01-2.41,2.97-3.65c1.93-2.49,3.56-5.16,4.83-8.06c0.66-1.52,1.17-3.08,1.5-4.7c0.13-0.61,0.17-1.24,0.23-1.86
		c0.05-0.64-0.1-1.23-0.38-1.81c-0.77-1.63-1.59-3.24-2.07-4.99c-0.47-1.24,0.47-1.55,1.29-1.79c4.78-1.41,9.46-3.1,14.15-4.76
		c3.69-1.31,6.81,0.9,6.55,4.2c-0.27,1-0.83,1.85-1.35,2.72c-1.32,2.23-2.89,4.27-4.67,6.15c-0.43,0.45-0.83,0.93-1.25,1.39
		c-0.18,1.2-1.23,1.59-2.06,2.19c-0.49,0.34-0.96,0.72-1.45,1.05c-0.27,0.15-0.51,0.34-0.79,0.42c0.02-0.01,0.13,0.09,0.14,0.07
		c0.21-0.27,0.52-0.36,0.78-0.54c0.49-0.35,0.97-0.69,1.45-1.06C339.11,483.19,339.96,482.48,341.05,482.18z"/>
	<path class="st19" d="M231.47,532.05c0.12,0.37,0.29,0.74,0.34,1.12c0.38,2.97,0.74,5.94,1.11,8.91c0.23,1.8,0.48,3.59,0.72,5.39
		c0.2,1.56,0.41,3.12,0.59,4.69c0.04,0.32-0.06,0.63-0.38,0.79c-0.63,0.32-1.27,0.63-1.91,0.94c-1.77,0.88-3.45,1.91-4.92,3.24
		c-0.76,0.69-1.51,1.39-2.02,2.3c-0.06,0.11-0.04,0.3,0,0.42c0.06,0.17,0.24,0.21,0.4,0.12c0.34-0.19,0.68-0.39,1.01-0.6
		c2.22-1.39,4.63-2.36,7.12-3.12c0.22-0.07,0.46-0.1,0.69-0.15c0.21-0.04,0.49,0.15,0.52,0.36c0.34,2.5,0.67,5,1,7.5
		c0.25,1.87,0.52,3.75,0.73,5.63c0.37,3.45,1.03,6.86,1.25,10.32c0.3,2.93,0.2,2.95-2.55,2.78c-3.96-0.24-7.3-2.11-10.75-3.74
		c-1.2-0.4-1.43-1.52-1.85-2.51c-0.1-0.22-0.17-0.45-0.24-0.68c-0.12-0.47-0.35-0.91-0.5-1.38c-1.31-3.67-1.32-7.4-0.6-11.18
		c1.85-9.77,4.64-19.28,8.27-28.54C229.89,533.67,229.94,532.26,231.47,532.05z"/>
	<path class="st17" d="M267.99,381.59c1.51,3.36,3.01,6.72,4.74,9.98c0.85,1.59,1.71,3.18,2.55,4.77c0.63,1.19,1.38,2.27,2.5,3.07
		c0.44,0.32,0.8,0.75,1.19,1.12c0.58,0.75,1.43,1.21,2.1,1.87c0.37,0.37,0.91,0.74,0.7,1.37c-0.2,0.61-0.82,0.67-1.36,0.73
		c-1.7,0.2-3.45-0.19-5.13,0.35c-8.47,1.61-16.44,4.68-24.26,8.21c-1.43-0.32-1.23-1.52-1.17-2.46c0.27-4.34,0.75-8.54,3.38-12.34
		c3.72-5.4,7.47-10.76,11.81-15.68C265.71,381.8,266.4,380.05,267.99,381.59z"/>
	<path class="st19" d="M387.11,532.94c0.01-1.58,0.34-3.12,0.58-4.67c0.27-0.3,0.54-0.29,0.8,0.01c0.98,2.32,2.01,4.62,2.93,6.97
		c3.41,8.76,5.99,17.76,7.87,26.97c0.14,0.69,0.14,1.4,0.2,2.11c-0.15,4.73-2.7,8.31-5.71,11.61c-2.9,3.17-6.58,5.14-10.73,6.16
		c-0.94,0.23-2.37,0.83-2.12-1.22c0.24-2.11,0.46-4.22,0.72-6.33c0.25-2.03,0.53-4.06,0.79-6.08c0.18-1.4,0.35-2.81,0.53-4.22
		c0.32-2.5,0.65-4.99,0.98-7.49c0.01-0.08,0.03-0.15,0.05-0.23c0.05-0.24,0.48-0.47,0.75-0.4c2.6,0.69,5.06,1.73,7.37,3.1
		c0.34,0.2,0.66,0.43,0.99,0.64c0.26,0.17,0.62,0.17,0.63,0c0.02-0.22,0-0.45-0.06-0.65c-0.07-0.22-0.2-0.42-0.3-0.64
		c-0.71-0.98-0.97-2.13-1.2-3.29c-1.15-5.78-2.63-11.46-4.4-17.08C387.24,536.52,386.7,534.78,387.11,532.94z"/>
	<path class="st17" d="M299.79,492.68c-2.57-2.97-4.37-6.36-5.38-10.15c-0.1-0.38-0.19-0.76-0.26-1.15
		c-0.11-0.63-0.03-1.23,0.23-1.84c0.91-2.1,1.76-4.22,2.64-6.33c0.25-0.26,0.14-0.7,0.45-0.93l0-0.01c1.45-0.14,2.8,0.36,4.17,0.7
		c4.24,1.07,8.52,1.55,12.9,1.44c3.02-0.08,3.83,0.75,3.99,3.71c0.32,5.82-0.58,11.37-4.14,16.19c-3.63,4.9-7.39,5.19-11.91,1.02
		C301.57,494.47,300.51,493.75,299.79,492.68z"/>
	<path class="st22" d="M251.42,432.36c0.12,0.1,0.28,0.18,0.35,0.3c0.23,0.41,0.46,0.83,0.63,1.27c1.52,3.95,3.88,7.39,6.43,10.71
		c0.86,1.12,1.94,2.07,2.94,3.09c2.67,2.71,5.74,4.92,8.97,6.92c2.63,1.63,5.41,2.94,8.18,4.27c1.14,0.54,2.32,1.01,3.51,1.42
		c3.28,1.12,6.54,2.31,9.96,3.01c2.47,0.51,4.9,1.17,7.43,1.33c1.85,0.53,3.75,0.42,5.64,0.49c0.39,0.01,0.79,0.03,1.18,0.12
		c1.8,0.38,3.59,0.35,5.4,0.01c0.84-0.16,1.73-0.12,2.6-0.15c1.26-0.05,2.5-0.12,3.76-0.35c1.31-0.24,2.65-0.37,3.96-0.61
		c2.79-0.52,5.54-1.19,8.28-1.94c2.44-0.66,4.82-1.51,7.15-2.46c2.55-1.04,5.09-2.11,7.48-3.53c1.97-1.17,3.93-2.33,5.82-3.63
		c1.76-1.21,3.46-2.49,4.95-4.02c0.44-0.45,0.88-0.91,1.35-1.33c2.47-2.25,4.48-4.89,6.17-7.75c0.92-1.56,1.69-3.21,2.52-4.83
		c0.18-0.35,0.33-0.72,0.75-0.87c-0.01,0.23,0.03,0.49-0.05,0.7c-1.62,4.47-3.65,8.74-6.43,12.62c-2.84,3.96-6.37,7.21-10.34,9.99
		c-4.03,2.82-8.37,5.08-12.94,6.86c-5.46,2.13-11.08,3.64-16.88,4.54c-4.31,0.67-8.63,0.95-12.98,0.85
		c-2.85-0.07-5.66-0.43-8.48-0.84c-5.17-0.76-10.2-2.07-15.11-3.85c-5.3-1.92-10.31-4.39-14.92-7.64c-3.84-2.7-7.24-5.86-10.04-9.64
		c-2.08-2.81-3.71-5.87-5.1-9.06c-0.69-1.59-1.29-3.22-1.93-4.84C251.46,433.15,251.34,432.77,251.42,432.36z"/>
	<path class="st23" d="M353.45,585.75c0.31-0.02,0.63-0.07,0.94-0.07c6.56,0,13.12,0,19.69,0c0.47,0,0.95,0.01,1.42,0.01
		c1.84,0,3.6,2.05,2.54,4.29c-0.39,0.84-1.05,1.37-2.05,1.36c-0.71-0.01-1.42,0-2.13,0c-20.87-0.01-41.75-0.03-62.62-0.01
		c-22.14,0.02-44.28,0.08-66.41,0.12c-0.71,0-1.42-0.01-2.13-0.03c-0.59-0.02-1.04-0.35-1.43-0.76c-0.44-0.46-0.84-0.96-0.69-1.67
		c1.36-1.16,3.01-0.79,4.55-0.79c31.19-0.02,62.38-0.02,93.57-0.02c2.37,0,4.74-0.1,7.11,0.03
		C348.69,588.37,351.26,587.71,353.45,585.75z"/>
	<path class="st24" d="M353.45,585.75c-0.02,0.76-0.38,1.35-0.95,1.83c-1.07,0.89-2.3,1.34-3.69,1.4c-0.47,0.02-0.95,0.01-1.42,0.01
		c-35.45,0-70.9-0.01-106.35-0.01c-0.16,0-0.32,0.01-0.47,0.01c-0.28-0.84-0.02-1.56,0.51-2.2c0.53-0.64,1.2-1.03,2.03-1.08
		c0.55-0.03,1.11-0.03,1.66-0.03c35.59,0,71.19,0,106.78,0C352.18,585.68,352.82,585.72,353.45,585.75z"/>
	<path class="st22" d="M299.79,492.68c0.27,0.15,0.57,0.27,0.8,0.46c1.22,1,2.46,1.97,3.81,2.8c1.3,0.8,2.7,1.29,4.12,1.75
		c0.49,0.16,0.92,0.08,1.35-0.19c2.26-1.41,4.01-3.29,5.3-5.62c1.13-2.02,1.75-4.21,2.24-6.46c0.54-2.5,0.48-5.02,0.42-7.54
		c-0.01-0.54-0.15-1.09-0.29-1.62c-0.25-0.95-0.47-1.11-1.52-1.12c-1.9-0.02-3.79-0.02-5.69-0.05c-1.1-0.02-2.22,0.03-3.28-0.36
		c-2.37-0.19-4.63-0.91-6.93-1.47c-0.93-0.23-1.8-0.57-2.65-1c0.07-0.23,0.15-0.5,0.41-0.5c0.86,0.03,1.73,0.08,2.59,0.16
		c1.02,0.09,2.04,0.24,3.06,0.33c1.1,0.1,2.2,0.19,3.31,0.24c1.1,0.05,2.22,0.14,3.32,0.06c2.76-0.19,5.53-0.18,8.26-0.66
		c0.39-0.07,0.78-0.09,1.18-0.13c1.4-0.13,1.64-0.18,2.2,1.43c0.7,2.01,1.54,3.98,2.39,5.93c0.37,0.84,0.49,1.64,0.36,2.53
		c-0.15,1.03-0.49,1.99-0.83,2.96c-0.66,1.87-1.58,3.62-2.62,5.3c-2.09,3.38-4.64,6.39-7.48,9.16c-0.41,0.4-0.86,0.66-1.46,0.65
		c-1.9-0.02-3.79-0.01-5.69-0.01c-0.41,0-0.77-0.11-1.08-0.4c-2.02-1.9-3.85-3.97-5.5-6.19
		C299.82,493.02,299.82,492.83,299.79,492.68z"/>
	<path class="st18" d="M253.31,372.06c0.14-0.21,0.37-0.38,0.58-0.25c0.4,0.24,0.73,0.59,1.12,0.84c0.48,0.31,1.03,0.44,1.59,0.29
		c1.3-0.35,2.56-0.81,3.69-1.56c0.35-0.23,0.55-0.57,0.59-0.98c0.06-0.79,0.14-1.6-0.13-2.35c-0.3-0.85-0.3-1.71-0.3-2.57
		c0-3.08,0-6.16,0-9.25c0-0.79-0.02-1.58,0.27-2.34c0.11-0.29,0.14-0.61,0.17-0.93c0.08-0.86,0-1.73,0.21-2.59
		c0.69-2.91,1.09-5.88,2.12-8.71c0.97-2.68,2.18-5.24,3.51-7.76c0.19-0.36,0.49-0.61,0.88-0.74c-0.12,0.87-0.5,1.66-0.84,2.45
		c-1.2,2.85-1.88,5.84-2.56,8.83c-0.39,1.7-0.37,3.45-0.81,5.13c-0.12,0.45-0.09,0.94-0.09,1.41c-0.01,3.87-0.01,7.73,0.01,11.6
		c0,0.63,0.12,1.25,0.2,1.88c0.05,0.39,0.18,0.77,0.19,1.16c0.06,1.82,0.44,3.59,0.86,5.35c0.07,0.31,0.1,0.62,0.14,0.93
		c0.1,0.74-0.02,1.4-0.61,1.94c-1.63,1.5-2.97,3.27-4.4,4.94c-1.43,1.67-2.75,3.45-4.07,5.21c-1.37,1.83-2.68,3.7-4.03,5.54
		c-0.07,0.1-0.28,0.17-0.4,0.14c-0.1-0.02-0.24-0.2-0.24-0.31c0.01-0.55,0.02-1.11,0.11-1.65c0.42-2.48,0.87-4.96,1.32-7.43
		c0.21-1.16,0.41-2.33,0.69-3.47c0.19-0.78,0.25-1.55,0.29-2.34C253.65,373.68,253.42,372.88,253.31,372.06z"/>
	<path class="st25" d="M318.32,498.81c0.18,0.14,0.34,0.35,0.55,0.41c0.29,0.09,0.62,0.1,0.93,0.11c1.26,0.01,2.52-0.08,3.77,0.02
		c2.27,0.18,4.32-0.48,6.37-1.35c3.47-1.48,6.87-3.12,10.21-4.87c1.88-0.99,3.67-2.13,5.26-3.55c0.12-0.1,0.22-0.23,0.35-0.31
		c1.79-1.05,2.74-2.75,3.6-4.54c0.35-0.72,0.29-1.36-0.18-1.98c0.24-0.02,0.47-0.06,0.71-0.05c3.02,0.13,5.99-0.21,8.95-0.78
		c0.48-0.09,0.75,0.1,0.88,0.55c0.19,0.64,0.16,1.25-0.23,1.81c-0.14,0.19-0.27,0.39-0.42,0.57c-1.9,2.23-3.95,4.31-6.31,6.06
		c-4.48,3.33-9.43,5.75-14.68,7.57c-0.37,0.13-0.75,0.25-1.12,0.39c-1.72,0.65-3.47,0.93-5.32,0.9c-4.03-0.06-8.06,0.03-12.09,0.05
		c-0.47,0-0.95-0.01-1.42-0.06c-0.12-0.01-0.3-0.16-0.33-0.27c-0.03-0.12,0.07-0.3,0.16-0.41
		C318.04,498.96,318.2,498.89,318.32,498.81z"/>
	<path class="st22" d="M267.99,381.59c-0.44-0.23-0.84-0.39-1.26,0.09c-0.73,0.83-1.54,1.57-2.18,2.49
		c-0.82,1.16-1.96,2.06-2.69,3.3c-3.48,4.2-6.49,8.73-9.35,13.36c-1.02,1.64-1.62,3.41-1.57,5.37c0.02,0.95-0.13,1.88-0.29,2.82
		c-0.18,1.08-0.1,2.2-0.09,3.3c0,0.2,0.24,0.39,0.36,0.58c1.13,1.62,1.21,3.22-0.08,4.8c-0.13,0.28-0.34,0.54-0.38,0.83
		c-0.07,0.46-0.05,0.94-0.04,1.41c0.02,2.67,0.05,5.34,0.07,8.01c0,0.39-0.04,0.78-0.06,1.17c-0.09-0.12-0.24-0.23-0.27-0.37
		c-0.49-1.75-0.98-3.49-1.42-5.25c-0.13-0.53-0.15-1.09-0.16-1.64c-0.1-4.58-0.15-9.16,0.12-13.72c0.17-2.75,0.29-5.51,0.72-8.25
		c0.13-0.8,0.37-1.51,0.79-2.2c2.76-4.6,5.78-9.03,9.05-13.29c1.73-2.25,3.53-4.45,5.45-6.54c0.21-0.23,0.42-0.47,0.64-0.7
		c0.4-0.41,0.81-0.3,1.06,0.27c0.06,0.14,0.11,0.29,0.18,0.44c0.46,1.09,0.92,2.17,1.37,3.27
		C267.99,381.26,267.97,381.43,267.99,381.59z"/>
	<path class="st26" d="M275.12,404.29c0.38-0.35,0.85-0.41,1.32-0.41c1.5-0.02,3-0.03,4.5-0.04c0.21,0,0.32-0.05,0.32-0.24
		c0-0.07-0.03-0.15-0.07-0.19c-0.47-0.43-0.95-0.84-1.4-1.27c-0.23-0.22-0.47-0.44-0.61-0.72c-0.14-0.27-0.15-0.59-0.21-0.9
		c0.68,0,1.15,0.48,1.7,0.76c1.62,0.83,3.3,1.43,5.1,1.8c2.39,0.5,4.69,0.18,6.99-0.48c0.45-0.13,0.91-0.28,1.33-0.49
		c0.91-0.46,1.77-0.61,2.59,0.16c4.14,2.31,8.57,2.98,13.24,2.32c2.19-0.31,4.32-0.86,6.39-1.62c0.53-0.2,1.05-0.26,1.61-0.06
		c3.05,1.13,6.26,1.51,9.45,1.97c2.36,0.64,4.84-0.34,7.18,0.55c0.01,0.92-0.75,1.15-1.38,1.32c-2.1,0.54-4.11,1.4-6.27,1.7
		c-3.05-0.77-6.22-0.92-9.21-1.99c-0.93-0.33-1.87,0.04-2.77,0.33c-5.91,1.9-11.74,2.21-17.36-1c-0.9-0.51-1.81-0.44-2.73-0.08
		c-1.25,0.48-2.56,0.79-3.89,0.99c-4.58-1.08-9.19-1.89-13.93-1.64C276.31,405.1,275.59,404.95,275.12,404.29z"/>
	<path class="st13" d="M268.55,338.9c-0.05,1.26-0.06,2.52-0.38,3.76c-0.14,0.53-0.1,1.1-0.12,1.65c-0.13,4.34-0.14,8.69,0,13.03
		c0.03,0.87,0.09,1.73,0.27,2.59c0.28,1.31,0.17,2.68,0.6,3.97c0.74,5.51,2.36,10.78,4.4,15.92c1.9,4.78,4.3,9.31,7.2,13.58
		c0.31,0.46,0.57,0.95,0.85,1.42c-1.39,1.96-2.36,0.43-3.41-0.42c-0.15-0.18-0.33-0.34-0.44-0.53c-3.13-5.66-5.92-11.47-8.17-17.55
		c-1.07-2.89-1.77-5.87-2.31-8.9c-0.7-3.89-1.02-7.81-1.16-11.75c-0.13-3.55,0.12-7.09,0.59-10.61c0.27-2.04,0.68-4.04,1.16-6.03
		c0.13-0.53,0.33-1.05,0.49-1.58C269.19,337.64,268.64,338.34,268.55,338.9z"/>
	<path class="st25" d="M380.93,580.88c0.05,0.15,0.1,0.3,0.17,0.44c0.16,0.33,0.49,0.55,0.72,0.48c2.72-0.81,5.42-1.62,7.83-3.25
		c2.94-1.98,5.26-4.48,7.03-7.53c1.12-1.92,1.98-3.93,2.44-6.11c0.04-0.21,0.25-0.39,0.38-0.58c0.28,0.49,0.38,1.03,0.4,1.59
		c0.15,4.2-0.82,8.12-2.93,11.77c-1.33,2.28-3.07,4.21-5.11,5.85c-1.73,1.39-3.66,2.47-5.8,3.12c-1.13,0.35-2.23,0.81-3.42,0.87
		c-0.33,0.02-0.64-0.09-0.79-0.4c-0.42-0.85-0.81-1.71-1.21-2.56c-0.03-0.07-0.07-0.15-0.07-0.23
		C380.57,583.18,380.39,581.99,380.93,580.88z"/>
	<path class="st27" d="M231.47,532.05c-0.71,0.87-0.97,1.96-1.38,2.97c-1.68,4.17-3.03,8.45-4.36,12.74
		c-0.82,2.63-1.58,5.28-2.18,7.96c-0.67,2.99-1.32,5.98-1.91,8.99c-0.08,0.38-0.1,0.78-0.11,1.17c-0.02,0.47,0.01,0.95-0.02,1.42
		c-0.12,2.23,0.14,4.4,0.85,6.52c0.1,0.29,0.09,0.62,0.13,0.93c0.25,0.27,0.14,0.71,0.44,0.97c0.02,0.15,0.03,0.31,0.04,0.46
		c-0.05,0.98-0.62,0.59-1,0.32c-0.63-0.43-0.94-1.16-1.42-1.73l0,0c-0.26-0.27-0.18-0.68-0.4-0.96c-0.59-0.97-0.75-2.08-0.92-3.15
		c-0.41-2.5-0.43-5.03,0.07-7.52c2.32-11.69,5.8-23.03,10.55-33.97c0.22-0.5,0.47-0.99,0.72-1.49c0.03-0.06,0.16-0.12,0.19-0.1
		c0.1,0.06,0.25,0.15,0.27,0.25C231.31,529.23,231.6,530.62,231.47,532.05z"/>
	<path class="st28" d="M367.22,506.41c-0.02-0.71-0.04-1.42-0.08-2.12c-0.01-0.27-0.36-0.57-0.64-0.6c-0.23-0.03-0.47-0.06-0.7-0.07
		c-0.79-0.01-1.58-0.01-2.37-0.01c-41.7,0-83.4,0-125.1,0c-0.71,0-1.42-0.04-2.13-0.06c0.29-0.11,0.57-0.3,0.87-0.32
		c0.71-0.06,1.42-0.05,2.13-0.05c42,0,84.01,0,126.01,0c4.9,0,9.81,0.02,14.71,0.03c0.47,0,0.95-0.03,1.42,0.02
		c1.91,0.17,3.51,0.88,4.46,2.67c-0.18,0.28-0.42,0.49-0.75,0.51c-0.71,0.04-1.42,0.05-2.13,0.05c-5.05,0.01-10.1,0.01-15.15,0.01
		C367.58,506.62,367.39,506.6,367.22,506.41z"/>
	<path class="st29" d="M363.49,488.81c0.88,0.98,1.8,1.94,2.65,2.95c1.89,2.27,3.79,4.55,5.43,7.01c0.11,0.72-0.4,0.75-0.87,0.74
		c-7.04-0.02-14.07,0.09-21.11-0.06c-0.17,0-0.29-0.13-0.38-0.37c0.1-1.04,1.06-1.41,1.83-1.87c3.55-2.11,6.91-4.46,9.78-7.45
		C361.51,489.05,362.27,488.22,363.49,488.81z"/>
	<path class="st25" d="M387.11,532.94c0.1,1.19,0.39,2.32,0.79,3.44c1.81,5.05,3.08,10.26,4.34,15.47c0.41,1.68,0.65,3.4,1.03,5.09
		c0.12,0.53,0.07,1.1,0.1,1.65c-0.3-0.24-0.64-0.46-0.9-0.74c-1.55-1.6-3.37-2.81-5.35-3.8c-0.63-0.32-1.27-0.61-1.9-0.93
		c-0.58-0.29-0.7-0.53-0.63-1.11c0.25-2.02,0.48-4.05,0.75-6.07c0.25-1.87,0.62-3.72,0.77-5.59c0.17-2.11,0.7-4.18,0.68-6.32
		C386.77,533.64,386.87,533.27,387.11,532.94z"/>
	<path class="st26" d="M368.25,429.59c-0.15-1.09-0.08-2.18,0.15-3.25c0.17-0.77,0.21-1.54,0.21-2.32c0-1.79,0-3.59,0.01-5.38
		c-0.94-1.17-0.57-2.56-0.63-3.87c-0.06-1.17,0.09-2.36-0.29-3.51c-0.27-1.47-0.28-2.97-0.53-4.44c-0.42-2.57-0.36-2.49-2.8-1.89
		c-4.13,1.02-8.24,1.03-12.21-0.8c-0.22-0.2-0.25-0.43-0.11-0.69c1.02-0.59,2.08-1.12,2.97-1.93c0.39-0.36,0.81-0.39,1.31-0.23
		c2.36,0.76,4.79,0.86,7.25,0.78c1.43-0.05,2.81-0.36,4.18-0.74c0.38-0.1,0.76-0.21,1.14-0.3c0.25-0.06,0.63,0.24,0.66,0.53
		c0.17,1.8,0.39,3.61,0.48,5.42c0.15,3.07,0.28,6.15,0.31,9.22c0.02,2.21-0.12,4.41-0.21,6.62c-0.02,0.47-0.11,0.94-0.23,1.4
		c-0.41,1.6-0.85,3.2-1.29,4.79C368.55,429.21,368.37,429.4,368.25,429.59z"/>
	<path class="st30" d="M347.39,471.39c-0.05-1.62-1.15-2.53-2.34-3.32c-1.12-0.74-2.39-0.74-3.64-0.42c-0.76,0.19-1.5,0.49-2.2,0.83
		c-1.14,0.55-2.31,0.97-3.5,1.39c-3.11,1.09-6.26,2.05-9.46,2.87c-0.55,0.14-0.73,0.53-0.85,1c-0.58-0.61-0.55-1.45-0.8-2.18
		c-0.06-0.18,0.12-0.55,0.28-0.6c0.6-0.19,1.19-0.4,1.81-0.54c5.96-1.31,11.65-3.39,17.13-6.04c1.14-0.55,2.24-1.16,3.36-1.74
		c0.21-0.11,0.52,0,0.61,0.18c0.04,0.07,0.09,0.13,0.11,0.21c0.55,1.49,0.86,3.03,0.81,4.62c-0.01,0.24,0,0.49-0.08,0.7
		C348.26,469.38,348.09,470.5,347.39,471.39z"/>
	<path class="st25" d="M224.31,578.58c0.2-0.29,0.51-0.48,0.79-0.28c1.24,0.86,2.59,1.51,3.95,2.13c1.8,0.82,3.7,1.32,5.68,1.48
		c0.62,0.05,1.24,0.2,1.85,0.31c0.66,0.12,1-0.17,1.05-0.9c0.03-0.47,0.06-0.94,0.1-1.41c0.11,0.29,0.31,0.57,0.33,0.86
		c0.08,1.09,0.13,2.19,0.14,3.28c0,0.3-0.11,0.61-0.23,0.9c-0.27,0.65-0.58,1.28-0.86,1.93c-0.25,0.57-0.51,0.8-1.32,0.62
		c-0.91-0.21-1.83-0.42-2.71-0.73c-1.32-0.47-2.62-1.02-3.92-1.56c-0.42-0.18-0.85-0.41-1.1-0.84c-0.1-0.99-1.16-1.12-1.6-1.81
		c-0.8-0.72-1.42-1.58-1.94-2.51c-0.16-0.28-0.29-0.57-0.37-0.88C224.12,578.95,224.17,578.76,224.31,578.58z"/>
	<path class="st31" d="M363.49,488.81c-0.49,0.05-0.91,0.22-1.26,0.58c-0.72,0.73-1.47,1.44-2.18,2.18
		c-1.32,1.38-2.87,2.47-4.4,3.58c-1.86,1.35-3.89,2.42-5.81,3.65c-0.15,0.09-0.19,0.23-0.1,0.4c0.03,0.05,0.13,0.08,0.2,0.08
		c0.31,0.02,0.63,0.04,0.95,0.04c6.17,0,12.34,0,18.51,0c0.47,0,0.95-0.01,1.42-0.05c0.33-0.03,0.57-0.24,0.77-0.5
		c0.1,0.11,0.23,0.21,0.3,0.34c0.1,0.18-0.05,0.58-0.19,0.6c-0.16,0.03-0.31,0.08-0.46,0.08c-8.69-0.01-17.38,0.13-26.06-0.1
		c-0.2-0.01-0.3-0.09-0.26-0.3c0.01-0.07,0.04-0.16,0.09-0.19c0.19-0.13,0.39-0.26,0.59-0.37c1.74-0.94,3.52-1.8,5.2-2.81
		c3.88-2.34,7.43-5.08,10.26-8.66c0.05-0.06,0.12-0.1,0.18-0.16c0.16-0.16,0.5-0.2,0.66-0.09
		C362.5,487.61,363.1,488.11,363.49,488.81z"/>
	<path class="st31" d="M258.1,487.86c0.27,0.28,0.54,0.56,0.8,0.85c0.48,0.52,0.93,1.08,1.45,1.56c3.34,3.05,6.97,5.68,11.05,7.67
		c0.85,0.41,1.68,0.87,2.52,1.3c0.18,0.09,0.24,0.21,0.14,0.39c-0.03,0.05-0.12,0.08-0.18,0.08c-1.74,0.04-3.47,0.11-5.21,0.11
		c-5.76,0.01-11.53,0.01-17.29,0c-0.63,0-1.26-0.07-1.89-0.1c-0.03-0.13-0.05-0.25-0.08-0.37c0.14-0.21,0.33-0.37,0.57-0.48
		c5.88-0.57,11.77-0.1,17.35-0.25c-3.63-2.21-7.72-4.39-10.46-8.28c-0.07-0.22-0.1-0.46-0.09-0.69c0.04-0.22,0.11-0.44,0.21-0.64
		c0.06-0.09,0.12-0.18,0.17-0.28C257.42,488.37,257.69,488.03,258.1,487.86z"/>
	<path class="st32" d="M293.23,474.19c-0.02-0.23-0.03-0.47-0.07-0.7c-0.05-0.33-0.21-0.6-0.54-0.7c-1.13-0.33-2.26-0.67-3.4-0.96
		c-2.59-0.66-5.12-1.52-7.6-2.51c-1.68-0.67-3.34-1.37-5.01-2.08c-0.51-0.21-1-0.46-1.48-0.73c-1.09-0.63-2.17-1.28-3.25-1.92
		c-0.15-0.14-0.23-0.32-0.21-0.53c0.11-0.41,0.27-0.77,0.71-0.92c0.57,0.26,1.15,0.5,1.71,0.78c5.56,2.85,11.4,4.95,17.47,6.41
		c0.69,0.17,1.37,0.35,2.06,0.53c0.3,0.08,0.57,0.44,0.51,0.7C293.94,472.47,293.87,473.43,293.23,474.19z"/>
	<path class="st33" d="M239.57,564.81c0.62,0.31,1.24,0.62,1.86,0.93c0.6,0.53-0.04,1.35,0.44,1.91c0.09,0.62,0.18,1.24,0.27,1.86
		c0.09,0.62,0.17,1.24,0.26,1.85c0.09,0.7,0.18,1.39,0.27,2.09c0.07,0.54,0.16,1.08,0.2,1.63c0.06,0.78,0.06,1.56,0.31,2.32
		c0.07,0.22,0.11,0.46,0.12,0.69c0.04,1.02,0.14,2.03,0.39,3.02c0.07,0.29-0.19,0.62-0.49,0.69c-0.57,0.13-1.09,0.13-1.39-0.51
		c-0.06-0.14-0.2-0.24-0.3-0.36c-0.46-3.42-0.91-6.85-1.37-10.27c-0.19-1.4-0.38-2.8-0.53-4.21
		C239.56,565.91,239.58,565.35,239.57,564.81z"/>
	<path class="st32" d="M281.85,485.47c-0.23-0.02-0.5,0.02-0.69-0.07c-1.99-0.93-3.99-1.82-5.82-3.07
		c-1.82-1.25-3.55-2.59-4.99-4.26c-1.02-1.18-2.01-2.4-2.74-3.81c-0.28-0.55-0.46-1.18-1.03-1.54c-0.14-0.13-0.19-0.28-0.16-0.47
		c0.09-0.26,0.26-0.46,0.47-0.63c0.14-0.1,0.29-0.19,0.45-0.25c0.24-0.1,0.49-0.14,0.75-0.13c1.07,1.66,2.06,3.36,3.33,4.88
		c2.44,2.92,5.14,5.57,8.41,7.57c0.77,0.19,1.45,0.55,1.97,1.17C281.93,485.06,281.95,485.26,281.85,485.47z"/>
	<path class="st34" d="M247.17,498.86c2.47-3.52,5.1-6.9,8.1-9.99c0.12-0.18,0.26-0.32,0.44-0.44l0.03-0.03
		c0.34-0.28,0.67-0.57,0.91-0.95l0.01-0.01c0.31-0.29,0.63-0.27,0.95-0.02l0,0c0.29,0.48,0.34,0.94-0.05,1.4l-0.02,0.02
		c-0.13,0.18-0.27,0.34-0.43,0.48l0.03,0.03c-1.78,3.9-4.67,6.94-7.6,9.96l0,0C248.67,499.48,247.76,500.04,247.17,498.86z"/>
	<path class="st35" d="M352.05,403.44c0.01,0.18,0.02,0.35,0.03,0.53c-0.11,1.68-1.53,2.28-2.6,3.18c-4-0.53-7.97-1.29-12.03-1.23
		c-0.51-0.18-1.09-0.29-1.05-1.03c3.2-0.42,6.41-0.68,9.57-1.38c0.7-0.15,1.41-0.24,2.11-0.02c1.18,0.36,2.33,0.26,3.49-0.03
		C351.72,403.42,351.89,403.45,352.05,403.44z"/>
	<path class="st31" d="M350.19,477.49c-0.18-0.44-0.38-0.86-0.54-1.31c-0.21-0.6-0.42-1.19-0.95-1.6c0.76-1.29,1.51-2.58,2.27-3.87
		c0.15-0.25,0.58-0.36,0.84-0.2c0.81,0.48,1.63,0.96,2.42,1.48c0.6,0.4,0.66,0.84,0.16,1.37c-1.19,1.27-2.4,2.52-3.61,3.76
		C350.63,477.29,350.39,477.37,350.19,477.49z"/>
	<path class="st36" d="M351.68,465.93c-0.04-0.39-0.07-0.78-0.11-1.17c-0.04-0.43,0.1-0.76,0.49-0.97c1.42-0.77,2.95-1.01,4.55-0.97
		c0.98,0.03,1.24,0.3,1.2,1.29c-0.03,0.63-0.08,1.25-0.13,1.88C355.67,467.27,353.67,467.29,351.68,465.93z"/>
	<path class="st37" d="M265.2,463.11c0.07,0.03,0.14,0.06,0.21,0.09c1.93,0.93,1.93,0.49,1.63,2.82c-2.42,1.33-4.47,1.16-6.05-0.51
		c-0.02-0.75-0.04-1.51-0.07-2.26C262.31,461.96,263.77,462.93,265.2,463.11z"/>
	<path class="st38" d="M260.99,465.51c0.27,0.28,0.53,0.6,0.95,0.61c1.7,0.03,3.4,0.14,5.1-0.1c0.06,0.51-0.11,0.93-0.53,1.21
		c-0.39,0.26-0.82,0.44-1.22,0.67c-0.94,0.54-1.87,1.1-2.81,1.64c-0.33,0.19-0.85-0.03-0.93-0.4c-0.07-0.3-0.14-0.61-0.15-0.91
		c-0.03-0.7-0.11-1.39-0.39-2.04C260.93,466,260.99,465.74,260.99,465.51z"/>
	<path class="st38" d="M351.68,465.93c0.15,0.04,0.3,0.1,0.45,0.12c1.85,0.15,3.7,0.21,5.55-0.06c0.08,1.2-0.44,2.3-0.58,3.46
		c-0.02,0.19-0.4,0.32-0.59,0.22c-0.41-0.22-0.84-0.43-1.23-0.68c-0.86-0.55-1.67-1.17-2.63-1.56
		C352.01,467.16,351.7,466.62,351.68,465.93z"/>
	<path class="st39" d="M277.94,394.41c0.8,0.28,1.6,0.58,2.42,0.84c0.42,0.13,0.75-0.09,1-0.42c0.26,0.27,0.52,0.54,0.77,0.82
		c0.2,0.22,0.38,0.46,0.56,0.7c0.53,0.75,1.05,1.51,1.58,2.26c0.03,0.49-0.11,0.78-0.67,0.61c-1.69-0.49-3.07-1.5-4.36-2.63
		C278.59,396,278.12,395.29,277.94,394.41z"/>
	<path class="st40" d="M224.82,579.53c0.66,0.93,1.32,1.87,1.98,2.8c0.09,0.47-0.09,0.66-0.57,0.54c-2.59-2.02-4.37-4.64-5.64-7.63
		c-0.06-0.13-0.02-0.31-0.03-0.46c0.79,0.3,1.18,1.08,1.85,1.53c0.21,0.14,0.41,0.05,0.57-0.13c0.26,0.2,0.38,0.48,0.46,0.78
		c0.16,0.6,0.36,1.19,0.87,1.61c0.05,0.13,0.08,0.27,0.1,0.4C224.51,579.2,224.65,579.37,224.82,579.53z"/>
	<path class="st41" d="M217.18,404.17c0.02,1.46,0.05,2.93,0.07,4.39c0.01,0.4,0.15,0.75,0.46,1.02c-0.01,1.42-0.03,2.84-0.04,4.27
		c-0.43,2.03-0.06,4.09-0.22,6.13c-0.04,0.52,0.44,1.36-0.64,1.45c-0.06-1.9-0.19-3.79-0.18-5.69c0.02-3.16,0.11-6.33,0.2-9.49
		C216.85,405.55,216.8,404.82,217.18,404.17z"/>
	<path class="st42" d="M216.81,421.43c0.3-0.29,0.41-0.66,0.41-1.07c0.01-1.5,0.01-3,0.03-4.49c0-0.47,0.01-0.95,0.08-1.41
		c0.03-0.21,0.22-0.41,0.33-0.61c0.02,1.03,0.04,2.05,0.05,3.08c0.02,3.56,0.03,7.11,0.04,10.67c0.21,0.49,0.4,0.96-0.45,0.95
		c-0.18-1.84-0.38-3.67-0.54-5.51C216.72,422.5,216.8,421.96,216.81,421.43z"/>
	<path class="st43" d="M271.86,464.22c0.01,0.12,0.01,0.24,0.02,0.36c-0.02,0.34-0.04,0.67-0.06,1.01
		c-0.29,0.25-0.18,0.68-0.43,0.94c-0.02,0.82-0.04,1.63-0.07,2.45c-0.02,0.39-0.2,0.7-0.49,0.96c0,0,0-0.01,0-0.01
		c-0.1-0.19-0.21-0.37-0.33-0.54c-0.52-1-0.6-2.06-0.4-3.16c0.1-0.53,0.22-1.06,0.34-1.59c0.27-0.33,0.23-0.75,0.36-1.12
		c-0.04-0.12-0.02-0.22,0.08-0.3c0.18-0.17,0.23-0.47,0.5-0.56c0.15,0.04,0.29,0.09,0.44,0.13
		C272.17,463.25,272.12,463.73,271.86,464.22z"/>
	<path class="st44" d="M355.29,312.83c0.2-0.21,0.39-0.42,0.59-0.63c0.15,0.03,0.32,0.03,0.45,0.11c2.13,1.31,4.27,2.6,6.15,4.26
		c0.1,0.41,0.04,0.64-0.45,0.43c-1.78-1.12-3.55-2.25-5.43-3.21C356.1,313.55,355.61,313.3,355.29,312.83z"/>
	<path class="st45" d="M265.2,463.11c-0.83-0.01-1.66-0.03-2.48-0.01c-0.6,0.02-1.2,0.1-1.79,0.15c0-0.55-0.02-1.1,0-1.65
		c0.02-0.46,0.47-0.72,0.81-0.46C262.81,461.95,264.14,462.29,265.2,463.11z"/>
	<path class="st46" d="M336.41,404.88c0.25,0.35,0.64,0.39,1.01,0.48c-0.8,1.46-1.83,1.21-2.93,0.4c-0.27-0.3-0.62-0.43-1.02-0.43
		c-1.15-0.01-2.3,0-3.45-0.01c-0.61,0-1.23,0.01-1.84-0.06c-0.28-0.03-0.54-0.25-0.81-0.38c0.46-0.02,0.92-0.05,1.39-0.06
		c2.09-0.01,4.18-0.01,6.27,0C335.48,404.83,335.94,404.86,336.41,404.88z"/>
	<path class="st47" d="M267.52,471.67c-0.12,0.06-0.25,0.11-0.39,0.13c-0.21,0.12-0.38,0.28-0.5,0.49
		c-0.02,0.14-0.04,0.28-0.06,0.43c-0.4,0.02-0.74,0.16-1.06,0.41c-0.24,0.19-0.51,0.34-0.77,0.51c-0.22-0.22-0.46-0.42-0.64-0.66
		c-0.13-0.18-0.2-0.44,0.01-0.64c0.45-0.44,0.92-0.86,1.54-1.06c0.25-0.28,0.71-0.17,0.94-0.49l-0.01,0
		C267.43,470.51,267.98,470.54,267.52,471.67z"/>
	<path class="st48" d="M217.3,428.55c0.34-0.23,0.39-0.59,0.45-0.95c0.12,0.2,0.34,0.4,0.34,0.6c0.04,1.33,0.06,2.67,0.04,4
		c0,0.2-0.22,0.4-0.34,0.6c-0.15-0.97-0.32-1.93-0.45-2.9C217.29,429.45,217.31,429,217.3,428.55z"/>
	<path class="st49" d="M312.13,385.9c-0.13-0.28-0.36-0.55-0.37-0.84c-0.04-1.4-0.02-2.8-0.02-4.21c0-0.06,0.06-0.11,0.1-0.17
		c0.09,0.11,0.24,0.2,0.27,0.33c0.15,0.6,0.28,1.21,0.39,1.82c0.06,0.38,0.06,0.77,0.09,1.16c-0.24,0.21-0.38,0.45-0.4,0.78
		C312.18,385.14,312.15,385.52,312.13,385.9z"/>
	<path class="st50" d="M341.05,482.18c-0.76,0.85-1.68,1.48-2.71,1.97c-0.53,0.18-0.65-0.07-0.55-0.53
		c0.74-0.69,1.42-1.47,2.32-1.97C340.31,482.04,340.65,482.16,341.05,482.18z"/>
	<path class="st51" d="M269.48,332.69c0.13,0.18,0.38,0.38,0.36,0.55c-0.07,0.6-0.25,1.19-0.35,1.79c-0.09,0.52-0.12,1.06-0.21,1.58
		c-0.02,0.14-0.16,0.25-0.25,0.38c-0.6-0.33-0.09-1.03-0.48-1.43C268.68,334.54,269.04,333.6,269.48,332.69z"/>
	<path class="st49" d="M348.67,384.96c-0.12-0.2-0.31-0.39-0.34-0.6c-0.14-0.92-0.24-1.85-0.34-2.77c-0.01-0.06,0.09-0.18,0.13-0.18
		c0.14,0.01,0.36,0.03,0.39,0.1c0.29,0.8,0.56,1.61,0.66,2.47C348.79,384.19,348.74,384.58,348.67,384.96z"/>
	<path class="st52" d="M260.46,482.19c-0.25,0.48-0.48,0.96-0.49,1.52c-0.01,0.32-0.14,0.59-0.37,0.82
		c-0.77-0.63-0.79-1.44-0.55-2.31c0.46-0.35,0.93-0.31,1.4-0.03L260.46,482.19z"/>
	<path class="st53" d="M366.99,320.3c-0.48,0.02-0.93-0.04-1.31-0.37c-0.59-0.5-1.18-0.99-1.78-1.48c0.09-0.22,0.24-0.37,0.46-0.45
		C365.4,318.59,366.22,319.41,366.99,320.3z"/>
	<path class="st54" d="M226.22,582.87c0.19-0.18,0.38-0.36,0.57-0.54c0.61,0.38,1.1,0.89,1.5,1.47c0.16,0.23-0.04,0.42-0.23,0.56
		C227.37,583.97,226.65,583.6,226.22,582.87z"/>
	<path class="st55" d="M281.77,485.08c-0.69-0.4-1.48-0.67-1.94-1.38c0.18-0.18,0.36-0.35,0.54-0.53c0.78,0.29,1.28,0.94,1.89,1.43
		C282.36,485.03,282.27,485.27,281.77,485.08z"/>
	<path class="st56" d="M268.56,335.56c0.53,0.35,0.39,0.93,0.48,1.43c-0.02,0.3-0.05,0.6-0.07,0.9c-0.02,0.39-0.14,0.73-0.42,1.01
		c-0.09-0.5,0.04-1.07-0.45-1.44C267.97,336.75,268.44,336.2,268.56,335.56z"/>
	<path class="st57" d="M364.37,318.01c-0.15,0.15-0.31,0.3-0.46,0.45c-0.64-0.47-1.35-0.84-1.89-1.44c0.15-0.14,0.3-0.29,0.45-0.43
		C363.24,316.87,363.78,317.47,364.37,318.01z"/>
	<path class="st58" d="M269.46,330.31c0.2-0.59,0.5-1.1,0.95-1.53c0.05-0.05,0.18-0.08,0.21-0.06c0.1,0.09,0.24,0.21,0.23,0.31
		c-0.06,0.7-0.33,1.31-0.83,1.81C269.83,330.67,269.64,330.49,269.46,330.31z"/>
	<path class="st59" d="M361.96,337.96c-0.73-0.47-1.07-1.25-1.52-1.95c0.21-0.22,0.44-0.24,0.69-0.07c0.57,0.38,1.09,0.8,1.42,1.43
		C362.35,337.57,362.16,337.77,361.96,337.96z"/>
	<path class="st60" d="M247.17,498.86c0.24,0.34,0.59,0.45,0.99,0.45c0.46,0,0.91,0,1.37,0c0,0.14-0.01,0.27-0.03,0.4
		c-0.67,0.03-1.35,0.07-2.02,0.08c-0.39,0.01-0.74-0.2-0.67-0.4C246.85,499.2,247.04,499.04,247.17,498.86z"/>
	<path class="st61" d="M253.31,372.06c0.15,0.17,0.4,0.32,0.43,0.5c0.11,0.68,0.18,1.38-0.38,1.94c-0.07-0.38-0.12-0.77-0.51-0.99
		C252.8,372.97,253.13,372.54,253.31,372.06z"/>
	<path class="st62" d="M267.52,471.67c-0.01-0.62-0.41-0.81-0.94-0.87c0.1-0.1,0.19-0.24,0.31-0.3c0.51-0.26,0.81-0.17,1.08,0.33
		c0.07,0.12,0.07,0.28,0.11,0.43C267.89,471.39,267.7,471.53,267.52,471.67z"/>
	<path class="st63" d="M283.6,399.21c0.22-0.2,0.45-0.41,0.67-0.61c0.16,0.13,0.34,0.25,0.47,0.41c0.24,0.28,0.11,0.5-0.15,0.68
		C284.21,399.63,283.84,399.56,283.6,399.21z"/>
	<path class="st64" d="M388.5,528.29c-0.27,0-0.54-0.01-0.8-0.01c0.01-0.28,0.01-0.57,0.03-0.85c0-0.06,0.07-0.14,0.12-0.15
		c0.06-0.01,0.16,0.01,0.2,0.06C388.3,527.6,388.53,527.89,388.5,528.29z"/>
	<path class="st65" d="M235.32,591.41c-0.05-0.14-0.07-0.29-0.07-0.44c0.39,0.01,0.78,0.01,1.16,0.05c0.09,0.01,0.16,0.16,0.23,0.24
		c-0.06,0.05-0.11,0.12-0.18,0.14C236.09,591.53,235.7,591.59,235.32,591.41z"/>
	<path class="st66" d="M383.4,590.97c-0.02,0.12-0.02,0.24-0.01,0.36c-0.22,0.01-0.44,0.05-0.65,0.02c-0.13-0.02-0.25-0.13-0.37-0.2
		c0.13-0.07,0.25-0.17,0.39-0.19C382.96,590.94,383.19,590.97,383.4,590.97z"/>
	<path class="st67" d="M257.55,488.81c0.02-0.47,0.03-0.93,0.05-1.4c0.27,0.04,0.4,0.22,0.5,0.44
		C258.04,488.25,257.99,488.64,257.55,488.81z"/>
	<path class="st67" d="M256.64,487.45c0,0.61-0.3,0.93-0.91,0.95C255.88,487.94,256.17,487.61,256.64,487.45z"/>
	<path class="st19" d="M260.45,482.19c-0.47,0.01-0.93,0.02-1.4,0.03c0-0.27,0.15-0.42,0.4-0.45
		C259.84,481.73,260.2,481.83,260.45,482.19z"/>
	<path class="st68" d="M271.86,464.22c-0.02-0.48-0.03-0.95-0.05-1.43c0.27-0.02,0.45,0.12,0.57,0.34
		C272.3,463.54,272.21,463.94,271.86,464.22z"/>
	<path class="st68" d="M270.79,463.53c0.09,0.44,0.02,0.83-0.36,1.12C270.37,464.21,270.45,463.83,270.79,463.53z"/>
	<path class="st40" d="M220.15,573.83c0.36,0.22,0.47,0.56,0.4,0.96C220.2,574.56,220.09,574.23,220.15,573.83z"/>
	<path class="st22" d="M297.48,472.27c0.08,0.42-0.11,0.71-0.45,0.93C296.95,472.78,297.05,472.45,297.48,472.27z"/>
	<path class="st62" d="M266.59,470.79c-0.19,0.39-0.53,0.51-0.94,0.49C265.88,470.97,266.18,470.78,266.59,470.79z"/>
	<path class="st67" d="M257.6,487.42c-0.32,0.01-0.63,0.01-0.95,0.02C257.05,486.8,257.23,486.79,257.6,487.42z"/>
	<path class="st68" d="M271.38,462.66c-0.17,0.19-0.33,0.37-0.5,0.56c0.04-0.2,0.05-0.43,0.14-0.61
		C271.11,462.46,271.27,462.5,271.38,462.66z"/>
	<path class="st31" d="M348.7,474.59c-0.05,0.26-0.22,0.41-0.46,0.49C348.27,474.8,348.41,474.63,348.7,474.59z"/>
	<path class="st19" d="M270.49,469.39c0.22,0.11,0.35,0.28,0.33,0.54C270.55,469.85,270.46,469.66,270.49,469.39z"/>
	<path class="st67" d="M255.7,488.43c-0.04,0.25-0.19,0.4-0.44,0.44C255.28,488.6,255.43,488.45,255.7,488.43z"/>
	<path class="st31" d="M349.75,478.04c0.02-0.28,0.16-0.46,0.43-0.54C350.18,477.78,350.02,477.96,349.75,478.04z"/>
	<path class="st69" d="M361.13,335.95c-0.23,0.02-0.46,0.04-0.69,0.07c-0.16-0.16-0.33-0.31-0.48-0.48
		c-0.04-0.05-0.06-0.2-0.03-0.21c0.11-0.06,0.27-0.16,0.37-0.13C360.68,335.32,360.94,335.6,361.13,335.95z"/>
	<path class="st70" d="M241.87,567.65c-0.31-0.26-0.42-0.61-0.42-1c0-0.3-0.01-0.6-0.02-0.91c0.02-1.26,0.13-2.53-0.35-3.75
		c-0.11-0.28-0.09-0.62-0.1-0.94c-0.02-0.95,0.01-1.9-0.37-2.8c-0.06-0.14-0.07-0.31-0.08-0.47c-0.04-1.26-0.02-2.53-0.46-3.75
		c-0.1-0.28-0.02-0.63-0.06-0.94c-0.07-0.55-0.17-1.09-0.24-1.63c-0.08-0.54-0.18-1.09-0.21-1.64c-0.04-0.79-0.03-1.57-0.31-2.34
		c-0.13-0.36-0.15-0.77-0.16-1.17c-0.03-0.95-0.03-1.89-0.37-2.8c-0.13-0.36-0.11-0.78-0.12-1.17c-0.02-0.87,0-1.74-0.36-2.57
		c-0.03-0.07-0.05-0.15-0.05-0.23c-0.03-1.5-0.27-2.97-0.51-4.45c-0.14-0.85-0.11-1.72-0.4-2.56c-0.1-0.29-0.09-0.62-0.1-0.94
		c-0.02-0.95-0.02-1.89-0.37-2.8c-0.13-0.36-0.1-0.78-0.11-1.17c-0.02-0.87,0-1.74-0.36-2.56c-0.03-0.07-0.05-0.15-0.05-0.23
		c-0.02-1.5-0.28-2.97-0.51-4.45c-0.13-0.85-0.14-1.72-0.4-2.56c-0.14-0.44-0.08-0.94-0.11-1.41c-0.03-0.47,0.08-1.02-0.11-1.41
		c-0.69-1.38,0.03-2.63,0.23-3.93c0.05-0.3,0.2-0.61,0.38-0.86c1.02-1.43,2.15-2.75,3.91-3.28c0.75-0.23,1.48-0.51,2.3-0.5
		c3.64,0.03,7.27,0.01,10.91,0.01c0.58,0,1.09,0.1,1.44,0.63c0.26,0.41,0.67,0.66,1.09,0.89c1.89,1.04,3.87,1.77,6.06,1.8
		c0.24,0,0.49,0,0.71,0.07c2.17,0.69,4.39,0.3,6.59,0.36c0.38,0.01,0.77-0.14,1.16-0.21c0.46-0.08,0.93-0.2,1.4-0.21
		c2.19-0.06,4.16-0.8,6.05-1.85c0.43-0.24,0.78-0.53,1.06-0.92c0.31-0.44,0.75-0.54,1.24-0.55c0.71,0,1.42-0.01,2.13-0.01
		c27.44,0,54.87,0,82.31,0c1.03,0,2.06-0.01,3.08-0.02c0.19,0.02,0.37,0.03,0.56,0.05c-0.11,1.5-0.16,2.99,0.21,4.47
		c0.13,0.53,0.15,1.09,0.15,1.64c0.02,2.05-0.03,4.11,0.02,6.16c0.03,1.13-0.4,2.17-0.43,3.28c-0.04,1.1-0.12,2.19-0.35,3.28
		c-0.36,1.69-0.63,3.41-1.07,5.08c-0.73,2.83-1.62,5.61-2.84,8.27c-0.46,1-0.85,2.04-1.34,3.03c-1.23,2.48-2.73,4.8-4.3,7.07
		c-1.35,1.95-2.8,3.81-4.48,5.5c-0.95,0.95-1.89,1.91-2.84,2.86c-3.04,3.01-6.37,5.64-10.05,7.84c-2.03,1.21-4.04,2.47-6.17,3.5
		c-3.84,1.85-7.78,3.44-11.9,4.61c-2.73,0.78-5.49,1.42-8.25,2.06c-1.5,0.04-2.93,0.6-4.44,0.62c-0.47,0.01-0.93,0.15-1.4,0.22
		c-0.47,0.07-0.93,0.17-1.4,0.2c-1.34,0.07-2.67,0.09-4,0.39c-0.91,0.21-1.89,0.09-2.83,0.12c-1.57,0.05-3.16-0.07-4.71,0.35
		c-0.45,0.12-0.94,0.06-1.42,0.06c-1.42,0.01-2.84,0-4.27,0c-0.79,0-1.57-0.03-2.35-0.21c-0.61-0.14-1.25-0.15-1.88-0.17
		c-1.18-0.04-2.37-0.04-3.55-0.06c-0.71-0.01-1.42-0.02-2.11-0.25c-0.22-0.07-0.46-0.15-0.69-0.14c-1.83,0.1-3.6-0.42-5.4-0.57
		c-0.78-0.07-1.55-0.28-2.32-0.42c-2.17-0.38-4.34-0.76-6.48-1.28c-5.83-1.41-6.98-1.67-11.81-3.37c-2.45-0.86-4.92-1.71-7.25-2.89
		c-0.77-0.39-1.61-0.66-2.39-1.02C242.41,566.24,241.89,566.11,241.87,567.65z"/>
	<path class="st1" d="M334.48,405.76c1,0.04,2,0.1,2.93-0.4c0.7,0,1.4,0.01,2.11,0c3.38-0.05,6.7,0.33,9.93,1.33
		c0.21,0.07,0.46,0.01,0.69,0.01c0.74-0.58,1.53-0.29,2.24-0.01c3.74,1.46,7.56,2.68,11.39,3.87c1.65,0.51,3.54,1.02,4.34,2.93
		c-0.29,1.66,0.87,3.36-0.09,5.01c-0.46,0.46-1.07,0.66-1.65,0.9c-1.18,0.49-2.24,1.16-3.29,1.87c-0.64,0.43-0.99,0.95-1,1.75
		c-0.01,1.99-0.38,3.93-0.98,5.82c-1.42,4.5-4.17,7.93-8.22,10.33c-2.62,1.56-5.47,2.45-8.43,3.06c-2.8,0.58-5.65,0.7-8.5,0.57
		c-2.07-0.1-4.07-0.54-6.01-1.25c-3.7-1.35-6.56-3.75-8.66-7.06c-1.41-2.23-2.34-4.66-2.94-7.21c-0.72-3.1-1.03-6.24-0.94-9.42
		c0.04-1.54,0.15-1.59-1.45-2.31c-1.67-0.76-3.42-1.17-5.27-1.28c-2.88-0.16-5.67,0.28-8.42,1.11c-0.15,0.05-0.29,0.13-0.43,0.19
		c-0.27,0.12-0.49,0.46-0.46,0.75c0.03,0.31,0.08,0.63,0.11,0.94c0.4,3.84-0.02,7.6-1.29,11.22c-2.29,6.56-6.99,10.55-13.62,12.37
		c-1.53,0.42-3.11,0.57-4.69,0.62c-4.31,0.14-8.52-0.4-12.56-1.97c-1.03-0.4-2.04-0.87-3-1.4c-4.44-2.46-7.31-6.19-8.73-11.05
		c-0.49-1.67-0.78-3.39-0.89-5.13c-0.05-0.71-0.38-1.16-0.94-1.53c-1.12-0.75-2.27-1.44-3.54-1.91c-0.51-0.19-1.05-0.37-1.4-0.84
		c0.04-0.99,0.1-1.98,0.12-2.97c0.01-0.61-0.03-1.22-0.04-1.82c0.19-0.56,0.59-0.94,1.1-1.17c1.07-0.5,2.15-0.98,3.24-1.43
		c0.58-0.24,1.18-0.46,1.78-0.62c2.52-0.68,4.95-1.6,7.36-2.58c3.45-1.42,7.03-2.31,10.73-2.78c0.39,0.02,0.78,0.06,1.16,0.06
		c2.19,0.01,4.38-0.07,6.56,0.03c2.19,0.1,4.31,0.7,6.41,1.3c0.67,0.19,1.25,0.68,2,0.59c2.05-0.18,3.65,0.94,5.24,1.92
		c1.81,1.12,3.58,1.35,5.64,0.84c5.56-1.38,11.08-1.41,16.47,0.83c1.45,0.6,2.75,0.23,4.06-0.51c1.28-0.72,2.49-1.77,4.15-1.31
		c1.63-0.55,3.22-1.24,4.9-1.63C332.65,406.21,333.56,405.99,334.48,405.76z"/>
	<path class="st71" d="M309.34,452.61c-1.56-0.11-3.12-0.24-4.61-0.83c-1.41-0.57-2.65-1.38-3.61-2.58
		c-1.02-1.28-1.53-2.74-1.53-4.37c0-0.22,0.11-0.45,0.19-0.67c0.09-0.28,0.61-0.4,0.78-0.19c0.15,0.18,0.33,0.35,0.43,0.55
		c1.26,2.69,3.52,3.95,6.34,4.32c1.88,0.25,3.76,0.22,5.63-0.26c2.01-0.52,3.57-1.59,4.63-3.38c0.2-0.33,0.41-0.67,0.65-0.97
		c0.07-0.08,0.3-0.11,0.42-0.06c0.12,0.05,0.26,0.2,0.28,0.33c0.15,1.04-0.01,2.04-0.42,3c-0.75,1.74-2.01,2.98-3.68,3.85
		C313.12,452.25,311.25,452.48,309.34,452.61z"/>
	<path class="st72" d="M368.04,418.51c-0.04-0.78-0.09-1.56-0.13-2.34c-0.06-0.93-0.12-1.87-0.18-2.8c0.2-0.79-0.43-1.75,0.5-2.39
		c0.37,0.36,0.43,0.82,0.43,1.3c-0.01,2.12-0.02,4.24-0.03,6.36C368.42,418.6,368.23,418.56,368.04,418.51z"/>
	<path class="st73" d="M281.77,485.08c0.16-0.16,0.33-0.32,0.49-0.48c0.48,0.31,0.95,0.62,1.43,0.94c0.1,0.43,0.01,0.67-0.5,0.5
		c-0.45-0.19-0.9-0.38-1.35-0.57C281.83,485.34,281.8,485.21,281.77,485.08z"/>
	<path class="st74" d="M283.19,486.04c0.17-0.17,0.33-0.33,0.5-0.5c0.31,0.09,0.55,0.26,0.68,0.56c0.08,0.17,0.02,0.3-0.18,0.35
		C283.77,486.54,283.46,486.34,283.19,486.04z"/>
	<path class="st68" d="M271.39,466.54c-0.01-0.39,0.08-0.73,0.43-0.94C271.81,465.97,271.73,466.31,271.39,466.54z"/>
	<path class="st75" d="M337.8,483.62c0.18,0.18,0.37,0.36,0.55,0.53c-0.37,0.47-0.9,0.71-1.43,0.96c-0.52,0.21-0.59-0.05-0.51-0.48
		C336.87,484.3,337.33,483.96,337.8,483.62z"/>
	<path class="st76" d="M336.41,484.64c0.17,0.16,0.34,0.32,0.51,0.48c-0.52,0.54-1.13,0.89-1.88,0.99c-0.06-0.07-0.12-0.13-0.18-0.2
		C335.24,485.31,335.77,484.91,336.41,484.64z"/>
	<path class="st77" d="M335.04,486.1c-0.11,0.21-0.27,0.35-0.52,0.29c-0.06-0.01-0.14-0.08-0.15-0.14c-0.01-0.05,0.05-0.14,0.1-0.17
		c0.12-0.07,0.26-0.12,0.4-0.17C334.92,485.97,334.98,486.03,335.04,486.1z"/>
	<path class="st40" d="M222.93,575.73c-0.36-0.22-0.46-0.57-0.44-0.97C222.83,574.99,222.93,575.34,222.93,575.73z"/>
	<path class="st78" d="M326.83,408.06c-1.57,0.72-3.12,1.48-4.6,2.39c-1.15,0.71-2.34,0.8-3.6,0.25c-0.79-0.35-1.59-0.69-2.42-0.93
		c-2.97-0.85-5.99-1.23-9.09-0.86c-1.95,0.24-3.89,0.5-5.78,1.08c-0.3,0.09-0.62,0.13-0.92,0.2c-0.89,0.2-1.72,0.05-2.5-0.39
		c-0.55-0.3-1.06-0.69-1.61-0.98c-1.32-0.69-2.66-1.35-3.99-2.02c-0.35-0.18-0.7-0.35-1.04-0.52c0.18-0.14,0.35-0.37,0.55-0.41
		c1.33-0.24,2.58-0.72,3.79-1.31c0.46-0.22,0.91-0.22,1.36,0.03c0.21,0.12,0.44,0.2,0.62,0.34c1.28,0.99,2.78,1.47,4.3,1.92
		c0.61,0.18,1.21,0.34,1.85,0.38c0.47,0.03,0.93,0.17,1.4,0.22c0.7,0.08,1.43,0.25,2.11,0.15c2.25-0.35,4.55-0.42,6.72-1.25
		c0.29-0.11,0.6-0.19,0.9-0.28c0.68-0.21,1.35-0.57,2.03-0.57c0.68,0,1.35,0.36,2.03,0.57c1.88,0.58,3.79,1.07,5.77,1.15
		C325.49,407.27,326.25,407.41,326.83,408.06z"/>
	<path class="st79" d="M368.22,410.98c-0.02,0.46-0.04,0.92-0.05,1.38c-0.01,0.4-0.11,0.75-0.45,1.01c-0.39-0.52-0.95-0.8-1.53-1.08
		c-2-0.96-4.1-1.6-6.23-2.2c-1.21-0.34-2.44-0.67-3.6-1.15c-2.04-0.84-4.13-1.56-6.22-2.24c-0.17-0.35-0.37-0.69,0.1-0.99
		c0.73-0.46,1.36-1.02,1.83-1.75c0.55-0.11,1.1-0.13,1.63,0.07c2.57,0.98,5.25,0.9,7.92,0.77c1.26-0.06,2.47-0.44,3.64-0.91
		c0.58-0.23,1.16-0.49,1.74-0.73c0.18-0.07,0.53,0.13,0.56,0.32c0.04,0.31,0.11,0.62,0.13,0.93c0.06,1.1,0.12,2.18,0.34,3.28
		C368.25,408.76,368.17,409.88,368.22,410.98z"/>
	<path class="st19" d="M224.82,579.53c-0.22-0.11-0.37-0.29-0.41-0.54C224.54,579.17,224.68,579.35,224.82,579.53z"/>
	<path class="st60" d="M249.53,499.31c0.59-1.47,1.71-2.59,2.65-3.81c1.47-1.9,3.03-3.73,4.47-5.67c0.13-0.18,0.32-0.32,0.49-0.49
		c0.02,0.49,0.2,0.9,0.54,1.27c1.34,1.46,2.89,2.67,4.48,3.84c1.71,1.26,3.42,2.52,5.36,3.44c0.55,0.26,1.1,0.58,1.46,1.12
		c0.09,0.15,0.1,0.21-0.04,0.23c-0.23,0.03-0.47,0.08-0.7,0.08C261.99,499.32,255.76,499.31,249.53,499.31z"/>
	<path class="st67" d="M257.1,489.32c0.15-0.16,0.29-0.32,0.44-0.48C257.5,489.1,257.35,489.25,257.1,489.32z"/>
	<path class="st62" d="M266.63,472.29c0.07-0.26,0.24-0.42,0.5-0.49C266.96,471.96,266.8,472.13,266.63,472.29z"/>
	<path class="st80" d="M309.85,566.72c-0.69,0-0.93-0.01-1.16,0c-2.75,0.08-5.32-0.6-7.75-1.83c-0.98-0.5-1.99-0.98-2.89-1.61
		c-3.72-2.6-6.53-5.92-7.94-10.31c-0.36-1.13-0.67-2.25-0.79-3.45c-0.11-1.09-0.45-2.15-0.38-3.28c0.04-0.63,0-1.26,0.23-1.87
		c0.08-0.22,0.15-0.46,0.17-0.69c0.18-3.01,1.5-5.61,2.88-8.19c0.19-0.34,0.43-0.66,0.67-0.97c0.25-0.31,0.59-0.55,0.79-0.88
		c1.32-2.18,3.47-3.42,5.49-4.77c1.93-1.28,4.14-1.94,6.39-2.42c0.53-0.12,1.1-0.06,1.65-0.13c0.78-0.1,1.55-0.36,2.33-0.36
		c0.78,0,1.55,0.33,2.33,0.35c2.11,0.04,4.01,0.8,5.89,1.64c1.01,0.45,2.01,0.95,2.94,1.54c2.09,1.33,3.76,3.07,5.24,5.07
		c1.98,2.68,2.98,5.71,3.71,8.89c0.09,0.38,0.09,0.78,0.1,1.18c0.02,0.71,0.02,1.42,0.02,2.13c-0.01,2.51-0.56,4.97-1.5,7.36
		c-0.88,2.23-2.22,4.16-3.67,6.04c-0.38,0.5-0.84,0.96-1.34,1.34c-1.19,0.91-2.39,1.82-3.65,2.63c-1.61,1.04-3.46,1.53-5.27,2.07
		C312.71,566.68,311.07,566.84,309.85,566.72z"/>
	<path class="st17" d="M296.97,418.51c0.03,3.03-0.4,5.98-1.35,8.86c-0.4,1.21-0.91,2.36-1.56,3.45c-2.07,3.47-5.14,5.51-9.07,6.27
		c-2.42,0.47-4.85,0.54-7.32,0.2c-1.88-0.26-3.75-0.56-5.56-1.14c-1.21-0.38-2.37-0.88-3.48-1.5c-3.42-1.9-5.66-4.75-6.76-8.49
		c-0.72-2.45-1-4.96-0.82-7.51c0.08-1.18,0.25-2.36,0.41-3.53c0.05-0.39,0.18-0.77,0.28-1.15c0.21-0.81,0.74-1.39,1.44-1.81
		c0.34-0.2,0.7-0.37,1.06-0.54c3.76-1.73,7.69-2.94,11.81-3.34c6.66-0.64,12.89,0.75,18.6,4.31c0.2,0.13,0.39,0.26,0.6,0.39
		c1.18,0.72,1.8,1.73,1.74,3.14C296.94,416.92,296.97,417.72,296.97,418.51z"/>
	<path class="st17" d="M357.78,421.31c0.07,2.44-0.24,4.61-0.96,6.74c-1.11,3.28-3.16,5.8-6.11,7.59c-1.77,1.08-3.7,1.8-5.7,2.28
		c-3.25,0.76-6.54,1.1-9.88,0.68c-4.82-0.6-8.42-2.95-10.7-7.28c-1.12-2.12-1.8-4.39-2.17-6.74c-0.33-2.11-0.58-4.23-0.48-6.38
		c0.02-0.47,0.02-0.95,0.1-1.42c0.11-0.73,0.45-1.35,1.04-1.8c0.38-0.29,0.76-0.56,1.16-0.82c4.33-2.82,9.07-4.39,14.24-4.66
		c5.82-0.31,11.3,0.96,16.56,3.36c0.07,0.03,0.15,0.06,0.22,0.09c1.18,0.52,1.88,1.42,2.1,2.68c0.28,1.64,0.62,3.27,0.59,4.94
		C357.78,420.88,357.78,421.2,357.78,421.31z"/>
	<path class="st81" d="M302.77,540.41c0.78-0.01,1.49,0.51,1.68,1.07c0.21,0.6,0.01,1.39-0.48,1.7c-0.4,0.25-0.82,0.47-1.26,0.65
		c-1.32,0.52-2.65,1-3.97,1.51c-0.73,0.29-1.45,0.62-2.17,0.93c-0.06,0.03-0.16,0.13-0.15,0.17c0.03,0.13,0.08,0.31,0.17,0.35
		c1.52,0.64,3.05,1.28,4.58,1.9c0.58,0.24,1.18,0.43,1.77,0.67c0.29,0.12,0.57,0.27,0.84,0.44c0.58,0.37,0.89,1.28,0.64,1.88
		c-0.3,0.73-1.18,1.16-1.94,0.94c-0.38-0.11-0.76-0.23-1.12-0.38c-2.39-1.03-4.78-2.06-7.16-3.1c-0.43-0.19-0.88-0.37-1.26-0.64
		c-1.52-1.1-1.42-2.92,0.05-3.95c0.19-0.13,0.41-0.23,0.63-0.32c2.6-1.14,5.2-2.28,7.8-3.4
		C301.92,540.61,302.47,540.5,302.77,540.41z"/>
	<path class="st81" d="M326.91,546.53c0.06,0.79-0.31,1.46-1.02,1.92c-0.46,0.3-0.97,0.52-1.48,0.74c-2.6,1.14-5.21,2.26-7.8,3.41
		c-0.67,0.3-1.26,0.18-1.75-0.27c-0.78-0.72-0.91-1.71,0.11-2.4c0.64-0.44,1.39-0.73,2.12-1.02c1.46-0.59,2.94-1.13,4.41-1.7
		c0.22-0.08,0.44-0.19,0.62-0.32c0.11-0.08,0.18-0.24,0.23-0.37c0.01-0.04-0.08-0.14-0.14-0.17c-0.71-0.33-1.42-0.67-2.15-0.97
		c-1.53-0.63-3.07-1.24-4.6-1.86c-0.45-0.18-0.79-0.5-1.04-0.92c-0.38-0.64,0.05-1.74,0.77-1.95c0.47-0.14,0.94-0.15,1.4-0.02
		c0.38,0.1,0.74,0.26,1.1,0.41c2.1,0.9,4.21,1.79,6.3,2.71c0.65,0.28,1.29,0.59,1.91,0.94
		C326.53,545.03,326.88,545.71,326.91,546.53z"/>
	<path class="st82" d="M312.65,538.52c-0.05,0.26-0.13,0.64-0.22,1.03c-0.79,3.21-1.58,6.42-2.36,9.64
		c-0.41,1.68-0.81,3.37-1.21,5.05c-0.07,0.3-0.16,0.61-0.27,0.9c-0.21,0.56-0.99,0.96-1.55,0.81c-0.61-0.16-1.06-0.83-0.93-1.46
		c0.26-1.15,0.55-2.3,0.83-3.45c0.94-3.9,1.9-7.8,2.82-11.71c0.16-0.7,0.34-1.37,0.72-1.99c0.22-0.35,0.8-0.55,1.26-0.43
		c0.47,0.12,0.84,0.55,0.87,1C312.63,538.08,312.63,538.23,312.65,538.52z"/>
	<path class="st1" d="M274.15,424.33c0.03-0.95,0.02-1.9,0.3-2.82c0.17-0.54-0.05-0.88-0.5-1.18c-1.07-0.72-1.92-1.64-2.48-2.81
		c-0.05-0.1,0.05-0.28,0.11-0.41c0.02-0.05,0.14-0.1,0.19-0.07c0.5,0.23,1,0.46,1.49,0.72c0.57,0.3,1.18,0.46,1.81,0.5
		c0.22,0.01,0.52-0.04,0.65-0.18c0.42-0.47,0.79-0.98,1.14-1.5c0.06-0.09,0.02-0.31-0.04-0.43c-0.28-0.48-0.63-0.92-0.87-1.41
		c-0.6-1.22-0.99-2.5-0.71-3.88c0.01-0.04,0.11-0.07,0.18-0.08c0.07-0.01,0.19-0.02,0.22,0.02c0.28,0.37,0.57,0.75,0.83,1.14
		c0.44,0.66,0.97,1.25,1.61,1.72c0.79,0.58,1.62,0.88,2.66,0.57c3.18-0.95,5.73,0.23,7.84,2.56c1.42,1.56,2.19,3.47,2.53,5.53
		c0.51,3.08-0.03,5.98-1.7,8.63c-0.86,1.36-1.99,2.47-3.44,3.17c-2.11,1.03-4.28,1.04-6.41,0.05c-1.7-0.79-2.95-2.1-3.87-3.72
		C274.6,428.56,274.08,426.51,274.15,424.33z"/>
	<path class="st1" d="M336.09,434.86c-2.11,0.06-3.84-0.8-5.32-2.22c-1.22-1.17-2.05-2.59-2.58-4.2c-1.1-3.31-0.89-6.54,0.67-9.66
		c0.72-1.44,1.73-2.65,3.07-3.54c1.79-1.19,3.75-1.76,5.85-1.09c1.42,0.46,2.45-0.03,3.44-0.92c0.72-0.64,1.21-1.45,1.72-2.25
		c0.1-0.16,0.21-0.27,0.36-0.19c0.11,0.06,0.24,0.2,0.25,0.31c0.15,1.46-0.18,2.82-0.96,4.07c-0.17,0.27-0.35,0.52-0.52,0.79
		c-0.18,0.28-0.26,0.55-0.02,0.85c0.29,0.37,0.57,0.76,0.86,1.13c0.21,0.27,0.51,0.34,0.84,0.32c1.14-0.08,2.1-0.65,3.07-1.16
		c0.17-0.09,0.32-0.1,0.39,0.09c0.05,0.13,0.06,0.3,0.03,0.44c-0.03,0.15-0.13,0.28-0.21,0.42c-0.41,0.68-0.93,1.27-1.54,1.78
		c-0.3,0.25-0.65,0.47-0.91,0.75c-0.14,0.15-0.24,0.42-0.22,0.62c0.06,0.79,0.2,1.57,0.25,2.36c0.16,2.5-0.29,4.88-1.59,7.05
		c-0.87,1.45-2.01,2.63-3.51,3.44C338.44,434.62,337.29,434.9,336.09,434.86z"/>
	<path class="st83" d="M287.52,426.86c0.05,1.05-0.25,2.01-0.9,2.85c-1.27,1.62-3.39,1.64-4.65,0.03c-1.26-1.62-1.29-3.8-0.1-5.5
		c0.05-0.06,0.1-0.12,0.15-0.18c1.32-1.56,3.43-1.5,4.65,0.15C287.25,424.99,287.55,425.87,287.52,426.86z"/>
	<path class="st83" d="M337.78,427.3c-0.03,0.96-0.45,2.04-1.37,2.88c-1.14,1.03-2.73,1.02-3.85-0.04
		c-1.74-1.65-1.84-4.59-0.04-6.36c1.19-1.16,2.83-1.13,4.02,0.03C337.34,424.58,337.8,425.79,337.78,427.3z"/>
</g>
</svg>
